<svg width="50" height="40" viewBox="0 0 50 40" fill="none" xmlns="http://www.w3.org/2000/svg">
<g clip-path="url(#clip0)">
<path d="M12.7729 28.6361H12.9397C12.984 28.632 13.0286 28.6407 13.0682 28.6611C13.0848 28.6719 13.0983 28.6868 13.1073 28.7043C13.1164 28.7219 13.1207 28.7415 13.1199 28.7612C13.1214 28.7793 13.1184 28.7975 13.1112 28.8141C13.1039 28.8307 13.0925 28.8452 13.0782 28.8563C13.0357 28.8788 12.9876 28.8886 12.9397 28.8847H12.8747L12.9364 29.0248C12.9528 29.0583 12.963 29.0944 12.9664 29.1316C12.9665 29.1474 12.9631 29.1631 12.9565 29.1775C12.9499 29.1919 12.9402 29.2047 12.928 29.215C12.9042 29.2377 12.8725 29.2502 12.8396 29.25C12.7874 29.25 12.7418 29.205 12.7028 29.1149L12.6011 28.8847H10.8962L10.7877 29.1299C10.7533 29.2077 10.7105 29.2467 10.6593 29.2467C10.643 29.247 10.6268 29.244 10.6116 29.238C10.5964 29.232 10.5826 29.223 10.5709 29.2116C10.5594 29.2017 10.5502 29.1894 10.5439 29.1756C10.5376 29.1618 10.5342 29.1468 10.5342 29.1316C10.5369 29.0933 10.5471 29.0558 10.5642 29.0215L11.6118 26.6143C11.653 26.5208 11.7002 26.4741 11.7536 26.4741C11.7678 26.474 11.7819 26.4768 11.7948 26.4826C11.8078 26.4884 11.8193 26.4968 11.8287 26.5075C11.8582 26.5442 11.8818 26.5853 11.8988 26.6293L12.7729 28.6361ZM11.7486 26.9095L11.0079 28.6361H12.5093L11.7486 26.9095Z" fill="white"/>
<path d="M15.0369 28.7963L16.2964 25.9371C16.3139 25.8894 16.338 25.8445 16.3681 25.8036C16.378 25.7934 16.39 25.7855 16.4032 25.7803C16.4165 25.7751 16.4306 25.7728 16.4448 25.7736C16.4783 25.7729 16.5107 25.7855 16.5349 25.8086C16.5466 25.8191 16.556 25.8319 16.5623 25.8463C16.5686 25.8607 16.5718 25.8763 16.5716 25.892C16.566 25.9403 16.5518 25.9871 16.5299 26.0305L15.1954 29.09C15.1771 29.139 15.1518 29.185 15.1203 29.2267C15.1091 29.237 15.0959 29.2447 15.0815 29.2496C15.0672 29.2545 15.052 29.2564 15.0369 29.2551C15.0093 29.2562 14.9825 29.2467 14.9618 29.2284C14.9352 29.1992 14.9143 29.1652 14.9001 29.1283L13.8174 26.6844C13.8018 26.6543 13.7922 26.6214 13.7891 26.5877C13.7889 26.5717 13.792 26.5559 13.7983 26.5412C13.8047 26.5265 13.814 26.5134 13.8258 26.5026C13.837 26.4914 13.8502 26.4826 13.8648 26.4766C13.8794 26.4706 13.8951 26.4675 13.9108 26.4675C13.9642 26.4675 14.0076 26.5042 14.041 26.5776L15.0369 28.7963Z" fill="white"/>
<path d="M19.0444 28.6361H19.2112C19.2555 28.632 19.3001 28.6407 19.3397 28.6611C19.3562 28.6719 19.3697 28.6868 19.3788 28.7043C19.3879 28.7219 19.3922 28.7415 19.3914 28.7612C19.3929 28.7793 19.3899 28.7975 19.3826 28.8141C19.3754 28.8307 19.364 28.8452 19.3497 28.8563C19.3072 28.8788 19.2591 28.8886 19.2112 28.8847H19.1461L19.2079 29.0248C19.2243 29.0583 19.2344 29.0944 19.2379 29.1316C19.238 29.1474 19.2346 29.1631 19.228 29.1775C19.2213 29.1919 19.2116 29.2047 19.1995 29.215C19.1757 29.2377 19.144 29.2502 19.1111 29.25C19.0588 29.25 19.0132 29.205 18.9743 29.1149L18.8726 28.8847H17.1677L17.0592 29.1299C17.0248 29.2077 16.9819 29.2467 16.9308 29.2467C16.9145 29.247 16.8982 29.244 16.8831 29.238C16.8679 29.232 16.8541 29.223 16.8424 29.2116C16.8309 29.2017 16.8217 29.1894 16.8154 29.1756C16.809 29.1618 16.8057 29.1468 16.8057 29.1316C16.8084 29.0933 16.8186 29.0558 16.8357 29.0215L17.8833 26.6143C17.9245 26.5208 17.9717 26.4741 18.0251 26.4741C18.0393 26.474 18.0533 26.4768 18.0663 26.4826C18.0793 26.4884 18.0908 26.4968 18.1002 26.5075C18.1297 26.5442 18.1533 26.5853 18.1702 26.6293L19.0444 28.6361ZM18.0151 26.9095L17.2678 28.6361H18.7691L18.0151 26.9095Z" fill="white"/>
<path d="M20.3173 28.9934H22.3525C22.3968 28.9892 22.4414 28.9979 22.4809 29.0184C22.4975 29.0291 22.511 29.044 22.5201 29.0616C22.5292 29.0791 22.5335 29.0988 22.5326 29.1185C22.5345 29.1368 22.5316 29.1553 22.5243 29.1723C22.517 29.1892 22.5055 29.204 22.4909 29.2153C22.4483 29.2374 22.4004 29.2472 22.3525 29.2436H20.2739C20.2444 29.2475 20.2144 29.2454 20.1857 29.2374C20.157 29.2293 20.1303 29.2156 20.1071 29.1969C20.074 29.1345 20.0606 29.0635 20.0687 28.9934V26.6579C20.0687 26.5367 20.111 26.4761 20.1955 26.4761C20.28 26.4761 20.3206 26.5367 20.3173 26.6579V28.9934Z" fill="white"/>
<path d="M24.8711 28.9385L23.6433 29.2388C23.5938 29.253 23.5429 29.262 23.4915 29.2655C23.4451 29.2673 23.3991 29.2558 23.3589 29.2325C23.3188 29.2092 23.2861 29.1749 23.2646 29.1337C23.237 29.0915 23.2193 29.0436 23.2129 28.9936C23.2129 28.9491 23.2129 28.8234 23.2129 28.6166V26.6598C23.2129 26.5385 23.2552 26.4779 23.3397 26.4779C23.4242 26.4779 23.4648 26.5385 23.4615 26.6598V28.6299C23.4615 28.7823 23.4615 28.8696 23.4615 28.8918C23.4615 28.9608 23.4954 28.9952 23.5632 28.9952C23.631 28.9904 23.698 28.9786 23.7634 28.9602L24.8727 28.6833V26.6598C24.8727 26.5385 24.915 26.4779 24.9995 26.4779C25.0175 26.4764 25.0356 26.4795 25.052 26.4872C25.0684 26.4948 25.0825 26.5065 25.0929 26.5213C25.1152 26.5639 25.1251 26.6119 25.1213 26.6598V29.0686C25.1213 29.1887 25.0796 29.2488 24.9945 29.2488C24.9765 29.2502 24.9585 29.2469 24.9421 29.2393C24.9258 29.2317 24.9116 29.2201 24.9011 29.2054C24.8789 29.1634 24.869 29.116 24.8727 29.0686L24.8711 28.9385Z" fill="white"/>
<path d="M27.6706 26.4675C27.7416 26.4626 27.8129 26.4728 27.8796 26.4975C27.9464 26.5223 28.0071 26.5609 28.0577 26.611C28.1552 26.7246 28.2043 26.872 28.1945 27.0214C28.17 27.3653 28.058 27.6972 27.8692 27.9856C27.6588 28.372 27.3661 28.7074 27.0117 28.9682C26.8021 29.1359 26.5457 29.2344 26.2777 29.2501C26.1461 29.2535 26.0184 29.205 25.9224 29.115C25.8686 29.0609 25.8269 28.9961 25.7998 28.9248C25.7728 28.8535 25.7611 28.7774 25.7656 28.7013C25.7961 28.3401 25.9184 27.9926 26.1209 27.692C26.3396 27.3037 26.6429 26.9696 27.0084 26.7144C27.2008 26.5702 27.4307 26.4845 27.6706 26.4675ZM27.6373 26.6877C27.4208 26.7151 27.2189 26.8116 27.0618 26.963C26.7427 27.2237 26.4766 27.5431 26.2777 27.9039C26.1275 28.1436 26.0397 28.4172 26.0225 28.6996C26.02 28.7455 26.027 28.7914 26.043 28.8345C26.0591 28.8775 26.0839 28.9168 26.1159 28.9498C26.1706 29.0007 26.243 29.0282 26.3177 29.0265C26.5469 28.9974 26.7605 28.895 26.9266 28.7346C27.2445 28.4752 27.5071 28.1547 27.699 27.7921C27.8365 27.5618 27.923 27.3047 27.9526 27.0381C27.9568 26.9943 27.9521 26.95 27.9386 26.9082C27.9251 26.8663 27.9032 26.8276 27.8742 26.7945C27.8447 26.7611 27.8085 26.7343 27.768 26.7159C27.7275 26.6975 27.6835 26.6879 27.6389 26.6877H27.6373Z" fill="white"/>
<path d="M29.8791 27.365C30.0318 27.3342 30.1871 27.3186 30.3428 27.3183C30.6628 27.3078 30.9773 27.4021 31.2387 27.5869C31.3375 27.6531 31.4185 27.7428 31.4744 27.8478C31.5303 27.9529 31.5593 28.0701 31.559 28.1891C31.5562 28.3959 31.4793 28.5948 31.3421 28.7496C31.2083 28.9103 31.0362 29.0348 30.8416 29.1116C30.6294 29.1963 30.4029 29.2393 30.1744 29.2384C29.8117 29.2356 29.4552 29.1434 29.1367 28.9698C28.931 28.8586 28.8281 28.7691 28.8281 28.7013C28.8281 28.6855 28.8312 28.6698 28.8372 28.6552C28.8432 28.6406 28.852 28.6274 28.8632 28.6162C28.874 28.6045 28.8872 28.5952 28.9018 28.5889C28.9165 28.5826 28.9323 28.5794 28.9482 28.5795C29.0049 28.5887 29.0577 28.6142 29.1 28.6529C29.2523 28.7603 29.4214 28.8415 29.6005 28.8931C29.7844 28.952 29.9763 28.9823 30.1694 28.9832C30.3397 28.9916 30.51 28.9652 30.6698 28.9056C30.8295 28.8459 30.9754 28.7542 31.0985 28.6362C31.1589 28.5804 31.2072 28.5129 31.2405 28.4377C31.2738 28.3625 31.2913 28.2813 31.2921 28.1991C31.2928 28.121 31.2752 28.0438 31.2407 27.9737C31.2062 27.9036 31.1558 27.8425 31.0935 27.7954C30.8779 27.632 30.6113 27.5505 30.3412 27.5652C30.0904 27.5712 29.8419 27.6145 29.6038 27.6937C29.5802 27.7021 29.5555 27.7071 29.5304 27.7087C29.5137 27.7086 29.4972 27.705 29.4819 27.6981C29.4667 27.6912 29.4531 27.6812 29.442 27.6686C29.4178 27.6449 29.404 27.6125 29.4037 27.5786C29.4159 27.5223 29.445 27.4711 29.4871 27.4318L30.2478 26.561C30.2602 26.5432 30.2763 26.5283 30.295 26.5174C30.3137 26.5064 30.3346 26.4997 30.3562 26.4976C30.3904 26.4973 30.4234 26.5104 30.4479 26.5343C30.4599 26.545 30.4695 26.5581 30.4761 26.5727C30.4827 26.5874 30.4862 26.6033 30.4863 26.6193C30.4794 26.6628 30.4583 26.7027 30.4263 26.7328L29.8791 27.365Z" fill="white"/>
<path d="M33.9178 26.7127C34.0544 26.6337 34.1993 26.5699 34.3499 26.5225C34.481 26.4843 34.617 26.4652 34.7536 26.4658C34.999 26.4586 35.2394 26.5364 35.4342 26.686C35.5448 26.7687 35.634 26.8767 35.6943 27.0009C35.7547 27.1251 35.7845 27.2619 35.7812 27.4C35.7812 27.9216 35.4703 28.3831 34.8486 28.7846C34.6549 28.9119 34.4513 29.0235 34.2398 29.1182C34.0958 29.1919 33.9399 29.2394 33.7793 29.2584C33.7668 29.2602 33.7541 29.2596 33.7418 29.2565C33.7296 29.2534 33.718 29.2479 33.708 29.2403C33.6979 29.2326 33.6894 29.2231 33.683 29.2122C33.6766 29.2012 33.6725 29.1892 33.6709 29.1766C33.6709 29.1599 33.6709 29.1015 33.6709 29.0015V26.666C33.6709 26.5448 33.7132 26.4841 33.7977 26.4841C33.8822 26.4841 33.9228 26.5448 33.9195 26.666L33.9178 26.7127ZM33.9178 26.9913V28.9614C34.2377 28.8631 34.5384 28.7108 34.8069 28.511C35.0496 28.3535 35.2509 28.1401 35.3941 27.8888C35.4704 27.7501 35.5117 27.5949 35.5143 27.4367C35.5171 27.3443 35.5011 27.2523 35.4672 27.1662C35.4334 27.0802 35.3824 27.002 35.3174 26.9362C35.2395 26.8599 35.1467 26.8004 35.0448 26.7614C34.943 26.7224 34.8342 26.7046 34.7252 26.7093C34.434 26.7207 34.1528 26.8189 33.9178 26.9913Z" fill="white"/>
<path d="M36.5315 26.6979V28.3994H37.8293C37.8742 28.3953 37.9193 28.404 37.9595 28.4244C37.976 28.4352 37.9895 28.4501 37.9986 28.4676C38.0077 28.4852 38.012 28.5048 38.0112 28.5245C38.0132 28.5427 38.0106 28.5611 38.0036 28.5781C37.9966 28.595 37.9854 28.6098 37.9711 28.6213C37.9276 28.6441 37.8783 28.654 37.8293 28.6496H36.5315V28.9833H38.6634C38.7119 28.9793 38.7605 28.9891 38.8036 29.0116C38.8179 29.0227 38.8293 29.0373 38.8365 29.0539C38.8438 29.0705 38.8468 29.0887 38.8453 29.1067C38.8471 29.1251 38.8443 29.1436 38.837 29.1605C38.8297 29.1774 38.8182 29.1922 38.8036 29.2035C38.7605 29.226 38.7119 29.2358 38.6634 29.2318H36.5315C36.4595 29.2397 36.3866 29.2294 36.3196 29.2018C36.294 29.1818 36.2812 29.1262 36.2812 29.035V26.6662C36.2812 26.5727 36.2952 26.5171 36.323 26.4993C36.3881 26.4693 36.4602 26.4577 36.5315 26.466H37.8227C37.8711 26.462 37.9197 26.4718 37.9628 26.4943C37.9771 26.5054 37.9885 26.5199 37.9958 26.5366C38.0031 26.5532 38.0061 26.5713 38.0045 26.5894C38.0063 26.6078 38.0035 26.6263 37.9962 26.6432C37.9889 26.6601 37.9774 26.6749 37.9628 26.6862C37.9197 26.7087 37.8711 26.7185 37.8227 26.7145L36.5315 26.6979Z" fill="white"/>
<path d="M3.37471 31.7221C3.58317 31.5763 3.82808 31.4914 4.08203 31.4769C4.23705 31.4691 4.38954 31.5184 4.51075 31.6153C4.55217 31.6506 4.58519 31.6946 4.60742 31.7443C4.62964 31.7939 4.6405 31.8479 4.6392 31.9023C4.63088 32.008 4.59748 32.1102 4.54178 32.2004C4.48608 32.2906 4.40968 32.3663 4.31891 32.4211C4.41789 32.4133 4.50019 32.4094 4.5658 32.4094C4.80523 32.4017 5.04291 32.4526 5.2581 32.5579C5.34296 32.6021 5.41483 32.6676 5.46663 32.748C5.51722 32.8236 5.54449 32.9123 5.54503 33.0033C5.54503 33.2824 5.34096 33.5499 4.9328 33.8057C4.42019 34.0865 3.84879 34.2431 3.26461 34.2628C3.20789 34.2628 3.17119 34.2494 3.15451 34.2244C3.13271 34.1716 3.12411 34.1144 3.12948 34.0576V31.672C3.12948 31.5508 3.17175 31.4902 3.25627 31.4902C3.34079 31.4902 3.38139 31.5508 3.37805 31.672L3.37471 31.7221ZM3.37471 31.9773V32.6446C3.55662 32.6011 3.73253 32.5356 3.89853 32.4494C4.02309 32.389 4.13603 32.3071 4.23216 32.2075C4.30361 32.1403 4.34708 32.0485 4.35394 31.9506C4.35484 31.9201 4.34815 31.8897 4.33447 31.8624C4.32079 31.835 4.30055 31.8114 4.27554 31.7938C4.21492 31.7521 4.14218 31.7316 4.06868 31.7354C3.95441 31.7393 3.84162 31.7625 3.73504 31.8038C3.60818 31.8457 3.48711 31.9035 3.37471 31.9757V31.9773ZM3.37471 32.8648V34.0125C3.57856 33.9932 3.78126 33.9632 3.98194 33.9224C4.13862 33.884 4.29202 33.8333 4.44069 33.7706C4.59547 33.7077 4.74357 33.6295 4.88276 33.5371C4.99246 33.4679 5.08951 33.3805 5.16969 33.2785C5.2268 33.2115 5.26073 33.1278 5.26644 33.04C5.26706 32.9909 5.25494 32.9425 5.23125 32.8995C5.20757 32.8565 5.17314 32.8204 5.13132 32.7947C4.92739 32.6833 4.6959 32.6324 4.46404 32.6479C4.08969 32.6478 3.71917 32.7232 3.37471 32.8698V32.8648Z" fill="white"/>
<path d="M6.2605 34.0814V31.6726C6.2605 31.5513 6.30276 31.4907 6.38728 31.4907C6.4718 31.4907 6.5124 31.5513 6.50906 31.6726V34.0814C6.50906 34.2015 6.4668 34.2616 6.38228 34.2616C6.36429 34.263 6.34625 34.2597 6.32989 34.2521C6.31353 34.2445 6.2994 34.2329 6.28886 34.2182C6.2667 34.1762 6.25687 34.1288 6.2605 34.0814Z" fill="white"/>
<path d="M7.55687 31.7189V33.4204H8.85473C8.89959 33.4163 8.9447 33.425 8.98484 33.4455C9.00144 33.4562 9.01493 33.4711 9.024 33.4886C9.03307 33.5062 9.0374 33.5258 9.03656 33.5456C9.0384 33.5639 9.03555 33.5824 9.02825 33.5993C9.02095 33.6163 9.00946 33.6311 8.99485 33.6423C8.95128 33.6652 8.90206 33.675 8.85306 33.6707H7.5552V34.0043H9.68715C9.73561 34.0003 9.7842 34.0102 9.82729 34.0327C9.84175 34.0437 9.85318 34.0582 9.86047 34.0748C9.86777 34.0914 9.8707 34.1097 9.86899 34.1278C9.87084 34.1461 9.86797 34.1646 9.86068 34.1815C9.85338 34.1985 9.84189 34.2133 9.82729 34.2245C9.7842 34.247 9.73561 34.2569 9.68715 34.2529H7.55687C7.48485 34.2607 7.41202 34.2504 7.34501 34.2228C7.31943 34.2028 7.30664 34.1472 7.30664 34.056V31.6788C7.30664 31.5854 7.32054 31.5298 7.34835 31.512C7.41347 31.482 7.48562 31.4704 7.55687 31.4787H8.84805C8.8965 31.4747 8.9451 31.4845 8.98818 31.507C9.00265 31.518 9.01407 31.5325 9.02137 31.5492C9.02867 31.5658 9.0316 31.584 9.02989 31.6021C9.03174 31.6205 9.02887 31.639 9.02158 31.6559C9.01428 31.6728 9.00279 31.6876 8.98818 31.6989C8.94461 31.7217 8.89539 31.7315 8.84639 31.7272L7.55687 31.7189Z" fill="white"/>
<path d="M10.6949 32.0026V34.0812C10.6949 34.2024 10.6526 34.263 10.5681 34.263C10.5501 34.2644 10.5321 34.2612 10.5157 34.2536C10.4994 34.246 10.4852 34.2343 10.4747 34.2196C10.4525 34.177 10.4427 34.1291 10.4463 34.0812V31.684C10.4428 31.6355 10.4485 31.5869 10.463 31.5405C10.4726 31.526 10.485 31.5135 10.4995 31.5038C10.514 31.4941 10.5302 31.4874 10.5474 31.4842C10.5645 31.4809 10.5821 31.4811 10.5991 31.4848C10.6161 31.4884 10.6323 31.4955 10.6465 31.5055C10.6902 31.5536 10.7304 31.6049 10.7666 31.659L12.1112 33.7175V30.94C12.1112 30.8187 12.1534 30.7581 12.238 30.7581C12.256 30.7567 12.274 30.76 12.2904 30.7676C12.3067 30.7752 12.3208 30.7869 12.3314 30.8015C12.3536 30.8441 12.3634 30.8921 12.3598 30.94V34.0812C12.3635 34.1294 12.3543 34.1778 12.3331 34.2213C12.3229 34.2353 12.3092 34.2464 12.2934 34.2534C12.2776 34.2604 12.2602 34.2632 12.243 34.2613C12.2149 34.2588 12.188 34.2492 12.1647 34.2335C12.1413 34.2177 12.1224 34.1963 12.1095 34.1713L10.6949 32.0026Z" fill="white"/>
<path d="M13.3108 31.7189V33.4204H14.6086C14.6535 33.4163 14.6986 33.425 14.7387 33.4455C14.7553 33.4562 14.7688 33.4711 14.7779 33.4886C14.787 33.5062 14.7913 33.5258 14.7905 33.5456C14.7923 33.5639 14.7895 33.5824 14.7822 33.5993C14.7749 33.6163 14.7634 33.6311 14.7488 33.6423C14.7052 33.6652 14.656 33.675 14.607 33.6707H13.3108V34.0043H15.4427C15.4912 34.0003 15.5398 34.0102 15.5829 34.0327C15.5973 34.0437 15.6087 34.0582 15.616 34.0748C15.6233 34.0914 15.6263 34.1097 15.6246 34.1278C15.6264 34.1461 15.6235 34.1646 15.6163 34.1815C15.609 34.1985 15.5975 34.2133 15.5829 34.2245C15.5398 34.247 15.4912 34.2569 15.4427 34.2529H13.3108C13.2388 34.2607 13.1659 34.2504 13.0989 34.2228C13.0733 34.2028 13.0605 34.1472 13.0605 34.056V31.6788C13.0605 31.5854 13.0744 31.5298 13.1023 31.512C13.1674 31.482 13.2395 31.4704 13.3108 31.4787H14.602C14.6504 31.4747 14.699 31.4845 14.7421 31.507C14.7566 31.518 14.768 31.5325 14.7753 31.5492C14.7826 31.5658 14.7855 31.584 14.7838 31.6021C14.7856 31.6205 14.7828 31.639 14.7755 31.6559C14.7682 31.6728 14.7567 31.6876 14.7421 31.6989C14.6985 31.7217 14.6493 31.7315 14.6003 31.7272L13.3108 31.7189Z" fill="white"/>
<path d="M17.1239 32.3831C17.2766 32.3523 17.4319 32.3367 17.5877 32.3364C17.907 32.3263 18.221 32.4206 18.4818 32.605C18.5807 32.6712 18.6617 32.7609 18.7175 32.8659C18.7734 32.971 18.8025 33.0882 18.8021 33.2072C18.7994 33.414 18.7224 33.6129 18.5853 33.7677C18.4514 33.9284 18.2793 34.0529 18.0848 34.1297C17.8726 34.2144 17.646 34.2574 17.4175 34.2565C17.0548 34.2538 16.6984 34.1615 16.3799 33.9879C16.1742 33.8767 16.0713 33.7872 16.0713 33.7194C16.0712 33.7036 16.0742 33.6879 16.0802 33.6733C16.0862 33.6587 16.0951 33.6454 16.1063 33.6343C16.1172 33.6226 16.1304 33.6133 16.145 33.607C16.1597 33.6007 16.1755 33.5975 16.1914 33.5976C16.248 33.6069 16.3008 33.6324 16.3432 33.671C16.4954 33.7784 16.6646 33.8596 16.8437 33.9112C17.0276 33.9701 17.2194 34.0004 17.4125 34.0013C17.5829 34.0097 17.7531 33.9833 17.9129 33.9237C18.0727 33.864 18.2186 33.7723 18.3417 33.6543C18.4021 33.5985 18.4504 33.531 18.4837 33.4558C18.517 33.3806 18.5345 33.2994 18.5352 33.2172C18.5359 33.1391 18.5184 33.0619 18.4839 32.9918C18.4494 32.9217 18.399 32.8607 18.3367 32.8135C18.1211 32.6502 17.8545 32.5686 17.5843 32.5833C17.334 32.5866 17.0855 32.6271 16.847 32.7034C16.8234 32.7118 16.7986 32.7169 16.7736 32.7184C16.7569 32.7184 16.7403 32.7148 16.7251 32.7079C16.7099 32.701 16.6963 32.6909 16.6852 32.6784C16.661 32.6546 16.6472 32.6222 16.6468 32.5883C16.6591 32.5321 16.6882 32.4809 16.7302 32.4415L17.4909 31.5707C17.5034 31.553 17.5196 31.5382 17.5383 31.5273C17.557 31.5164 17.5778 31.5095 17.5994 31.5073C17.6336 31.507 17.6665 31.5202 17.6911 31.544C17.7031 31.5547 17.7127 31.5679 17.7193 31.5825C17.7259 31.5972 17.7294 31.613 17.7295 31.6291C17.723 31.6723 17.7025 31.7122 17.6711 31.7425L17.1239 32.3831Z" fill="white"/>
<path d="M20.9128 34.0814V31.6726C20.9128 31.5513 20.9551 31.4907 21.0396 31.4907C21.1242 31.4907 21.1647 31.5513 21.1614 31.6726V34.0814C21.1614 34.2015 21.1192 34.2616 21.0346 34.2616C21.0166 34.263 20.9986 34.2597 20.9822 34.2521C20.9659 34.2445 20.9517 34.2329 20.9412 34.2182C20.919 34.1762 20.9092 34.1288 20.9128 34.0814Z" fill="white"/>
<path d="M22.2066 32.0026V34.0812C22.2066 34.2024 22.1643 34.263 22.0798 34.263C22.0618 34.2644 22.0438 34.2612 22.0274 34.2536C22.0111 34.246 21.9969 34.2343 21.9864 34.2196C21.9642 34.177 21.9544 34.1291 21.9581 34.0812V31.684C21.9545 31.6355 21.9602 31.5869 21.9747 31.5405C21.9843 31.526 21.9967 31.5135 22.0112 31.5038C22.0257 31.4941 22.042 31.4874 22.0591 31.4842C22.0762 31.4809 22.0938 31.4811 22.1108 31.4848C22.1278 31.4884 22.144 31.4955 22.1582 31.5055C22.202 31.5536 22.2421 31.6049 22.2783 31.659L23.6229 33.7175V30.94C23.6229 30.8187 23.6652 30.7581 23.7497 30.7581C23.7677 30.7567 23.7857 30.76 23.8021 30.7676C23.8184 30.7752 23.8326 30.7869 23.8431 30.8015C23.8653 30.8441 23.8751 30.8921 23.8715 30.94V34.0812C23.8752 34.1294 23.866 34.1778 23.8448 34.2213C23.8346 34.2353 23.8209 34.2464 23.8051 34.2534C23.7893 34.2604 23.7719 34.2632 23.7547 34.2613C23.7267 34.2588 23.6997 34.2492 23.6764 34.2335C23.653 34.2177 23.6341 34.1963 23.6212 34.1713L22.2066 32.0026Z" fill="white"/>
<path d="M26.7613 32.2028L25.9272 34.1412C25.8921 34.2213 25.8504 34.2613 25.7971 34.2613C25.7437 34.2613 25.6936 34.2196 25.6586 34.1395L24.8245 32.2228V34.0828C24.8245 34.2029 24.7822 34.263 24.6977 34.263C24.6797 34.2644 24.6617 34.2611 24.6453 34.2535C24.629 34.2459 24.6148 34.2342 24.6043 34.2196C24.5821 34.1776 24.5723 34.1302 24.5759 34.0828V31.6606C24.5738 31.6222 24.5789 31.5837 24.591 31.5472C24.6009 31.5264 24.6169 31.509 24.6368 31.4974C24.6568 31.4858 24.6797 31.4805 24.7027 31.4821C24.7172 31.481 24.7317 31.4831 24.7453 31.4883C24.7588 31.4935 24.7711 31.5016 24.7811 31.5121C24.8115 31.5566 24.8362 31.6049 24.8545 31.6556L25.7904 33.8242L26.7529 31.5922C26.7671 31.5552 26.7874 31.5208 26.813 31.4904C26.8335 31.4735 26.8598 31.4651 26.8864 31.4671C26.9609 31.4671 27.0026 31.511 27.0115 31.5989C27.0115 31.6422 27.0115 31.7457 27.0115 31.9091V34.8051C27.0115 34.9264 26.9692 34.987 26.8847 34.987C26.8667 34.9884 26.8487 34.9851 26.8323 34.9775C26.816 34.9699 26.8018 34.9582 26.7913 34.9436C26.7692 34.901 26.7593 34.853 26.7629 34.8051L26.7613 32.2028Z" fill="white"/>
<path d="M29.375 33.9511L28.1472 34.2514C28.0977 34.2656 28.0468 34.2746 27.9954 34.2781C27.949 34.2799 27.903 34.2684 27.8628 34.2451C27.8227 34.2218 27.79 34.1875 27.7685 34.1463C27.7409 34.1041 27.7232 34.0562 27.7168 34.0062C27.7168 33.9617 27.7168 33.836 27.7168 33.6292V31.6724C27.7168 31.5512 27.7591 31.4905 27.8436 31.4905C27.9281 31.4905 27.9687 31.5512 27.9654 31.6724V33.6425C27.9654 33.7949 27.9654 33.8822 27.9654 33.9044C27.9654 33.9734 27.9993 34.0079 28.0671 34.0079C28.1349 34.0029 28.2019 33.9912 28.2673 33.9728L29.375 33.7042V31.6724C29.375 31.5512 29.4172 31.4905 29.5018 31.4905C29.5198 31.4892 29.5378 31.4924 29.5542 31.5C29.5705 31.5076 29.5847 31.5193 29.5952 31.5339C29.6174 31.5765 29.6272 31.6245 29.6235 31.6724V34.0813C29.6235 34.2014 29.5813 34.2614 29.4968 34.2614C29.4788 34.2628 29.4607 34.2596 29.4444 34.252C29.428 34.2444 29.4139 34.2327 29.4033 34.218C29.3813 34.176 29.3714 34.1286 29.375 34.0813V33.9511Z" fill="white"/>
<path d="M30.5744 31.7189V33.4204H31.8723C31.9172 33.4163 31.9623 33.425 32.0024 33.4455C32.019 33.4562 32.0325 33.4711 32.0416 33.4886C32.0507 33.5062 32.055 33.5258 32.0541 33.5456C32.0562 33.5638 32.0536 33.5822 32.0466 33.5991C32.0396 33.616 32.0284 33.6309 32.0141 33.6423C31.9705 33.6652 31.9213 33.675 31.8723 33.6707H30.5744V34.0043H32.7064C32.7549 34.0003 32.8034 34.0102 32.8465 34.0327C32.8609 34.0438 32.8722 34.0583 32.8795 34.0749C32.8868 34.0915 32.8898 34.1097 32.8882 34.1278C32.8901 34.1461 32.8872 34.1646 32.8799 34.1815C32.8726 34.1985 32.8611 34.2133 32.8465 34.2245C32.8034 34.247 32.7549 34.2569 32.7064 34.2529H30.5744C30.5024 34.2607 30.4296 34.2504 30.3626 34.2228C30.337 34.2028 30.3242 34.1472 30.3242 34.056V31.6788C30.3242 31.5854 30.3381 31.5298 30.3659 31.512C30.431 31.482 30.5032 31.4704 30.5744 31.4787H31.8606C31.9091 31.4747 31.9577 31.4845 32.0008 31.507C32.0151 31.5181 32.0264 31.5326 32.0337 31.5493C32.041 31.5659 32.044 31.584 32.0425 31.6021C32.0443 31.6205 32.0414 31.639 32.0341 31.6559C32.0269 31.6728 32.0154 31.6876 32.0008 31.6989C31.9577 31.7214 31.9091 31.7312 31.8606 31.7272L30.5744 31.7189Z" fill="white"/>
<path d="M33.7126 31.7221C33.921 31.5763 34.1659 31.4914 34.4199 31.4769C34.5749 31.4691 34.7274 31.5184 34.8486 31.6153C34.8901 31.6505 34.9232 31.6945 34.9454 31.7442C34.9677 31.7939 34.9785 31.8479 34.9771 31.9023C34.9687 32.008 34.9353 32.1102 34.8796 32.2004C34.8239 32.2906 34.7475 32.3663 34.6568 32.4211C34.7569 32.4211 34.8386 32.4094 34.9037 32.4094C35.1431 32.4017 35.3808 32.4526 35.596 32.5579C35.6809 32.602 35.7527 32.6675 35.8045 32.748C35.8552 32.8235 35.8824 32.9123 35.8829 33.0033C35.8829 33.2824 35.6788 33.5499 35.2707 33.8057C34.758 34.0865 34.1866 34.2431 33.6025 34.2628C33.5457 34.2628 33.509 34.2494 33.4924 34.2244C33.4706 34.1716 33.462 34.1144 33.4673 34.0576V31.672C33.4673 31.5508 33.5096 31.4902 33.5941 31.4902C33.6787 31.4902 33.7192 31.5508 33.7159 31.672L33.7126 31.7221ZM33.7126 31.9773V32.6446C33.8945 32.6012 34.0704 32.5356 34.2364 32.4494C34.3609 32.389 34.4739 32.3071 34.57 32.2075C34.6415 32.1403 34.6849 32.0485 34.6918 31.9506C34.6929 31.9202 34.6865 31.89 34.6731 31.8626C34.6597 31.8353 34.6398 31.8116 34.6151 31.7938C34.5544 31.7521 34.4817 31.7316 34.4082 31.7354C34.2939 31.7393 34.1811 31.7624 34.0746 31.8038C33.9471 31.8456 33.8255 31.9033 33.7126 31.9757V31.9773ZM33.7126 32.8648V34.0125C33.9164 33.9932 34.1191 33.9632 34.3198 33.9224C34.4765 33.884 34.6299 33.8333 34.7785 33.7706C34.9333 33.7077 35.0814 33.6295 35.2206 33.5371C35.3303 33.4679 35.4273 33.3804 35.5075 33.2785C35.5646 33.2115 35.5986 33.1278 35.6043 33.04C35.6049 32.9909 35.5928 32.9425 35.5691 32.8995C35.5454 32.8565 35.511 32.8204 35.4692 32.7947C35.2653 32.6833 35.0338 32.6324 34.8019 32.6479C34.4276 32.6478 34.057 32.7232 33.7126 32.8698V32.8648Z" fill="white"/>
<path d="M36.8488 34.0061H38.8807C38.925 34.0018 38.9696 34.0105 39.0091 34.0311C39.0257 34.0418 39.0392 34.0567 39.0483 34.0743C39.0573 34.0918 39.0617 34.1114 39.0608 34.1312C39.0627 34.1495 39.0598 34.168 39.0525 34.185C39.0452 34.2019 39.0337 34.2167 39.0191 34.2279C38.9765 34.2501 38.9286 34.2599 38.8807 34.2563H36.8071C36.7776 34.2602 36.7476 34.2581 36.7189 34.25C36.6902 34.242 36.6635 34.2283 36.6403 34.2096C36.6072 34.1472 36.5938 34.0762 36.6019 34.0061V31.6706C36.6019 31.5494 36.6442 31.4888 36.7287 31.4888C36.8132 31.4888 36.8538 31.5494 36.8505 31.6706L36.8488 34.0061Z" fill="white"/>
<path d="M39.9885 31.7189V33.4204H41.2864C41.3312 33.4163 41.3763 33.425 41.4165 33.4455C41.4331 33.4562 41.4466 33.4711 41.4556 33.4886C41.4647 33.5062 41.469 33.5258 41.4682 33.5456C41.4702 33.5638 41.4676 33.5822 41.4606 33.5991C41.4536 33.616 41.4425 33.6309 41.4282 33.6423C41.3846 33.6652 41.3354 33.675 41.2864 33.6707H39.9885V34.0043H42.1205C42.1689 34.0003 42.2175 34.0102 42.2606 34.0327C42.2749 34.0438 42.2863 34.0583 42.2936 34.0749C42.3009 34.0915 42.3039 34.1097 42.3023 34.1278C42.3041 34.1461 42.3013 34.1646 42.294 34.1815C42.2867 34.1985 42.2752 34.2133 42.2606 34.2245C42.2175 34.247 42.1689 34.2569 42.1205 34.2529H39.9885C39.9165 34.2607 39.8437 34.2504 39.7767 34.2228C39.7511 34.2028 39.7383 34.1472 39.7383 34.056V31.6788C39.7383 31.5854 39.7522 31.5298 39.78 31.512C39.8451 31.482 39.9173 31.4704 39.9885 31.4787H41.2797C41.3281 31.4747 41.3767 31.4845 41.4198 31.507C41.4342 31.5181 41.4455 31.5326 41.4528 31.5493C41.4601 31.5659 41.4631 31.584 41.4615 31.6021C41.4634 31.6205 41.4605 31.639 41.4532 31.6559C41.4459 31.6728 41.4344 31.6876 41.4198 31.6989C41.3767 31.7214 41.3281 31.7312 41.2797 31.7272L39.9885 31.7189Z" fill="white"/>
<path d="M43.8 32.3831C43.9527 32.3523 44.108 32.3366 44.2637 32.3364C44.5836 32.3259 44.8982 32.4202 45.1596 32.605C45.2584 32.6712 45.3394 32.7608 45.3953 32.8659C45.4511 32.9709 45.4802 33.0882 45.4799 33.2072C45.4771 33.414 45.4001 33.6129 45.263 33.7677C45.1291 33.9284 44.9571 34.0529 44.7625 34.1297C44.5503 34.2143 44.3238 34.2574 44.0953 34.2565C43.7326 34.2537 43.3761 34.1614 43.0576 33.9879C42.8519 33.8767 42.749 33.7872 42.749 33.7193C42.749 33.7035 42.7521 33.6879 42.7581 33.6733C42.7641 33.6587 42.7729 33.6454 42.7841 33.6342C42.7949 33.6226 42.8081 33.6133 42.8227 33.6069C42.8374 33.6006 42.8532 33.5974 42.8691 33.5975C42.9258 33.6067 42.9785 33.6322 43.0209 33.6709C43.1732 33.7784 43.3423 33.8596 43.5214 33.9112C43.7053 33.97 43.8971 34.0004 44.0903 34.0012C44.2606 34.0097 44.4309 33.9833 44.5906 33.9236C44.7504 33.864 44.8963 33.7723 45.0194 33.6543C45.0798 33.5985 45.1281 33.5309 45.1614 33.4557C45.1947 33.3806 45.2122 33.2994 45.2129 33.2172C45.2137 33.1391 45.1961 33.0619 45.1616 32.9918C45.1271 32.9217 45.0767 32.8606 45.0144 32.8135C44.7988 32.6501 44.5322 32.5685 44.2621 32.5833C44.0113 32.5893 43.7628 32.6326 43.5247 32.7117C43.5011 32.7201 43.4764 32.7252 43.4513 32.7267C43.4346 32.7267 43.4181 32.7231 43.4028 32.7162C43.3876 32.7093 43.374 32.6992 43.3629 32.6867C43.3387 32.6629 43.3249 32.6305 43.3246 32.5966C43.3368 32.5403 43.3659 32.4891 43.408 32.4498L44.1687 31.579C44.1811 31.5613 44.1972 31.5464 44.2159 31.5354C44.2346 31.5245 44.2555 31.5177 44.2771 31.5156C44.3113 31.5153 44.3443 31.5285 44.3688 31.5523C44.3808 31.563 44.3904 31.5762 44.397 31.5908C44.4036 31.6055 44.4071 31.6213 44.4072 31.6374C44.4003 31.6808 44.3792 31.7207 44.3471 31.7508L43.8 32.3831Z" fill="white"/>
<path d="M46.0557 34.2746C46.0294 34.2578 46.0073 34.2349 45.9914 34.208C45.9755 34.181 45.9661 34.1507 45.964 34.1195C45.964 34.0752 45.9816 34.0328 46.0128 34.0015C46.0441 33.9703 46.0866 33.9527 46.1308 33.9527C46.1526 33.9522 46.1743 33.9566 46.1942 33.9655C46.2141 33.9745 46.2318 33.9878 46.2459 34.0044C46.2766 34.0406 46.2927 34.087 46.2909 34.1345C46.2874 34.2274 46.248 34.3154 46.1809 34.3797C46.141 34.4348 46.0811 34.472 46.014 34.4832C45.9773 34.4832 45.959 34.4637 45.959 34.4248C45.959 34.4059 45.979 34.3736 46.019 34.328C46.0323 34.311 46.0446 34.2932 46.0557 34.2746Z" fill="white"/>
<path d="M2.18901 37.2159L1.35491 39.1544C1.32043 39.2345 1.27706 39.2745 1.22479 39.2745C1.17252 39.2745 1.12636 39.2339 1.08633 39.1527L0.25223 37.236V39.096C0.25223 39.2161 0.209967 39.2762 0.125445 39.2762C0.107461 39.2776 0.0894208 39.2743 0.0730596 39.2667C0.0566983 39.2591 0.0425668 39.2474 0.0320267 39.2328C0.00986576 39.1908 3.48268e-05 39.1434 0.00366766 39.096V36.6738C0.00151769 36.6353 0.00661015 36.5969 0.0186808 36.5603C0.028651 36.5395 0.0446368 36.5222 0.0645654 36.5106C0.0844939 36.499 0.107446 36.4937 0.13045 36.4953C0.144924 36.4942 0.15946 36.4963 0.173015 36.5015C0.18657 36.5067 0.198809 36.5148 0.208855 36.5253C0.239279 36.5698 0.263942 36.618 0.282256 36.6688L1.21811 38.8374L2.18066 36.6054C2.19435 36.5685 2.21408 36.5341 2.23905 36.5036C2.2596 36.4867 2.28589 36.4783 2.31245 36.4803C2.38696 36.4803 2.42867 36.5242 2.43756 36.612C2.43756 36.6554 2.43756 36.7588 2.43756 36.9223V39.8183C2.43756 39.9396 2.3953 40.0002 2.31078 40.0002C2.2928 40.0016 2.27476 39.9983 2.25839 39.9907C2.24203 39.9831 2.2279 39.9714 2.21736 39.9568C2.19515 39.9142 2.18533 39.8662 2.18901 39.8183V37.2159Z" fill="white"/>
<path d="M5.25016 38.6625H5.41698C5.4613 38.6584 5.50587 38.6671 5.54542 38.6875C5.56202 38.6982 5.57551 38.7131 5.58458 38.7307C5.59365 38.7482 5.59798 38.7678 5.59714 38.7876C5.5987 38.8057 5.59569 38.8238 5.58841 38.8404C5.58112 38.8571 5.56978 38.8716 5.55543 38.8827C5.51293 38.9051 5.46489 38.915 5.41698 38.911H5.35191L5.41364 39.0512C5.43004 39.0846 5.44022 39.1208 5.44367 39.1579C5.44376 39.1738 5.44037 39.1895 5.43374 39.2039C5.42712 39.2183 5.4174 39.2311 5.4053 39.2413C5.38149 39.264 5.34978 39.2766 5.31688 39.2764C5.26461 39.2764 5.21901 39.2313 5.18009 39.1412L5.07833 38.911H3.37177L3.26333 39.1563C3.22886 39.2341 3.18604 39.273 3.13488 39.273C3.11856 39.2733 3.10234 39.2704 3.08717 39.2644C3.07199 39.2584 3.05816 39.2494 3.04647 39.238C3.035 39.228 3.0258 39.2157 3.01947 39.2019C3.01315 39.1881 3.00983 39.1731 3.00977 39.1579C3.01248 39.1196 3.02268 39.0822 3.0398 39.0478L4.08742 36.6406C4.12857 36.5472 4.17583 36.5005 4.22922 36.5005C4.24339 36.5003 4.25745 36.5032 4.2704 36.509C4.28336 36.5147 4.29492 36.5232 4.30429 36.5339C4.33376 36.5706 4.35739 36.6117 4.37435 36.6556L5.25016 38.6625ZM4.22588 36.9359L3.47853 38.6625H4.9799L4.22588 36.9359Z" fill="white"/>
<path d="M7.64365 38.8522L7.79045 39.0407C7.81898 39.071 7.8371 39.1096 7.84217 39.1508C7.84243 39.1675 7.83915 39.1839 7.83253 39.1992C7.82591 39.2144 7.81612 39.2281 7.8038 39.2392C7.79194 39.251 7.77788 39.2603 7.76242 39.2666C7.74696 39.2729 7.73041 39.2761 7.71372 39.2759C7.69291 39.2742 7.67277 39.2678 7.65485 39.2571C7.63692 39.2464 7.62168 39.2317 7.61029 39.2142L7.44347 39.0057C7.23599 39.1669 6.98497 39.2622 6.72281 39.2793C6.65722 39.2809 6.59198 39.2693 6.53095 39.2452C6.46991 39.2212 6.41432 39.1851 6.36748 39.1392C6.31553 39.0864 6.27519 39.0234 6.24905 38.9542C6.2229 38.885 6.21153 38.811 6.21567 38.7371C6.24455 38.3743 6.36635 38.025 6.56934 37.7229C6.78742 37.3351 7.08952 37.0011 7.45348 36.7453C7.64695 36.5995 7.87896 36.5136 8.12076 36.4984C8.20085 36.4937 8.28086 36.5089 8.35364 36.5427C8.42642 36.5764 8.4897 36.6277 8.53781 36.6919C8.60522 36.7898 8.63916 36.9068 8.63456 37.0256C8.61577 37.3557 8.51547 37.6761 8.34263 37.9581C8.16487 38.2955 7.92814 38.5983 7.64365 38.8522ZM7.49185 38.6604C7.82539 38.3441 8.09103 37.9633 8.27256 37.541C8.34506 37.3835 8.38695 37.2137 8.39601 37.0406C8.39784 36.9989 8.39142 36.9572 8.37711 36.918C8.36279 36.8787 8.34087 36.8427 8.3126 36.812C8.28398 36.7822 8.24949 36.7587 8.21129 36.7429C8.1731 36.7271 8.13205 36.7194 8.09073 36.7203C7.87421 36.7463 7.67212 36.8424 7.5152 36.9939C7.19644 37.2548 6.93033 37.5741 6.73115 37.9347C6.57963 38.1719 6.48961 38.4431 6.46924 38.7238C6.46653 38.7692 6.47312 38.8146 6.48861 38.8574C6.50411 38.9001 6.52816 38.9392 6.55932 38.9723C6.58725 38.9997 6.62039 39.0212 6.65679 39.0355C6.69318 39.0499 6.73209 39.0567 6.77119 39.0557C6.96823 39.0353 7.15355 38.9523 7.3 38.8189L7.17823 38.6621C7.15285 38.6337 7.13708 38.5981 7.13318 38.5603C7.13362 38.5268 7.14711 38.4948 7.17079 38.4711C7.19448 38.4474 7.22648 38.4339 7.25997 38.4335C7.28228 38.4352 7.30389 38.4421 7.32303 38.4537C7.34216 38.4653 7.35828 38.4812 7.37007 38.5002L7.49185 38.6604Z" fill="white"/>
<path d="M11.0732 38.9643L9.84543 39.2646C9.79591 39.2788 9.74503 39.2878 9.69363 39.2913C9.64721 39.2931 9.60125 39.2816 9.56108 39.2583C9.52092 39.235 9.48821 39.2007 9.46675 39.1595C9.43915 39.1173 9.42147 39.0694 9.41504 39.0194C9.41504 38.9749 9.41504 38.8492 9.41504 38.6424V36.6856C9.41504 36.5643 9.4573 36.5037 9.54182 36.5037C9.62634 36.5037 9.66694 36.5643 9.6636 36.6856V38.6557C9.6636 38.8081 9.6636 38.8954 9.6636 38.9176C9.6636 38.9866 9.69752 39.021 9.76536 39.021C9.8331 39.0162 9.90018 39.0045 9.96554 38.986L11.0749 38.7091V36.6856C11.0749 36.5643 11.1172 36.5037 11.2017 36.5037C11.2197 36.5023 11.2377 36.5056 11.2541 36.5132C11.2704 36.5208 11.2846 36.5325 11.2951 36.5471C11.3173 36.5897 11.3271 36.6377 11.3235 36.6856V39.0944C11.3235 39.2146 11.2812 39.2746 11.1967 39.2746C11.1787 39.276 11.1606 39.2727 11.1443 39.2652C11.1279 39.2576 11.1138 39.2459 11.1033 39.2312C11.0811 39.1892 11.0713 39.1418 11.0749 39.0944L11.0732 38.9643Z" fill="white"/>
<path d="M12.0231 39.0958V36.6853C12.0231 36.564 12.0654 36.5034 12.1499 36.5034C12.2344 36.5034 12.275 36.564 12.2717 36.6853V39.0941C12.2717 39.2142 12.2294 39.2743 12.1449 39.2743C12.1269 39.2757 12.1088 39.2724 12.0925 39.2648C12.0761 39.2572 12.062 39.2456 12.0515 39.2309C12.0296 39.1894 12.0198 39.1426 12.0231 39.0958Z" fill="white"/>
<path d="M13.3189 37.0174V39.096C13.3189 39.2173 13.2767 39.2779 13.1921 39.2779C13.1742 39.2793 13.1561 39.276 13.1397 39.2684C13.1234 39.2608 13.1093 39.2491 13.0987 39.2345C13.0765 39.1919 13.0667 39.1439 13.0704 39.096V36.6988C13.0668 36.6504 13.0725 36.6017 13.087 36.5554C13.0966 36.5408 13.109 36.5283 13.1235 36.5186C13.138 36.509 13.1543 36.5023 13.1714 36.499C13.1885 36.4957 13.2061 36.4959 13.2231 36.4996C13.2402 36.5033 13.2563 36.5103 13.2705 36.5203C13.3143 36.5685 13.3544 36.6198 13.3907 36.6738L14.7352 38.7324V35.9531C14.7352 35.8319 14.7775 35.7713 14.862 35.7713C14.88 35.7699 14.898 35.7732 14.9144 35.7808C14.9307 35.7884 14.9449 35.8 14.9554 35.8147C14.9776 35.8573 14.9875 35.9052 14.9838 35.9531V39.0944C14.9875 39.1426 14.9783 39.191 14.9571 39.2345C14.9469 39.2485 14.9332 39.2596 14.9174 39.2666C14.9016 39.2736 14.8842 39.2764 14.867 39.2745C14.839 39.272 14.812 39.2624 14.7887 39.2466C14.7654 39.2309 14.7464 39.2095 14.7335 39.1844L13.3189 37.0174Z" fill="white"/>
<path d="M18.3205 38.6625H18.4873C18.5316 38.6584 18.5762 38.6671 18.6157 38.6875C18.6323 38.6982 18.6458 38.7131 18.6549 38.7307C18.664 38.7482 18.6683 38.7678 18.6674 38.7876C18.669 38.8057 18.666 38.8238 18.6587 38.8404C18.6514 38.8571 18.6401 38.8716 18.6257 38.8827C18.5832 38.9051 18.5352 38.915 18.4873 38.911H18.4222L18.4839 39.0512C18.5004 39.0846 18.5105 39.1208 18.514 39.1579C18.5141 39.1738 18.5107 39.1895 18.5041 39.2039C18.4974 39.2183 18.4877 39.2311 18.4756 39.2413C18.4518 39.264 18.4201 39.2766 18.3872 39.2764C18.3349 39.2764 18.2893 39.2313 18.2504 39.1412L18.1486 38.911H16.4421L16.3336 39.1563C16.2992 39.2341 16.2564 39.273 16.2052 39.273C16.1889 39.2733 16.1727 39.2704 16.1575 39.2644C16.1423 39.2584 16.1285 39.2494 16.1168 39.238C16.1053 39.228 16.0961 39.2157 16.0898 39.2019C16.0835 39.1881 16.0801 39.1731 16.0801 39.1579C16.0828 39.1196 16.093 39.0822 16.1101 39.0478L17.1577 36.6406C17.1989 36.5472 17.2461 36.5005 17.2995 36.5005C17.3137 36.5003 17.3278 36.5032 17.3407 36.509C17.3537 36.5147 17.3652 36.5232 17.3746 36.5339C17.4041 36.5706 17.4277 36.6117 17.4447 36.6556L18.3205 38.6625ZM17.2962 36.9359L16.5488 38.6625H18.0502L17.2962 36.9359Z" fill="white"/>
<path d="M19.5928 36.7066C19.9181 36.5608 20.2705 36.4852 20.627 36.4848C20.8443 36.4768 21.0602 36.5221 21.256 36.6166C21.3393 36.6608 21.41 36.7257 21.4611 36.8051C21.5107 36.8792 21.5373 36.9662 21.5379 37.0553C21.5379 37.2977 21.3966 37.5513 21.1142 37.816C20.7937 38.1049 20.422 38.3313 20.0182 38.4833L22.0784 39.0138C22.1673 39.0349 22.2118 39.0755 22.2118 39.1355C22.2124 39.1689 22.2012 39.2014 22.1801 39.2273C22.1712 39.2392 22.1596 39.2488 22.1463 39.2554C22.1329 39.2621 22.1183 39.2656 22.1034 39.2657C22.0639 39.263 22.0248 39.2562 21.9866 39.2456L19.5911 38.6317V39.0872C19.5911 39.2073 19.5488 39.2673 19.4643 39.2673C19.4463 39.2687 19.4283 39.2655 19.4119 39.2579C19.3956 39.2503 19.3814 39.2386 19.3709 39.224C19.3487 39.1819 19.3389 39.1345 19.3425 39.0872V36.685C19.3425 36.5637 19.3854 36.5031 19.471 36.5031C19.4888 36.5014 19.5068 36.5043 19.5232 36.5116C19.5396 36.5189 19.5538 36.5304 19.5644 36.5448C19.5865 36.5881 19.5963 36.6365 19.5928 36.685V36.7066ZM19.5928 36.9636V38.3765C19.9495 38.2816 20.2878 38.1276 20.5937 37.9211C20.7812 37.7997 20.9499 37.6513 21.0941 37.4807C21.1961 37.3714 21.2583 37.2309 21.271 37.082C21.2715 37.0265 21.256 36.9719 21.2264 36.9249C21.1969 36.8779 21.1544 36.8404 21.1041 36.8167C20.9557 36.7471 20.7925 36.7151 20.6287 36.7233C20.4477 36.7253 20.2675 36.7477 20.0916 36.7901C19.9182 36.8292 19.7506 36.8903 19.5928 36.9719V36.9636Z" fill="white"/>
<path d="M23.0026 39.0958V36.6853C23.0026 36.564 23.0448 36.5034 23.1294 36.5034C23.2139 36.5034 23.2545 36.564 23.2512 36.6853V39.0941C23.2512 39.2142 23.2089 39.2743 23.1244 39.2743C23.1064 39.2757 23.0883 39.2724 23.072 39.2648C23.0556 39.2572 23.0415 39.2456 23.0309 39.2309C23.0091 39.1894 22.9993 39.1426 23.0026 39.0958Z" fill="white"/>
<path d="M26.1603 38.6625H26.3271C26.3715 38.6584 26.416 38.6671 26.4556 38.6875C26.4722 38.6982 26.4857 38.7131 26.4947 38.7307C26.5038 38.7482 26.5081 38.7678 26.5073 38.7876C26.5089 38.8057 26.5059 38.8238 26.4986 38.8404C26.4913 38.8571 26.4799 38.8716 26.4656 38.8827C26.4231 38.9051 26.375 38.915 26.3271 38.911H26.2621L26.3238 39.0512C26.3403 39.0846 26.3505 39.1208 26.3538 39.1579C26.3538 39.1738 26.3504 39.1894 26.3437 39.2038C26.3371 39.2182 26.3275 39.231 26.3155 39.2413C26.2916 39.264 26.2599 39.2766 26.227 39.2764C26.1748 39.2764 26.1292 39.2313 26.0902 39.1412L25.9885 38.911H24.2819L24.1735 39.1563C24.139 39.2341 24.0962 39.273 24.045 39.273C24.0287 39.2733 24.0125 39.2704 23.9973 39.2644C23.9821 39.2584 23.9683 39.2494 23.9566 39.238C23.9452 39.228 23.936 39.2157 23.9296 39.2019C23.9233 39.1881 23.92 39.1731 23.9199 39.1579C23.9226 39.1196 23.9328 39.0822 23.9499 39.0478L24.9976 36.6406C25.0387 36.5472 25.086 36.5005 25.1394 36.5005C25.1536 36.5003 25.1676 36.5032 25.1806 36.509C25.1935 36.5147 25.2051 36.5232 25.2144 36.5339C25.244 36.5705 25.2676 36.6116 25.2845 36.6556L26.1603 38.6625ZM25.136 36.9359L24.3887 38.6625H25.8901L25.136 36.9359Z" fill="white"/>
<path d="M30.2697 37.7896V39.4477C30.2697 39.5679 30.2275 39.6279 30.1429 39.6279C30.125 39.6293 30.1069 39.626 30.0905 39.6185C30.0742 39.6109 30.0601 39.5992 30.0495 39.5845C30.0274 39.5425 30.0175 39.4951 30.0212 39.4477V37.7896L28.6866 36.7219C28.6693 36.7099 28.6551 36.694 28.6453 36.6754C28.6354 36.6568 28.6301 36.6362 28.6299 36.6151C28.63 36.5992 28.6333 36.5835 28.6396 36.5689C28.6459 36.5543 28.6551 36.5411 28.6666 36.5301C28.677 36.5182 28.6899 36.5087 28.7042 36.5021C28.7186 36.4955 28.7342 36.4919 28.75 36.4917C28.792 36.4972 28.8311 36.5159 28.8618 36.5451L30.1446 37.5677L31.4608 36.5301C31.4839 36.5096 31.5134 36.4979 31.5442 36.4967C31.5602 36.497 31.5759 36.5008 31.5903 36.5077C31.6047 36.5146 31.6174 36.5245 31.6276 36.5367C31.651 36.5603 31.6641 36.592 31.6643 36.6252C31.6615 36.648 31.6536 36.6699 31.6412 36.6892C31.6288 36.7085 31.6122 36.7249 31.5926 36.7369L30.2697 37.7896Z" fill="white"/>
<path d="M34.2327 36.7337V38.4353H35.5305C35.5754 38.4312 35.6205 38.4399 35.6606 38.4603C35.6772 38.4711 35.6907 38.4859 35.6998 38.5035C35.7089 38.5211 35.7132 38.5407 35.7123 38.5604C35.7144 38.5786 35.7118 38.597 35.7048 38.6139C35.6978 38.6309 35.6866 38.6457 35.6723 38.6572C35.6287 38.68 35.5795 38.6898 35.5305 38.6855H34.2327V39.0192H36.3646C36.4131 39.0152 36.4616 39.025 36.5047 39.0475C36.5191 39.0586 36.5304 39.0731 36.5377 39.0898C36.545 39.1064 36.548 39.1245 36.5464 39.1426C36.5483 39.161 36.5454 39.1795 36.5381 39.1964C36.5308 39.2133 36.5193 39.2281 36.5047 39.2394C36.4616 39.2619 36.4131 39.2717 36.3646 39.2677H34.2327C34.1606 39.2756 34.0878 39.2652 34.0208 39.2377C33.9952 39.2177 33.9824 39.1621 33.9824 39.0709V36.692C33.9824 36.5986 33.9963 36.543 34.0241 36.5252C34.0892 36.4951 34.1614 36.4836 34.2327 36.4918H35.5305C35.579 36.4879 35.6276 36.4977 35.6706 36.5202C35.685 36.5313 35.6963 36.5458 35.7036 36.5624C35.7109 36.579 35.7139 36.5972 35.7123 36.6153C35.7142 36.6336 35.7113 36.6521 35.704 36.6691C35.6967 36.686 35.6852 36.7008 35.6706 36.7121C35.6276 36.7346 35.579 36.7444 35.5305 36.7404L34.2327 36.7337Z" fill="white"/>
<path d="M38.4933 38.8522L38.6401 39.0407C38.6686 39.071 38.6867 39.1096 38.6918 39.1508C38.692 39.1674 38.6888 39.1839 38.6821 39.1992C38.6755 39.2144 38.6657 39.2281 38.6534 39.2392C38.6415 39.251 38.6275 39.2603 38.612 39.2666C38.5966 39.2729 38.58 39.2761 38.5633 39.2759C38.5425 39.2742 38.5224 39.2678 38.5045 39.2571C38.4865 39.2464 38.4713 39.2317 38.4599 39.2142L38.2931 39.0057C38.0856 39.1669 37.8346 39.2622 37.5724 39.2793C37.4401 39.2814 37.3123 39.231 37.2171 39.1392C37.1651 39.0864 37.1248 39.0234 37.0987 38.9542C37.0725 38.885 37.0611 38.811 37.0653 38.7371C37.0941 38.3743 37.2159 38.0249 37.4189 37.7229C37.637 37.3351 37.9391 37.0011 38.3031 36.7453C38.4966 36.5996 38.7286 36.5137 38.9704 36.4984C39.0505 36.4937 39.1305 36.5089 39.2033 36.5427C39.276 36.5764 39.3393 36.6277 39.3874 36.6919C39.4548 36.7898 39.4888 36.9068 39.4842 37.0255C39.4679 37.355 39.3705 37.6753 39.2006 37.9581C39.0203 38.2961 38.7807 38.599 38.4933 38.8522ZM38.3415 38.6604C38.6741 38.345 38.9391 37.9653 39.1205 37.5444C39.193 37.3869 39.2349 37.217 39.244 37.0439C39.2458 37.0022 39.2394 36.9605 39.225 36.9213C39.2107 36.8821 39.1888 36.8461 39.1605 36.8154C39.1319 36.7855 39.0974 36.762 39.0592 36.7462C39.021 36.7304 38.98 36.7227 38.9387 36.7236C38.7221 36.7497 38.5201 36.8457 38.3631 36.9972C38.0444 37.2581 37.7783 37.5775 37.5791 37.9381C37.4276 38.1752 37.3375 38.4464 37.3172 38.7271C37.3145 38.7725 37.3211 38.8179 37.3366 38.8607C37.352 38.9034 37.3761 38.9426 37.4073 38.9757C37.4352 39.003 37.4684 39.0244 37.5048 39.0387C37.5412 39.0531 37.58 39.06 37.6191 39.0591C37.8162 39.0386 38.0015 38.9556 38.1479 38.8222L38.0245 38.6654C37.9991 38.6371 37.9834 38.6014 37.9795 38.5636C37.9799 38.5301 37.9934 38.4981 38.0171 38.4745C38.0408 38.4508 38.0727 38.4373 38.1062 38.4368C38.1286 38.4385 38.1502 38.4454 38.1693 38.457C38.1884 38.4686 38.2046 38.4845 38.2163 38.5036L38.3415 38.6604Z" fill="white"/>
<path d="M41.9238 38.9643L40.696 39.2646C40.6465 39.2788 40.5956 39.2877 40.5442 39.2913C40.4978 39.2931 40.4518 39.2816 40.4117 39.2583C40.3715 39.235 40.3388 39.2007 40.3173 39.1595C40.2897 39.1173 40.2721 39.0694 40.2656 39.0194C40.2656 38.9749 40.2656 38.8492 40.2656 38.6424V36.6856C40.2656 36.5643 40.3079 36.5037 40.3924 36.5037C40.4769 36.5037 40.5175 36.5643 40.5142 36.6856V38.6557C40.5142 38.8081 40.5142 38.8954 40.5142 38.9176C40.5142 38.9866 40.5481 39.021 40.6159 39.021C40.6837 39.0161 40.7507 39.0044 40.8161 38.986L41.9255 38.7091V36.6856C41.9255 36.5643 41.9677 36.5037 42.0523 36.5037C42.0702 36.5023 42.0883 36.5056 42.1046 36.5132C42.121 36.5208 42.1351 36.5325 42.1457 36.5471C42.1679 36.5897 42.1777 36.6377 42.174 36.6856V39.0944C42.174 39.2146 42.1318 39.2746 42.0473 39.2746C42.0293 39.276 42.0112 39.2727 41.9949 39.2652C41.9785 39.2576 41.9644 39.2459 41.9538 39.2312C41.9318 39.1892 41.9219 39.1418 41.9255 39.0944L41.9238 38.9643Z" fill="white"/>
<path d="M42.8707 39.0958V36.6853C42.8707 36.564 42.913 36.5034 42.9975 36.5034C43.082 36.5034 43.1226 36.564 43.1193 36.6853V39.0941C43.1193 39.2142 43.077 39.2743 42.9925 39.2743C42.9745 39.2757 42.9565 39.2724 42.9401 39.2648C42.9238 39.2572 42.9096 39.2456 42.8991 39.2309C42.8773 39.1894 42.8674 39.1426 42.8707 39.0958Z" fill="white"/>
<path d="M44.1692 36.7267C44.3506 36.6527 44.539 36.5968 44.7314 36.5599C44.9271 36.5221 45.1259 36.5026 45.3253 36.5015C45.5417 36.4996 45.7565 36.5375 45.9592 36.6133C46.0803 36.6548 46.1884 36.7273 46.2728 36.8235C46.3445 36.9077 46.3835 37.0149 46.3829 37.1254C46.3829 37.4079 46.1989 37.6598 45.8307 37.8811C45.5832 38.0258 45.318 38.1379 45.0417 38.2148C44.7788 38.2917 44.5065 38.3316 44.2326 38.3332H44.1692V39.0856C44.1692 39.2057 44.127 39.2657 44.0424 39.2657C44.0245 39.2671 44.0064 39.2639 43.99 39.2563C43.9737 39.2487 43.9596 39.237 43.949 39.2224C43.9269 39.1804 43.917 39.1329 43.9207 39.0856V36.685C43.9207 36.5638 43.9629 36.5032 44.0474 36.5032C44.132 36.5032 44.1726 36.5638 44.1692 36.685V36.7267ZM44.1692 36.9753V38.098H44.2059C44.4057 38.097 44.6048 38.0746 44.7998 38.0313C44.9987 37.9886 45.1927 37.9254 45.3787 37.8428C45.858 37.6281 46.0977 37.4001 46.0977 37.1588C46.0961 37.0982 46.0773 37.0392 46.0437 36.9888C46.0101 36.9383 45.9628 36.8984 45.9075 36.8735C45.7223 36.7821 45.5165 36.7401 45.3103 36.7518C45.1142 36.7542 44.9187 36.7749 44.7264 36.8135C44.5358 36.8489 44.3491 36.9031 44.1692 36.9753Z" fill="white"/>
<path d="M48.907 36.4934C48.978 36.4884 49.0492 36.4987 49.116 36.5234C49.1827 36.5481 49.2434 36.5868 49.294 36.6369C49.3915 36.7505 49.4407 36.8978 49.4308 37.0473C49.4063 37.3911 49.2944 37.7231 49.1055 38.0115C48.8951 38.3979 48.6024 38.7333 48.248 38.994C48.0385 39.1617 47.782 39.2603 47.514 39.276C47.3824 39.2794 47.2548 39.2309 47.1587 39.1408C47.1049 39.0868 47.0632 39.022 47.0362 38.9507C47.0092 38.8794 46.9975 38.8032 47.0019 38.7271C47.0324 38.3659 47.1547 38.0185 47.3572 37.7179C47.5759 37.3295 47.8793 36.9954 48.2447 36.7403C48.4371 36.5961 48.6671 36.5104 48.907 36.4934ZM48.8769 36.7069C48.6605 36.7343 48.4586 36.8308 48.3014 36.9822C47.9824 37.2429 47.7162 37.5623 47.5174 37.9231C47.3658 38.1602 47.2758 38.4314 47.2555 38.7121C47.253 38.758 47.26 38.8039 47.276 38.847C47.2921 38.89 47.3169 38.9293 47.3489 38.9623C47.401 39.0125 47.4701 39.0411 47.5424 39.0424C47.7715 39.0133 47.9851 38.9109 48.1513 38.7505C48.4691 38.4911 48.7317 38.1706 48.9237 37.808C49.0612 37.5777 49.1477 37.3205 49.1772 37.0539C49.1815 37.0101 49.1767 36.9659 49.1633 36.924C49.1498 36.8821 49.1278 36.8435 49.0988 36.8104C49.0706 36.7792 49.0364 36.754 48.9983 36.7362C48.9602 36.7185 48.919 36.7085 48.8769 36.7069Z" fill="white"/>
<path fill-rule="evenodd" clip-rule="evenodd" d="M34.6365 21.3014L27.0879 22.3958H16.1796V16.9458H13.5205L21.7164 10.5249H27.6568L35.8526 16.9458H34.6349V21.3014H34.6365ZM27.1764 15.2826V22.1722L34.413 21.1713V16.9458H29.31L27.1764 15.2776V15.2826ZM26.9545 15.0707L21.673 11.007L16.4465 15.0707V22.1389H26.9562V15.0707H26.9545Z" fill="white" stroke="white" stroke-width="0.34" stroke-miterlimit="22.93"/>
<path fill-rule="evenodd" clip-rule="evenodd" d="M29.6019 0.0288086H34.3329V3.0349H37.4307V12.4001H41.9749V20.8579H47.9854V22.1391H40.7154V13.9382H36.1479V4.12923H33.2369V1.28663H30.9765V3.75723H28.973V7.39055H20.235V5.20188H16.6717V3.38355H12.7581V14.8474H7.84028V21.325H1.3877V20.0421H6.39729V13.4027H11.2184V1.93889H18.2315V3.57039H21.6813V6.10938H27.5066V2.38263H29.6019V0.0288086Z" fill="white"/>
<path d="M22.5022 20.0851C22.0876 20.427 21.6488 20.7387 21.1894 21.0176C20.9223 21.1412 20.6312 21.2044 20.3369 21.2028C20.1192 21.2103 19.9023 21.1712 19.7009 21.088C19.4995 21.0049 19.3182 20.8796 19.1692 20.7207C18.8561 20.3753 18.6924 19.9201 18.7138 19.4545C18.7058 19.153 18.7827 18.8553 18.9356 18.5954C19.2051 18.1982 19.5676 17.8729 19.9916 17.6478C20.4932 17.352 21.3273 16.9917 22.4939 16.5668V16.2999C22.4939 15.6238 22.3866 15.16 22.1719 14.9087C22.0539 14.7796 21.9083 14.6787 21.7461 14.6135C21.5838 14.5482 21.4089 14.5203 21.2344 14.5316C20.9638 14.5171 20.6979 14.6073 20.4921 14.7835C20.4056 14.8532 20.3356 14.941 20.2869 15.0408C20.2382 15.1405 20.212 15.2497 20.2101 15.3607L20.2252 15.7895C20.2396 15.9796 20.1798 16.1679 20.0583 16.3149C19.9999 16.3764 19.9291 16.4246 19.8506 16.4566C19.772 16.4885 19.6876 16.5033 19.6029 16.5001C19.5186 16.5029 19.4348 16.4871 19.3573 16.454C19.2797 16.4208 19.2104 16.3711 19.1542 16.3083C19.0342 16.1604 18.9746 15.9727 18.9873 15.7828C18.9873 15.358 19.2048 14.9687 19.6396 14.6151C20.0745 14.2614 20.6861 14.084 21.4746 14.0829C21.9862 14.0633 22.4949 14.1675 22.9577 14.3865C23.2513 14.5413 23.4802 14.7956 23.6033 15.1038C23.6922 15.3163 23.7367 15.7505 23.7367 16.4067V18.7088C23.7265 19.1051 23.7387 19.5017 23.7734 19.8966C23.7814 20.0045 23.8241 20.1069 23.8952 20.1885C23.9493 20.2367 24.0196 20.2629 24.092 20.2619C24.1644 20.2634 24.2358 20.2456 24.2989 20.2102C24.5145 20.0479 24.7154 19.867 24.8994 19.6697V20.0851C24.3434 20.8257 23.8146 21.1961 23.313 21.1961C23.2037 21.2007 23.0949 21.1804 22.9946 21.1367C22.8943 21.0931 22.8052 21.0273 22.7341 20.9442C22.5851 20.7763 22.5078 20.4899 22.5022 20.0851ZM22.5022 19.6046V17.0223C22.0092 17.2058 21.5264 17.4157 21.0559 17.6512C20.7318 17.8148 20.4472 18.0471 20.2218 18.3318C20.0574 18.5576 19.9692 18.8299 19.9699 19.1092C19.9588 19.4339 20.0728 19.7504 20.2885 19.9933C20.3779 20.1019 20.4899 20.1896 20.6167 20.2504C20.7434 20.3112 20.882 20.3436 21.0226 20.3453C21.3962 20.3442 21.8895 20.0967 22.5022 19.603V19.6046Z" fill="white" stroke="white" stroke-width="0.78" stroke-miterlimit="22.93"/>
</g>
<defs>
<clipPath id="clip0">
<rect width="49.4286" height="40" fill="white"/>
</clipPath>
</defs>
</svg>
