<svg width="1002" height="482" viewBox="0 0 1002 482" fill="none" xmlns="http://www.w3.org/2000/svg">
<path fill-rule="evenodd" clip-rule="evenodd" d="M714.529 457.521L552.534 481.006H318.438V364.048H261.373L437.258 226.254H564.742L740.627 364.048H714.493V457.521H714.529ZM554.431 328.355V476.209L709.731 454.729V364.048H600.219L554.431 328.248V328.355ZM549.67 323.808L436.327 236.6L324.166 323.808V475.493H549.706V323.808H549.67Z" fill="#7D4039" stroke="#7D4039" stroke-width="0.34" stroke-miterlimit="22.93"/>
<path fill-rule="evenodd" clip-rule="evenodd" d="M606.485 1H708.013V65.5115H774.494V266.492H872.013V447.998H1001V475.493H844.984V299.5H746.964V88.9963H684.493V27.9932H635.984V81.0129H592.988V158.985H405.468V112.016H328.999V72.9937H245.012V319.011H139.474V458.022H1V430.492H108.507V288.008H211.969V41.9909H362.472V77.0033H436.506V131.491H561.52V51.5137H606.485V1Z" fill="#7D4039" stroke="#7D4039" stroke-width="0.34" stroke-miterlimit="22.93"/>
<path d="M454.12 431.423C445.222 438.762 435.806 445.45 425.946 451.436C420.214 454.089 413.968 455.446 407.652 455.409C402.979 455.571 398.325 454.732 394.003 452.947C389.681 451.163 385.79 448.475 382.592 445.063C375.874 437.652 372.361 427.884 372.819 417.891C372.647 411.421 374.297 405.032 377.58 399.454C383.364 390.93 391.143 383.949 400.242 379.12C411.005 372.771 428.905 365.038 453.942 355.921V350.193C453.942 335.682 451.638 325.73 447.032 320.336C444.499 317.567 441.375 315.402 437.893 314.002C434.41 312.602 430.658 312.001 426.913 312.245C421.105 311.933 415.4 313.869 410.982 317.651C409.127 319.146 407.624 321.031 406.578 323.171C405.533 325.312 404.97 327.656 404.931 330.038L405.254 339.239C405.563 343.319 404.28 347.361 401.674 350.516C400.42 351.834 398.9 352.87 397.215 353.555C395.53 354.24 393.718 354.558 391.9 354.489C390.092 354.548 388.292 354.21 386.629 353.499C384.965 352.787 383.477 351.72 382.27 350.372C379.696 347.2 378.417 343.172 378.69 339.095C378.69 329.978 383.356 321.625 392.688 314.035C402.02 306.446 415.146 302.639 432.068 302.615C443.046 302.195 453.964 304.43 463.894 309.131C470.195 312.452 475.107 317.91 477.748 324.525C479.658 329.083 480.612 338.403 480.612 352.485V401.888C480.393 410.393 480.656 418.903 481.4 427.378C481.571 429.694 482.488 431.892 484.013 433.643C485.176 434.677 486.682 435.239 488.238 435.218C489.79 435.251 491.323 434.868 492.677 434.108C497.303 430.625 501.616 426.744 505.565 422.509V431.423C493.632 447.319 482.283 455.266 471.519 455.266C469.175 455.364 466.838 454.929 464.686 453.992C462.534 453.056 460.623 451.643 459.097 449.86C455.899 446.257 454.24 440.111 454.12 431.423ZM454.12 421.113V365.695C443.539 369.633 433.178 374.138 423.082 379.191C416.126 382.704 410.018 387.688 405.182 393.798C401.653 398.643 399.76 404.486 399.776 410.481C399.537 417.448 401.985 424.241 406.614 429.454C408.532 431.784 410.935 433.667 413.655 434.972C416.376 436.277 419.349 436.972 422.366 437.008C430.385 436.984 440.97 431.674 454.12 421.077V421.113Z" fill="#949494" stroke="#949494" stroke-width="0.78" stroke-miterlimit="22.93"/>
</svg>
