<?xml version="1.0" encoding="utf-8"?>
<!-- Generator: Adobe Illustrator 15.0.0, SVG Export Plug-In . SVG Version: 6.00 Build 0)  -->
<!DOCTYPE svg PUBLIC "-//W3C//DTD SVG 1.1//EN" "http://www.w3.org/Graphics/SVG/1.1/DTD/svg11.dtd">
<svg version="1.1" id="Layer_1" xmlns="http://www.w3.org/2000/svg" xmlns:xlink="http://www.w3.org/1999/xlink" x="0px" y="0px"
	 width="207px" height="154px" viewBox="0 0 207 154" enable-background="new 0 0 207 154" xml:space="preserve">
<rect x="26" y="25" fill="#C82229" width="156.057" height="82.224"/>
<rect x="26" y="107.224" fill="#201514" width="156.057" height="17.729"/>
<path fill="#FFFFFF" d="M42.133,86.866l6.254-12.311c2.829,1.893,5.16,2.76,7.296,3.799c6.76,3.284,11.589,1.437,12.34-0.411
	c0.875-2.154-0.876-4.604-3.711-5.374c-1.233-0.335-6.109-1.233-6.81-1.377c-4.107-0.958-7.249-2.658-9.427-5.102
	c-2.178-2.443-3.267-5.485-3.267-9.125c0-5.653,2.115-10.252,6.347-13.797c4.231-3.544,9.777-5.317,16.638-5.317
	c3.155,0,6.259,0.396,9.314,1.186c3.055,0.791,6.134,1.988,9.24,3.593l-7.378,11.91c-1.903-1.341-13.735-8.007-15.881-1.643
	c-1.548,4.593,7.303,5.309,9.851,5.792c4.635,0.881,8.788,2.91,10.967,5.426c2.178,2.515,3.268,5.556,3.268,9.125
	c0,5.82-2.197,10.573-6.591,14.263c-4.395,3.688-10.109,5.534-17.145,5.534c-3.605,0-7.211-0.493-10.817-1.474
	C49.014,90.582,45.738,88.83,42.133,86.866z"/>
<path fill="#FFFFFF" d="M122.293,92.018V38.383h35.867v12.545h-18.56v8.228h16.984v12.739h-16.984v20.123H122.293z"/>
<polygon fill="#FFFFFF" points="109.26,93.037 89.653,93.037 89.653,37.852 109.26,37.852 109.26,56.954 122.293,57.163 
	97.579,71.973 109.26,71.973 "/>
<path fill="#FFFFFF" stroke="#FFFFFF" stroke-width="1.008" stroke-miterlimit="10" d="M33.847,112.687v1.198
	c-0.374-0.268-0.711-0.401-1.01-0.401c-0.323,0-0.586,0.114-0.792,0.343c-0.205,0.217-0.307,0.506-0.307,0.868
	c0,0.319,0.073,0.593,0.218,0.821c0.075,0.122,0.198,0.279,0.369,0.473c0.171,0.192,0.393,0.425,0.665,0.696
	c0.5,0.508,0.84,0.947,1.021,1.317c0.181,0.358,0.272,0.797,0.272,1.316c0,0.705-0.199,1.286-0.597,1.743
	c-0.397,0.444-0.908,0.667-1.53,0.667c-0.523,0-0.97-0.144-1.34-0.432v-1.216c0.437,0.318,0.834,0.479,1.193,0.479
	c0.334,0,0.597-0.111,0.786-0.334s0.283-0.524,0.283-0.907c0-0.33-0.073-0.628-0.218-0.892c-0.075-0.126-0.179-0.271-0.313-0.434
	c-0.134-0.164-0.301-0.346-0.502-0.547c-0.311-0.307-0.569-0.578-0.773-0.814s-0.356-0.443-0.455-0.62
	c-0.189-0.347-0.284-0.784-0.284-1.312c0-0.713,0.185-1.277,0.555-1.695c0.374-0.421,0.876-0.632,1.506-0.632
	C33.031,112.373,33.449,112.478,33.847,112.687z"/>
<path fill="#FFFFFF" d="M40.79,117.281c0,1.61-0.179,2.754-0.538,3.432c-0.358,0.677-0.958,1.016-1.801,1.016
	c-0.886,0-1.51-0.364-1.872-1.093c-0.358-0.713-0.538-1.979-0.538-3.798c0-1.622,0.177-2.77,0.532-3.443
	c0.358-0.677,0.964-1.016,1.819-1.016c0.764,0,1.331,0.262,1.701,0.786c0.244,0.351,0.421,0.849,0.531,1.494
	C40.734,115.258,40.79,116.132,40.79,117.281z M39.502,117.411c0-1.579-0.071-2.626-0.212-3.142c-0.142-0.521-0.431-0.78-0.868-0.78
	s-0.729,0.238-0.874,0.715c-0.142,0.48-0.213,1.445-0.213,2.894c0,1.335,0.075,2.261,0.225,2.776
	c0.153,0.488,0.441,0.732,0.862,0.732c0.413,0,0.697-0.229,0.851-0.686C39.425,119.469,39.502,118.632,39.502,117.411z"/>
<path fill="#FFFFFF" d="M45.492,112.645v1.104c-0.315-0.153-0.579-0.229-0.791-0.229c-0.292,0-0.542,0.071-0.75,0.215
	c-0.209,0.144-0.381,0.365-0.517,0.665c-0.136,0.299-0.236,0.678-0.301,1.137s-0.097,1.001-0.097,1.627
	c0,2.252,0.577,3.378,1.73,3.378c0.201,0,0.443-0.062,0.726-0.188v1.128c-0.295,0.165-0.626,0.248-0.992,0.248
	c-1.847,0-2.77-1.508-2.77-4.524c0-1.63,0.225-2.843,0.676-3.638c0.451-0.796,1.141-1.193,2.07-1.193
	C44.819,112.373,45.158,112.464,45.492,112.645z"/>
<path fill="#FFFFFF" d="M47.434,112.497h1.229v9.119h-1.229V112.497z"/>
<path fill="#FFFFFF" d="M50.975,112.497h3.266v1.04h-2.038v2.888h1.808v1.04h-1.808v3.112h2.038v1.039h-3.266V112.497z"/>
<path fill="#FFFFFF" d="M56.276,112.497h1.512c0.46,0,0.848,0.052,1.164,0.153c0.291,0.099,0.551,0.274,0.779,0.526
	c0.343,0.378,0.587,0.87,0.732,1.477c0.146,0.586,0.219,1.427,0.219,2.521c0,1.004-0.081,1.823-0.242,2.457
	c-0.158,0.606-0.417,1.069-0.78,1.388c-0.445,0.398-1.242,0.597-2.392,0.597h-0.992V112.497z M57.504,120.541
	c0.748,0,1.248-0.226,1.5-0.679c0.26-0.453,0.39-1.333,0.39-2.64c0-1.406-0.124-2.373-0.372-2.9s-0.703-0.791-1.364-0.791h-0.154
	V120.541z"/>
<path fill="#FFFFFF" d="M64.04,112.497h0.957l1.955,9.119h-1.217l-0.342-1.777h-1.807l-0.349,1.777h-1.181L64.04,112.497z
	 M65.215,118.888l-0.271-1.453c-0.181-0.988-0.329-2.043-0.443-3.165c-0.055,0.547-0.126,1.102-0.212,1.662
	c-0.086,0.562-0.189,1.156-0.307,1.787l-0.225,1.169H65.215z"/>
<path fill="#FFFFFF" d="M68.579,112.497h1.512c0.46,0,0.849,0.052,1.164,0.153c0.292,0.099,0.551,0.274,0.779,0.526
	c0.343,0.378,0.587,0.87,0.732,1.477c0.146,0.586,0.219,1.427,0.219,2.521c0,1.004-0.081,1.823-0.242,2.457
	c-0.158,0.606-0.417,1.069-0.78,1.388c-0.445,0.398-1.242,0.597-2.392,0.597h-0.993V112.497z M69.808,120.541
	c0.749,0,1.249-0.226,1.5-0.679c0.26-0.453,0.39-1.333,0.39-2.64c0-1.406-0.124-2.373-0.372-2.9s-0.703-0.791-1.364-0.791h-0.154
	V120.541z"/>
<path fill="#FFFFFF" stroke="#FFFFFF" stroke-width="1.008" stroke-miterlimit="10" d="M78.352,112.497h1.229v3.567h1.801v-3.567
	h1.229v9.119h-1.229v-4.512h-1.801v4.512h-1.229V112.497z"/>
<path fill="#FFFFFF" d="M84.923,112.497h1.229v9.119h-1.229V112.497z"/>
<path fill="#FFFFFF" d="M88.465,112.497h1.617c0.781,0,1.348,0.197,1.701,0.591c0.355,0.397,0.531,1.027,0.531,1.89
	c0,1.213-0.355,1.997-1.068,2.351c-0.357,0.162-0.875,0.242-1.553,0.242v4.046h-1.229V112.497z M89.693,116.52
	c0.508,0,0.857-0.103,1.051-0.308c0.197-0.208,0.295-0.578,0.295-1.11c0-0.543-0.094-0.94-0.283-1.192s-0.486-0.378-0.891-0.378
	h-0.172V116.52z"/>
<path fill="#FFFFFF" d="M98.732,117.281c0,1.61-0.178,2.754-0.537,3.432c-0.357,0.677-0.959,1.016-1.801,1.016
	c-0.887,0-1.51-0.364-1.873-1.093c-0.357-0.713-0.537-1.979-0.537-3.798c0-1.622,0.178-2.77,0.531-3.443
	c0.359-0.677,0.965-1.016,1.82-1.016c0.764,0,1.33,0.262,1.701,0.786c0.244,0.351,0.42,0.849,0.531,1.494
	C98.678,115.258,98.732,116.132,98.732,117.281z M97.445,117.411c0-1.579-0.07-2.626-0.213-3.142c-0.141-0.521-0.43-0.78-0.867-0.78
	s-0.729,0.238-0.875,0.715c-0.141,0.48-0.213,1.445-0.213,2.894c0,1.335,0.076,2.261,0.225,2.776
	c0.154,0.488,0.441,0.732,0.863,0.732c0.414,0,0.697-0.229,0.85-0.686C97.369,119.469,97.445,118.632,97.445,117.411z"/>
<path fill="#FFFFFF" d="M100.213,112.497h3.998v1.075h-1.375v8.044h-1.205v-8.044h-1.418V112.497z"/>
<path fill="#FFFFFF" d="M105.797,112.497h3.266v1.04h-2.037v2.888h1.807v1.04h-1.807v3.112h2.037v1.039h-3.266V112.497z"/>
<path fill="#FFFFFF" d="M114.678,112.645v1.104c-0.314-0.153-0.578-0.229-0.791-0.229c-0.291,0-0.541,0.071-0.75,0.215
	s-0.381,0.365-0.518,0.665c-0.135,0.299-0.236,0.678-0.301,1.137s-0.098,1.001-0.098,1.627c0,2.252,0.576,3.378,1.73,3.378
	c0.201,0,0.443-0.062,0.727-0.188v1.128c-0.295,0.165-0.625,0.248-0.992,0.248c-1.846,0-2.77-1.508-2.77-4.524
	c0-1.63,0.225-2.843,0.676-3.638c0.451-0.796,1.141-1.193,2.07-1.193C114.004,112.373,114.344,112.464,114.678,112.645z"/>
<path fill="#FFFFFF" d="M118.256,112.497h0.955l1.955,9.119h-1.217l-0.342-1.777h-1.807l-0.35,1.777h-1.182L118.256,112.497z
	 M119.43,118.888l-0.271-1.453c-0.182-0.988-0.328-2.043-0.443-3.165c-0.055,0.547-0.125,1.102-0.211,1.662
	c-0.088,0.562-0.189,1.156-0.309,1.787l-0.225,1.169H119.43z"/>
<path fill="#FFFFFF" d="M122.795,112.497h1.617c0.67,0,1.168,0.159,1.496,0.479c0.412,0.413,0.619,1.046,0.619,1.896
	c0,0.654-0.109,1.179-0.328,1.574s-0.529,0.641-0.936,0.735l1.678,4.436h-1.246l-1.672-4.465v4.465h-1.229V112.497z
	 M124.023,116.537c0.477,0,0.812-0.11,1.01-0.331c0.197-0.22,0.295-0.593,0.295-1.116c0-0.283-0.021-0.525-0.062-0.727
	c-0.041-0.2-0.107-0.364-0.195-0.49s-0.203-0.218-0.342-0.277c-0.141-0.059-0.305-0.089-0.498-0.089h-0.207V116.537z"/>
<path fill="#FFFFFF" d="M128.799,112.497h1.229v9.119h-1.229V112.497z"/>
<path fill="#FFFFFF" d="M133.639,112.497h0.957l1.955,9.119h-1.217l-0.344-1.777h-1.807l-0.348,1.777h-1.182L133.639,112.497z
	 M134.814,118.888l-0.273-1.453c-0.18-0.988-0.328-2.043-0.441-3.165c-0.057,0.547-0.127,1.102-0.213,1.662
	c-0.088,0.562-0.189,1.156-0.307,1.787l-0.225,1.169H134.814z"/>
<path fill="#FFFFFF" stroke="#FFFFFF" stroke-width="1.008" stroke-miterlimit="10" d="M141.812,112.497h3.284v1.04h-2.056v2.882
	h1.854v1.039h-1.854v4.158h-1.229V112.497z"/>
<path fill="#FFFFFF" d="M147.286,112.497h3.267v1.04h-2.038v2.888h1.808v1.04h-1.808v3.112h2.038v1.039h-3.267V112.497z"/>
<path fill="#FFFFFF" d="M152.532,112.497h1.512c0.461,0,0.849,0.052,1.164,0.153c0.291,0.099,0.551,0.274,0.779,0.526
	c0.343,0.378,0.587,0.87,0.732,1.477c0.146,0.586,0.219,1.427,0.219,2.521c0,1.004-0.081,1.823-0.242,2.457
	c-0.158,0.606-0.418,1.069-0.78,1.388c-0.444,0.398-1.242,0.597-2.392,0.597h-0.992V112.497z M153.761,120.541
	c0.748,0,1.248-0.226,1.5-0.679c0.26-0.453,0.39-1.333,0.39-2.64c0-1.406-0.124-2.373-0.372-2.9s-0.702-0.791-1.364-0.791h-0.153
	V120.541z"/>
<path fill="#FFFFFF" d="M158.785,112.497h3.266v1.04h-2.037v2.888h1.807v1.04h-1.807v3.112h2.037v1.039h-3.266V112.497z"/>
<path fill="#FFFFFF" d="M164.312,112.497h1.618c0.669,0,1.167,0.159,1.494,0.479c0.413,0.413,0.62,1.046,0.62,1.896
	c0,0.654-0.109,1.179-0.328,1.574c-0.218,0.396-0.53,0.641-0.936,0.735l1.677,4.436h-1.246l-1.671-4.465v4.465h-1.229V112.497z
	 M165.541,116.537c0.477,0,0.812-0.11,1.01-0.331c0.197-0.22,0.295-0.593,0.295-1.116c0-0.283-0.021-0.525-0.062-0.727
	c-0.041-0.2-0.106-0.364-0.195-0.49c-0.088-0.126-0.202-0.218-0.342-0.277c-0.141-0.059-0.307-0.089-0.5-0.089h-0.206V116.537z"/>
<path fill="#FFFFFF" d="M171.672,112.497h0.957l1.955,9.119h-1.217l-0.343-1.777h-1.808l-0.349,1.777h-1.181L171.672,112.497z
	 M172.848,118.888l-0.272-1.453c-0.181-0.988-0.328-2.043-0.442-3.165c-0.056,0.547-0.126,1.102-0.213,1.662
	c-0.087,0.562-0.189,1.156-0.307,1.787l-0.225,1.169H172.848z"/>
<path fill="#FFFFFF" d="M175.93,112.497h1.229v8.08h2.008v1.039h-3.236V112.497z"/>
</svg>
