<svg width="16" height="16" viewBox="0 0 16 16" fill="none" xmlns="http://www.w3.org/2000/svg">
<g clip-path="url(#clip0)">
<path d="M15.7652 15.5304H14.2466V6.24662C14.2466 6.11694 14.1414 6.01178 14.0117 6.01178H11.5068C11.3771 6.01178 11.272 6.11694 11.272 6.24662V15.5304H9.48728V9.002C9.48728 8.87231 9.38216 8.76715 9.25244 8.76715H6.74756C6.61784 8.76715 6.51272 8.87231 6.51272 9.002V15.5304H4.728V10.2544C4.728 10.1247 4.62288 10.0196 4.49316 10.0196H1.98828C1.85856 10.0196 1.75344 10.1247 1.75344 10.2544V15.5303H0.234844C0.105125 15.5303 0 15.6355 0 15.7652C0 15.8949 0.105125 16 0.234844 16H15.7652C15.8949 16 16 15.8949 16 15.7652C16 15.6355 15.8949 15.5304 15.7652 15.5304ZM4.25831 15.5304H2.22309V10.4893H4.25831V15.5304ZM9.01762 15.5304H6.98241V9.23684H9.01762V15.5304ZM13.7769 15.5304H11.7417V6.48147H13.7769V15.5304Z" fill="#7D4039"/>
<path d="M15.2503 0.184232C15.092 0.0445131 14.8814 -0.0205806 14.672 0.00573186L12.6681 0.256232C12.2703 0.305951 11.9795 0.679357 12.0293 1.07758C12.0795 1.47998 12.4477 1.76676 12.8506 1.71645L13.0141 1.69604C10.5546 4.54779 7.63064 6.02161 5.56445 6.76229C2.98817 7.68589 0.982951 7.76489 0.96342 7.76554C0.558326 7.7782 0.238701 8.11811 0.250951 8.52326C0.263076 8.92339 0.585982 9.23679 0.986139 9.23679C0.993576 9.23679 1.00104 9.2367 1.0087 9.23645C1.09786 9.23376 3.22351 9.1587 6.02398 8.16082C7.5983 7.59982 9.07967 6.85511 10.4269 5.94739C10.5345 5.87495 10.5629 5.72895 10.4904 5.62142C10.418 5.51382 10.272 5.48542 10.1644 5.55789C8.8498 6.4437 7.4037 7.17061 5.86633 7.71842C3.13467 8.69176 1.08054 8.76439 0.994639 8.76698L0.986139 8.76711C0.841514 8.76711 0.724764 8.65376 0.720389 8.50904C0.715951 8.36248 0.831576 8.23954 0.978201 8.23495C0.998701 8.23429 3.06114 8.15861 5.72295 7.20439C7.95292 6.40498 11.1571 4.7727 13.7581 1.53633C13.8876 1.3752 13.7507 1.13054 13.546 1.1562L12.7925 1.25039C12.6619 1.26654 12.535 1.18095 12.5019 1.05339C12.462 0.899888 12.5692 0.741888 12.7264 0.722201L14.7304 0.471701C14.8869 0.451919 15.0295 0.578388 15.0295 0.735794V2.7397C15.0295 2.88645 14.9101 3.00586 14.7633 3.00586C14.6165 3.00586 14.4972 2.88648 14.4972 2.7397V2.1322C14.4972 2.03623 14.4351 1.94648 14.3454 1.91258C14.2526 1.87754 14.1431 1.90695 14.0804 1.9837C13.2033 3.05842 12.2046 4.03092 11.112 4.87417C11.0094 4.95342 10.9903 5.10089 11.0696 5.20358C11.1488 5.30626 11.2964 5.32523 11.399 5.24601C12.3507 4.51148 13.2329 3.68145 14.0283 2.77286C14.0456 3.16326 14.3687 3.47558 14.7634 3.47558C15.1691 3.47558 15.4992 3.14548 15.4992 2.73976V0.735857C15.4991 0.524919 15.4085 0.323826 15.2503 0.184232Z" fill="#7D4039"/>
</g>
<defs>
<clipPath id="clip0">
<rect width="16" height="16" fill="white"/>
</clipPath>
</defs>
</svg>
