<svg width="16" height="16" viewBox="0 0 16 16" fill="none" xmlns="http://www.w3.org/2000/svg">
<g clip-path="url(#clip0)">
<path d="M15.9371 14.6677C15.8877 14.5363 15.8104 14.4155 15.7111 14.3163L13.4567 12.0619C13.1182 11.7235 12.5931 11.683 12.2098 11.9403L10.794 10.5245C11.8469 9.40588 12.4932 7.90038 12.4932 6.24659C12.4932 2.80219 9.69097 0 6.24656 0C2.80216 0 0 2.80219 0 6.24656C0 9.69094 2.80219 12.4931 6.24656 12.4931C7.86853 12.4931 9.348 11.8716 10.4596 10.8543L11.8931 12.2878C11.6897 12.6619 11.7458 13.1407 12.0619 13.4567L14.3163 15.7111C14.6279 16.0227 15.1371 16.0874 15.5164 15.8624C15.9202 15.623 16.1023 15.1069 15.9371 14.6677ZM6.24656 12.0235C3.06116 12.0235 0.469656 9.43197 0.469656 6.24656C0.469656 3.06116 3.06116 0.469656 6.24656 0.469656C9.43197 0.469656 12.0235 3.06116 12.0235 6.24656C12.0235 9.43197 9.43197 12.0235 6.24656 12.0235ZM15.2769 15.4585C15.0772 15.5769 14.8128 15.5434 14.6484 15.379L12.394 13.1246C12.1949 12.9255 12.1949 12.5931 12.394 12.394C12.5928 12.1952 12.9258 12.1952 13.1247 12.394L15.3791 14.6484C15.6134 14.8827 15.5618 15.2895 15.2769 15.4585Z" fill="#7D4039"/>
<path d="M9.17661 1.89623C9.06908 1.82367 8.92314 1.85198 8.85061 1.95952C8.77805 2.06705 8.80639 2.21298 8.91389 2.28552C10.2336 3.17605 11.0215 4.6568 11.0215 6.24661C11.0215 8.87955 8.87946 11.0215 6.24655 11.0215C3.61364 11.0215 1.47155 8.87952 1.47155 6.24658C1.47155 3.61364 3.61358 1.47164 6.24649 1.47164C6.82171 1.47164 7.38402 1.57277 7.91771 1.77223C8.03924 1.81764 8.17449 1.75595 8.21989 1.63445C8.2653 1.51295 8.20361 1.37767 8.08211 1.33227C7.49561 1.11308 6.87802 1.00195 6.24646 1.00195C3.35455 1.00195 1.00183 3.35467 1.00183 6.24658C1.00183 9.13848 3.35461 11.4912 6.24649 11.4912C9.13836 11.4912 11.4911 9.13848 11.4911 6.24658C11.4911 4.50045 10.6259 2.87414 9.17661 1.89623Z" fill="#7D4039"/>
<path d="M7.74949 5.73003C8.08615 5.73003 8.36006 5.45612 8.36006 5.11947V4.74375C8.36006 3.86512 7.70471 3.13675 6.85712 3.02178V2.61459C6.85712 2.27793 6.58321 2.00403 6.24656 2.00403C5.9099 2.00403 5.63599 2.27793 5.63599 2.61459V3.05287C4.76581 3.24697 4.13306 4.02056 4.13306 4.93159C4.13306 5.99337 4.9969 6.85722 6.05868 6.85722H6.4344C6.82287 6.85722 7.1389 7.17325 7.1389 7.56172C7.1389 7.95018 6.82287 8.26622 6.4344 8.26622H5.87081C5.58593 8.26622 5.35418 8.03447 5.35418 7.74959C5.35418 7.41293 5.08028 7.13903 4.74362 7.13903C4.40696 7.13903 4.13306 7.41293 4.13306 7.74959C4.13306 8.62822 4.7884 9.35659 5.63599 9.47156V9.87875C5.63599 10.2154 5.9099 10.4893 6.24656 10.4893C6.58321 10.4893 6.85712 10.2154 6.85712 9.87875V9.44047C7.72731 9.24637 8.36006 8.47278 8.36006 7.56175C8.36006 6.49997 7.49621 5.63612 6.43443 5.63612H6.05871C5.67024 5.63612 5.35421 5.32009 5.35421 4.93162C5.35421 4.54315 5.67024 4.22712 6.05871 4.22712H6.62231C6.90718 4.22712 7.13893 4.45887 7.13893 4.74375V5.11947C7.13893 5.45612 7.41284 5.73003 7.74949 5.73003ZM6.62231 3.75743H6.05871C5.41128 3.75743 4.88456 4.28415 4.88456 4.93159C4.88456 5.57903 5.41128 6.10575 6.05871 6.10575H6.43443C7.23724 6.10575 7.8904 6.7589 7.8904 7.56172C7.8904 8.30453 7.33409 8.92647 6.59637 9.00843C6.47746 9.02165 6.38746 9.12215 6.38746 9.24184V9.87875C6.38746 9.95643 6.32424 10.0197 6.24656 10.0197C6.16887 10.0197 6.10565 9.95643 6.10565 9.87875V9.25253C6.10565 9.12284 6.00049 9.01768 5.87081 9.01768C5.17156 9.01768 4.60271 8.44881 4.60271 7.74959C4.60271 7.6719 4.66593 7.60868 4.74362 7.60868C4.82131 7.60868 4.88453 7.6719 4.88453 7.74959C4.88453 8.29343 5.32699 8.7359 5.87084 8.7359H6.43443C7.08187 8.7359 7.60859 8.20919 7.60859 7.56175C7.60859 6.91431 7.08187 6.38759 6.43443 6.38759H6.05871C5.2559 6.38759 4.60274 5.73443 4.60274 4.93162C4.60274 4.18881 5.15906 3.56687 5.89678 3.4849C6.01568 3.47168 6.10568 3.37118 6.10568 3.2515V2.61456C6.10568 2.53687 6.1689 2.47365 6.24659 2.47365C6.32428 2.47365 6.38749 2.53687 6.38749 2.61456V3.24078C6.38749 3.37047 6.49265 3.47562 6.62234 3.47562C7.32159 3.47562 7.89043 4.0445 7.89043 4.74372V5.11943C7.89043 5.19712 7.82721 5.26034 7.74953 5.26034C7.67184 5.26034 7.60862 5.19712 7.60862 5.11943V4.74372C7.60862 4.19987 7.16615 3.75743 6.62231 3.75743Z" fill="#7D4039"/>
<path d="M14.9775 3.77802C14.8858 3.6863 14.7371 3.6863 14.6454 3.77802C14.5537 3.86974 14.5537 4.01842 14.6454 4.11011C15.2161 4.68083 15.5304 5.43958 15.5304 6.24667C15.5304 7.05374 15.2161 7.81252 14.6454 8.38324C14.5599 8.4687 14.5543 8.60996 14.6329 8.70186C14.7208 8.80439 14.882 8.81086 14.9775 8.71533C15.637 8.05589 16.0001 7.1792 16.0001 6.24664C16.0001 5.31411 15.637 4.43739 14.9775 3.77802Z" fill="#7D4039"/>
<path d="M14.2689 4.48651C14.1772 4.39479 14.0285 4.39479 13.9368 4.48651C13.8451 4.57823 13.8451 4.72692 13.9368 4.81861C14.3183 5.20008 14.5283 5.70723 14.5283 6.24667C14.5283 6.78614 14.3183 7.29326 13.9368 7.6747C13.8513 7.76017 13.8456 7.90142 13.9243 7.99332C14.0121 8.09585 14.1734 8.10232 14.2689 8.00679C14.739 7.53667 14.998 6.91157 14.998 6.24667C14.998 5.58179 14.739 4.9567 14.2689 4.48651Z" fill="#7D4039"/>
<path d="M13.5604 5.19477C13.4687 5.10305 13.32 5.10305 13.2283 5.19477C13.1366 5.28648 13.1366 5.43517 13.2283 5.52686C13.4206 5.71911 13.5264 5.97464 13.5264 6.24646C13.5264 6.51827 13.4206 6.77383 13.2283 6.96599C13.1429 7.05149 13.1371 7.19271 13.2158 7.28461C13.3036 7.38718 13.4649 7.39358 13.5604 7.29811C13.8413 7.01721 13.996 6.64371 13.996 6.24642C13.996 5.84914 13.8413 5.47564 13.5604 5.19477Z" fill="#7D4039"/>
<path d="M8.71533 14.6452C8.62486 14.5547 8.47371 14.5547 8.38324 14.6452C7.81252 15.2159 7.05377 15.5302 6.24667 15.5302C5.43961 15.5302 4.68083 15.2159 4.11011 14.6452C4.01839 14.5535 3.86971 14.5535 3.77802 14.6452C3.6863 14.7369 3.6863 14.8856 3.77802 14.9773C4.43742 15.6367 5.31414 15.9999 6.24667 15.9999C7.1792 15.9999 8.05592 15.6367 8.7153 14.9773C8.8058 14.8868 8.8058 14.7357 8.71533 14.6452Z" fill="#7D4039"/>
<path d="M8.0067 13.937C7.91499 13.8452 7.7663 13.8452 7.67461 13.937C7.29314 14.3184 6.78599 14.5285 6.24655 14.5285C5.70708 14.5285 5.19995 14.3184 4.81852 13.9369C4.7268 13.8452 4.57811 13.8452 4.48639 13.9369C4.39467 14.0286 4.39467 14.1773 4.48639 14.269C4.95655 14.7392 5.58164 14.9981 6.24655 14.9981C6.91145 14.9981 7.53655 14.7392 8.0067 14.2691C8.09842 14.1773 8.09842 14.0286 8.0067 13.937Z" fill="#7D4039"/>
<path d="M7.29835 13.2283C7.2066 13.1366 7.05797 13.1366 6.96622 13.2283C6.77404 13.4206 6.51848 13.5264 6.24666 13.5264C5.97485 13.5264 5.71929 13.4206 5.52713 13.2284C5.43542 13.1367 5.28673 13.1366 5.19501 13.2284C5.10329 13.3201 5.10329 13.4688 5.19501 13.5605C5.47592 13.8414 5.84941 13.9961 6.2467 13.9961C6.64398 13.9961 7.01744 13.8414 7.29835 13.5605C7.39007 13.4687 7.39004 13.32 7.29835 13.2283Z" fill="#7D4039"/>
</g>
<defs>
<clipPath id="clip0">
<rect width="16" height="16" fill="white"/>
</clipPath>
</defs>
</svg>
