<svg width="16" height="16" viewBox="0 0 16 16" fill="none" xmlns="http://www.w3.org/2000/svg">
<path d="M8 6.25C7.86225 6.25 7.75 6.13775 7.75 6H7.25C7.25 6.3255 7.45975 6.6005 7.75 6.704V7.25H8.25V6.75H8.75V6C8.75 5.5865 8.4135 5.25 8 5.25C7.86225 5.25 7.75 5.13775 7.75 5V4.75H8C8.13775 4.75 8.25 4.86225 8.25 5H8.75C8.75 4.6745 8.54025 4.3995 8.25 4.296V3.75H7.75V4.25H7.25V5C7.25 5.4135 7.5865 5.75 8 5.75C8.13775 5.75 8.25 5.86225 8.25 6V6.25H8Z" fill="#7D4039"/>
<path d="M9.5 5.75C9.63807 5.75 9.75 5.63807 9.75 5.5C9.75 5.36193 9.63807 5.25 9.5 5.25C9.36193 5.25 9.25 5.36193 9.25 5.5C9.25 5.63807 9.36193 5.75 9.5 5.75Z" fill="#7D4039"/>
<path d="M6.5 5.75C6.63807 5.75 6.75 5.63807 6.75 5.5C6.75 5.36193 6.63807 5.25 6.5 5.25C6.36193 5.25 6.25 5.36193 6.25 5.5C6.25 5.63807 6.36193 5.75 6.5 5.75Z" fill="#7D4039"/>
<path d="M8 8.75C9.792 8.75 11.25 7.292 11.25 5.5C11.25 3.708 9.792 2.25 8 2.25C6.208 2.25 4.75 3.708 4.75 5.5C4.75 7.292 6.208 8.75 8 8.75ZM8 2.75C9.51625 2.75 10.75 3.98375 10.75 5.5C10.75 7.01625 9.51625 8.25 8 8.25C6.48375 8.25 5.25 7.01625 5.25 5.5C5.25 3.98375 6.48375 2.75 8 2.75Z" fill="#7D4039"/>
<path d="M4.25 0.25V3.50425C3.93175 4.09975 3.75 4.77875 3.75 5.5C3.75 6.325 3.99 7.09325 4.3985 7.74575L3.74975 8.39625L3.5 8.1465L0.634 11.0125C0.38625 11.26 0.25 11.589 0.25 11.9395C0.25 12.662 0.838 13.25 1.56075 13.25C1.9105 13.25 2.23975 13.1138 2.4875 12.8663L4.25 11.1035V15.75H15.75V0.25H4.25ZM8 1.75C10.0677 1.75 11.75 3.43225 11.75 5.5C11.75 7.56775 10.0677 9.25 8 9.25C5.93225 9.25 4.25 7.56775 4.25 5.5C4.25 3.43225 5.93225 1.75 8 1.75ZM4.69075 8.16075C4.88275 8.39925 5.09975 8.61625 5.338 8.8085L4.75 9.3965L4.10325 8.74975L4.69075 8.16075ZM2.134 12.5125C1.98075 12.6657 1.777 12.75 1.56075 12.75C1.11375 12.75 0.75 12.3865 0.75 11.9395C0.75 11.7227 0.83425 11.5192 0.9875 11.3663L3.5 8.8535L4.6465 10L2.134 12.5125ZM15.25 15.25H4.75V10.6035L5.3535 10L5.1035 9.75L5.75275 9.10075C6.40575 9.50975 7.1745 9.75 8 9.75C10.3435 9.75 12.25 7.8435 12.25 5.5C12.25 3.1565 10.3435 1.25 8 1.25C6.697 1.25 5.53025 1.84075 4.75 2.767V0.75H15.25V15.25Z" fill="#7D4039"/>
<path d="M13.25 14.25H12.75V8.75H11.25V14.25H10.75V9.75H9.25V14.25H8.75V10.75H7.25V14.25H6.75V11.75H5.25V14.75H14.75V7.75H13.25V14.25ZM6.25 14.25H5.75V12.25H6.25V14.25ZM11.75 9.25H12.25V14.25H11.75V9.25ZM9.75 10.25H10.25V14.25H9.75V10.25ZM7.75 11.25H8.25V14.25H7.75V11.25ZM13.75 8.25H14.25V14.25H13.75V8.25Z" fill="#7D4039"/>
<path d="M10.75 1.25H11.25V1.75H10.75V1.25Z" fill="#7D4039"/>
<path d="M11.75 1.25H14.75V1.75H11.75V1.25Z" fill="#7D4039"/>
<path d="M12.75 2.25H14.75V2.75H12.75V2.25Z" fill="#7D4039"/>
<path d="M12.75 3.25H14.75V3.75H12.75V3.25Z" fill="#7D4039"/>
<path d="M12.75 4.25H14.75V4.75H12.75V4.25Z" fill="#7D4039"/>
<path d="M12.75 5.25H14.75V5.75H12.75V5.25Z" fill="#7D4039"/>
<path d="M12.75 6.25H14.75V6.75H12.75V6.25Z" fill="#7D4039"/>
</svg>
