<svg width="16" height="16" viewBox="0 0 16 16" fill="none" xmlns="http://www.w3.org/2000/svg">
<path d="M7.08 5.18253C7.12578 5.2262 7.18673 5.2504 7.25 5.25003C7.28429 5.24965 7.3182 5.24287 7.35 5.23003C7.39451 5.21022 7.43235 5.17798 7.45896 5.13717C7.48557 5.09637 7.49982 5.04874 7.5 5.00003V3.75003C7.50004 3.71572 7.49295 3.68179 7.47918 3.65037C7.46541 3.61895 7.44525 3.59074 7.42 3.56753L4.17 0.567528C4.12402 0.524157 4.06321 0.5 4 0.5C3.93679 0.5 3.87598 0.524157 3.83 0.567528L0.58 3.56753C0.554746 3.59074 0.534594 3.61895 0.520822 3.65037C0.507051 3.68179 0.49996 3.71572 0.5 3.75003V5.00003C0.500156 5.0486 0.51446 5.09608 0.541164 5.13666C0.567868 5.17724 0.605815 5.20916 0.650367 5.22851C0.694919 5.24787 0.744146 5.25383 0.792031 5.24567C0.839916 5.2375 0.884384 5.21556 0.92 5.18253L1.25 4.88003V6.44753L0.58 7.06753C0.554746 7.09074 0.534594 7.11895 0.520822 7.15037C0.507051 7.18179 0.49996 7.21572 0.5 7.25003V8.50003C0.500156 8.5486 0.51446 8.59608 0.541164 8.63666C0.567868 8.67724 0.605815 8.70916 0.650367 8.72851C0.694919 8.74787 0.744146 8.75383 0.792031 8.74567C0.839916 8.7375 0.884384 8.71556 0.92 8.68253L1.25 8.38003V9.94753L0.58 10.5675C0.554746 10.5907 0.534594 10.619 0.520822 10.6504C0.507051 10.6818 0.49996 10.7157 0.5 10.75V12C0.500156 12.0486 0.51446 12.0961 0.541164 12.1367C0.567868 12.1772 0.605815 12.2092 0.650367 12.2285C0.694919 12.2479 0.744146 12.2538 0.792031 12.2457C0.839916 12.2375 0.884384 12.2156 0.92 12.1825L1.25 11.88V15.25C1.25 15.3163 1.27634 15.3799 1.32322 15.4268C1.37011 15.4737 1.4337 15.5 1.5 15.5H6.5C6.5663 15.5 6.62989 15.4737 6.67678 15.4268C6.72366 15.3799 6.75 15.3163 6.75 15.25V11.88L7.08 12.1825C7.12578 12.2262 7.18673 12.2504 7.25 12.25C7.28429 12.2497 7.3182 12.2429 7.35 12.23C7.39451 12.2102 7.43235 12.178 7.45896 12.1372C7.48557 12.0964 7.49982 12.0487 7.5 12V10.75C7.50004 10.7157 7.49295 10.6818 7.47918 10.6504C7.46541 10.619 7.44525 10.5907 7.42 10.5675L6.75 9.94753V8.38003L7.08 8.68253C7.12578 8.7262 7.18673 8.75039 7.25 8.75003C7.28429 8.74965 7.3182 8.74287 7.35 8.73003C7.39451 8.71022 7.43235 8.67798 7.45896 8.63717C7.48557 8.59637 7.49982 8.54874 7.5 8.50003V7.25003C7.50004 7.21572 7.49295 7.18179 7.47918 7.15037C7.46541 7.11895 7.44525 7.09074 7.42 7.06753L6.75 6.44753V4.88003L7.08 5.18253ZM4.5 15H3.5V14.25C3.5 14.1837 3.52634 14.1201 3.57322 14.0732C3.62011 14.0264 3.6837 14 3.75 14H4.25C4.3163 14 4.37989 14.0264 4.42678 14.0732C4.47366 14.1201 4.5 14.1837 4.5 14.25V15ZM3.75 13.25V13H4.25V13.25C4.25 13.3163 4.22366 13.3799 4.17678 13.4268C4.12989 13.4737 4.0663 13.5 4 13.5C3.9337 13.5 3.87011 13.4737 3.82322 13.4268C3.77634 13.3799 3.75 13.3163 3.75 13.25ZM3.75 12.5V12H4.75V12.25C4.75 12.3163 4.72366 12.3799 4.67678 12.4268C4.62989 12.4737 4.5663 12.5 4.5 12.5H3.75ZM6.25 15H5V14.25C5.00007 14.1236 4.96799 13.9992 4.90676 13.8885C4.84553 13.7779 4.75718 13.6846 4.65 13.6175C4.71502 13.5059 4.74951 13.3792 4.75 13.25V12.955C4.89569 12.9031 5.02185 12.8076 5.11131 12.6815C5.20078 12.5553 5.2492 12.4047 5.25 12.25V11.75C5.25 11.6837 5.22366 11.6201 5.17678 11.5732C5.12989 11.5264 5.0663 11.5 5 11.5H3.5C3.4337 11.5 3.37011 11.5264 3.32322 11.5732C3.27634 11.6201 3.25 11.6837 3.25 11.75V13.25C3.25049 13.3792 3.28498 13.5059 3.35 13.6175C3.24282 13.6846 3.15447 13.7779 3.09324 13.8885C3.03201 13.9992 2.99993 14.1236 3 14.25V15H1.75V11.4175L4 9.34003L6.25 11.4175V15ZM7 10.86V11.43L4.17 8.81753C4.12402 8.77416 4.06321 8.75 4 8.75C3.93679 8.75 3.87598 8.77416 3.83 8.81753L1 11.43V10.86L4 8.09003L7 10.86ZM1.75 9.48753V7.91753L4 5.84003L6.25 7.91753V9.48753L4.17 7.56753C4.12402 7.52416 4.06321 7.5 4 7.5C3.93679 7.5 3.87598 7.52416 3.83 7.56753L1.75 9.48753ZM7 7.36003V7.93003L4.17 5.31753C4.12402 5.27416 4.06321 5.25 4 5.25C3.93679 5.25 3.87598 5.27416 3.83 5.31753L1 7.93003V7.36003L4 4.59003L7 7.36003ZM1.75 5.98753V4.41753L4 2.34003L6.25 4.41753V5.98753L4.17 4.06753C4.12402 4.02416 4.06321 4 4 4C3.93679 4 3.87598 4.02416 3.83 4.06753L1.75 5.98753ZM4.17 1.81753C4.12402 1.77416 4.06321 1.75 4 1.75C3.93679 1.75 3.87598 1.77416 3.83 1.81753L1 4.43003V3.86003L4 1.09003L7 3.86003V4.43003L4.17 1.81753Z" fill="#7D4039"/>
<path d="M15.08 5.18253C15.1258 5.2262 15.1867 5.2504 15.25 5.25003C15.2843 5.24965 15.3182 5.24287 15.35 5.23003C15.3945 5.21022 15.4324 5.17798 15.459 5.13717C15.4856 5.09637 15.4998 5.04874 15.5 5.00003V3.75003C15.5001 3.71572 15.493 3.68179 15.4792 3.65037C15.4654 3.61895 15.4453 3.59074 15.42 3.56753L12.17 0.567528C12.124 0.524157 12.0632 0.5 12 0.5C11.9368 0.5 11.876 0.524157 11.83 0.567528L8.58 3.56753C8.55475 3.59074 8.53459 3.61895 8.52082 3.65037C8.50705 3.68179 8.49996 3.71572 8.5 3.75003V5.00003C8.50016 5.0486 8.51446 5.09608 8.54116 5.13666C8.56787 5.17724 8.60582 5.20916 8.65037 5.22851C8.69492 5.24787 8.74415 5.25383 8.79203 5.24567C8.83992 5.2375 8.88438 5.21556 8.92 5.18253L9.25 4.88003V6.44753L8.58 7.06753C8.55475 7.09074 8.53459 7.11895 8.52082 7.15037C8.50705 7.18179 8.49996 7.21572 8.5 7.25003V8.50003C8.50016 8.5486 8.51446 8.59608 8.54116 8.63666C8.56787 8.67724 8.60582 8.70916 8.65037 8.72851C8.69492 8.74787 8.74415 8.75383 8.79203 8.74567C8.83992 8.7375 8.88438 8.71556 8.92 8.68253L9.25 8.38003V9.94753L8.58 10.5675C8.55475 10.5907 8.53459 10.619 8.52082 10.6504C8.50705 10.6818 8.49996 10.7157 8.5 10.75V12C8.50016 12.0486 8.51446 12.0961 8.54116 12.1367C8.56787 12.1772 8.60582 12.2092 8.65037 12.2285C8.69492 12.2479 8.74415 12.2538 8.79203 12.2457C8.83992 12.2375 8.88438 12.2156 8.92 12.1825L9.25 11.88V15.25C9.25 15.3163 9.27634 15.3799 9.32322 15.4268C9.37011 15.4737 9.4337 15.5 9.5 15.5H14.5C14.5663 15.5 14.6299 15.4737 14.6768 15.4268C14.7237 15.3799 14.75 15.3163 14.75 15.25V11.88L15.08 12.1825C15.1258 12.2262 15.1867 12.2504 15.25 12.25C15.2843 12.2497 15.3182 12.2429 15.35 12.23C15.3945 12.2102 15.4324 12.178 15.459 12.1372C15.4856 12.0964 15.4998 12.0487 15.5 12V10.75C15.5001 10.7157 15.493 10.6818 15.4792 10.6504C15.4654 10.619 15.4453 10.5907 15.42 10.5675L14.75 9.94753V8.38003L15.08 8.68253C15.1258 8.7262 15.1867 8.75039 15.25 8.75003C15.2843 8.74965 15.3182 8.74287 15.35 8.73003C15.3945 8.71022 15.4324 8.67798 15.459 8.63717C15.4856 8.59637 15.4998 8.54874 15.5 8.50003V7.25003C15.5001 7.21572 15.493 7.18179 15.4792 7.15037C15.4654 7.11895 15.4453 7.09074 15.42 7.06753L14.75 6.44753V4.88003L15.08 5.18253ZM12.5 15H11.5V14.25C11.5 14.1837 11.5263 14.1201 11.5732 14.0732C11.6201 14.0264 11.6837 14 11.75 14H12.25C12.3163 14 12.3799 14.0264 12.4268 14.0732C12.4737 14.1201 12.5 14.1837 12.5 14.25V15ZM11.75 13.25V13H12.25V13.25C12.25 13.3163 12.2237 13.3799 12.1768 13.4268C12.1299 13.4737 12.0663 13.5 12 13.5C11.9337 13.5 11.8701 13.4737 11.8232 13.4268C11.7763 13.3799 11.75 13.3163 11.75 13.25ZM11.75 12.5V12H12.75V12.25C12.75 12.3163 12.7237 12.3799 12.6768 12.4268C12.6299 12.4737 12.5663 12.5 12.5 12.5H11.75ZM14.25 15H13V14.25C13.0001 14.1236 12.968 13.9992 12.9068 13.8885C12.8455 13.7779 12.7572 13.6846 12.65 13.6175C12.715 13.5059 12.7495 13.3792 12.75 13.25V12.955C12.8957 12.9031 13.0219 12.8076 13.1113 12.6815C13.2008 12.5553 13.2492 12.4047 13.25 12.25V11.75C13.25 11.6837 13.2237 11.6201 13.1768 11.5732C13.1299 11.5264 13.0663 11.5 13 11.5H11.5C11.4337 11.5 11.3701 11.5264 11.3232 11.5732C11.2763 11.6201 11.25 11.6837 11.25 11.75V13.25C11.2505 13.3792 11.285 13.5059 11.35 13.6175C11.2428 13.6846 11.1545 13.7779 11.0932 13.8885C11.032 13.9992 10.9999 14.1236 11 14.25V15H9.75V11.4175L12 9.34003L14.25 11.4175V15ZM15 10.86V11.43L12.17 8.81753C12.124 8.77416 12.0632 8.75 12 8.75C11.9368 8.75 11.876 8.77416 11.83 8.81753L9 11.43V10.86L12 8.09003L15 10.86ZM9.75 9.48753V7.91753L12 5.84003L14.25 7.91753V9.48753L12.17 7.56753C12.124 7.52416 12.0632 7.5 12 7.5C11.9368 7.5 11.876 7.52416 11.83 7.56753L9.75 9.48753ZM15 7.36003V7.93003L12.17 5.31753C12.124 5.27416 12.0632 5.25 12 5.25C11.9368 5.25 11.876 5.27416 11.83 5.31753L9 7.93003V7.36003L12 4.59003L15 7.36003ZM9.75 5.98753V4.41753L12 2.34003L14.25 4.41753V5.98753L12.17 4.06753C12.124 4.02416 12.0632 4 12 4C11.9368 4 11.876 4.02416 11.83 4.06753L9.75 5.98753ZM12.17 1.81753C12.124 1.77416 12.0632 1.75 12 1.75C11.9368 1.75 11.876 1.77416 11.83 1.81753L9 4.43003V3.86003L12 1.09003L15 3.86003V4.43003L12.17 1.81753Z" fill="#7D4039"/>
</svg>
