<svg width="16" height="16" viewBox="0 0 16 16" fill="none" xmlns="http://www.w3.org/2000/svg">
<path d="M11.0459 13.8555C10.9885 13.8555 10.9335 13.8327 10.893 13.7922C10.8524 13.7516 10.8297 13.6966 10.8297 13.6393V2.15345L8.08933 1.00382L5.78815 1.90912V13.6393C5.78815 13.6966 5.76537 13.7516 5.72482 13.7922C5.68427 13.8327 5.62927 13.8555 5.57193 13.8555C5.51459 13.8555 5.45959 13.8327 5.41904 13.7922C5.37849 13.7516 5.35571 13.6966 5.35571 13.6393V1.76166C5.3557 1.71822 5.36876 1.67578 5.39322 1.63988C5.41767 1.60397 5.45237 1.57626 5.49279 1.56036L8.01279 0.569013C8.06522 0.548353 8.12363 0.548974 8.1756 0.570743L11.1295 1.81031C11.1688 1.82679 11.2023 1.8545 11.2259 1.88997C11.2495 1.92543 11.2621 1.96707 11.2621 2.00966V13.6393C11.2621 13.6966 11.2393 13.7516 11.1988 13.7922C11.1582 13.8327 11.1032 13.8555 11.0459 13.8555Z" fill="#7D4039"/>
<path d="M8.09183 13.8556C8.03448 13.8556 7.97949 13.8328 7.93894 13.7923C7.89839 13.7517 7.87561 13.6967 7.87561 13.6394V0.770415C7.87561 0.713071 7.89839 0.658076 7.93894 0.617527C7.97949 0.576979 8.03448 0.554199 8.09183 0.554199C8.14917 0.554199 8.20417 0.576979 8.24472 0.617527C8.28527 0.658076 8.30805 0.713071 8.30805 0.770415V13.6394C8.30805 13.6967 8.28527 13.7517 8.24472 13.7923C8.20417 13.8328 8.14917 13.8556 8.09183 13.8556Z" fill="#7D4039"/>
<path d="M14.5367 13.8557C14.4794 13.8557 14.4244 13.8329 14.3839 13.7923C14.3433 13.7518 14.3205 13.6968 14.3205 13.6394V6.84376L12.2064 5.61371H11.0459C10.9886 5.61371 10.9336 5.59093 10.893 5.55038C10.8525 5.50983 10.8297 5.45484 10.8297 5.39749C10.8297 5.34015 10.8525 5.28515 10.893 5.2446C10.9336 5.20405 10.9886 5.18127 11.0459 5.18127H12.2647C12.3027 5.18141 12.34 5.19155 12.3729 5.21068L14.6451 6.53263C14.6779 6.55157 14.7051 6.57879 14.7241 6.61158C14.7431 6.64436 14.7531 6.68156 14.7532 6.71944V13.6384C14.7533 13.6669 14.7478 13.6951 14.737 13.7215C14.7262 13.7479 14.7103 13.7718 14.6902 13.792C14.67 13.8122 14.6461 13.8282 14.6198 13.8392C14.5935 13.8501 14.5653 13.8557 14.5367 13.8557Z" fill="#7D4039"/>
<path d="M12.2647 13.8557C12.2073 13.8557 12.1523 13.8329 12.1118 13.7923C12.0712 13.7518 12.0485 13.6968 12.0485 13.6394V5.39749C12.0485 5.34015 12.0712 5.28515 12.1118 5.2446C12.1523 5.20405 12.2073 5.18127 12.2647 5.18127C12.322 5.18127 12.377 5.20405 12.4176 5.2446C12.4581 5.28515 12.4809 5.34015 12.4809 5.39749V13.6394C12.4809 13.6968 12.4581 13.7518 12.4176 13.7923C12.377 13.8329 12.322 13.8557 12.2647 13.8557Z" fill="#7D4039"/>
<path d="M1.13064 13.8557C1.0733 13.8557 1.01831 13.8329 0.977757 13.7924C0.937209 13.7518 0.914429 13.6968 0.914429 13.6395V6.90543C0.914429 6.84808 0.937209 6.79309 0.977757 6.75254C1.01831 6.71199 1.0733 6.68921 1.13064 6.68921H5.57194C5.62929 6.68921 5.68428 6.71199 5.72483 6.75254C5.76538 6.79309 5.78816 6.84808 5.78816 6.90543C5.78816 6.96277 5.76538 7.01776 5.72483 7.05831C5.68428 7.09886 5.62929 7.12164 5.57194 7.12164H1.34686V13.6395C1.34686 13.6968 1.32408 13.7518 1.28353 13.7924C1.24298 13.8329 1.18799 13.8557 1.13064 13.8557Z" fill="#7D4039"/>
<path d="M2.32094 7.95196H1.86148C1.80414 7.95196 1.74914 7.92918 1.70859 7.88863C1.66804 7.84808 1.64526 7.79309 1.64526 7.73575C1.64526 7.6784 1.66804 7.62341 1.70859 7.58286C1.74914 7.54231 1.80414 7.51953 1.86148 7.51953H2.32094C2.37828 7.51953 2.43328 7.54231 2.47383 7.58286C2.51437 7.62341 2.53715 7.6784 2.53715 7.73575C2.53715 7.79309 2.51437 7.84808 2.47383 7.88863C2.43328 7.92918 2.37828 7.95196 2.32094 7.95196Z" fill="#7D4039"/>
<path d="M3.58129 7.95196H3.12161C3.06427 7.95196 3.00927 7.92918 2.96872 7.88863C2.92818 7.84808 2.9054 7.79309 2.9054 7.73575C2.9054 7.6784 2.92818 7.62341 2.96872 7.58286C3.00927 7.54231 3.06427 7.51953 3.12161 7.51953H3.58129C3.63863 7.51953 3.69363 7.54231 3.73418 7.58286C3.77472 7.62341 3.7975 7.6784 3.7975 7.73575C3.7975 7.79309 3.77472 7.84808 3.73418 7.88863C3.69363 7.92918 3.63863 7.95196 3.58129 7.95196Z" fill="#7D4039"/>
<path d="M4.84108 7.95196H4.38162C4.32428 7.95196 4.26928 7.92918 4.22873 7.88863C4.18819 7.84808 4.16541 7.79309 4.16541 7.73575C4.16541 7.6784 4.18819 7.62341 4.22873 7.58286C4.26928 7.54231 4.32428 7.51953 4.38162 7.51953H4.84108C4.89842 7.51953 4.95342 7.54231 4.99397 7.58286C5.03452 7.62341 5.0573 7.6784 5.0573 7.73575C5.0573 7.79309 5.03452 7.84808 4.99397 7.88863C4.95342 7.92918 4.89842 7.95196 4.84108 7.95196Z" fill="#7D4039"/>
<path d="M2.32094 8.96662H1.86148C1.80414 8.96662 1.74914 8.94384 1.70859 8.90329C1.66804 8.86274 1.64526 8.80774 1.64526 8.7504C1.64526 8.69305 1.66804 8.63806 1.70859 8.59751C1.74914 8.55696 1.80414 8.53418 1.86148 8.53418H2.32094C2.37828 8.53418 2.43328 8.55696 2.47383 8.59751C2.51437 8.63806 2.53715 8.69305 2.53715 8.7504C2.53715 8.80774 2.51437 8.86274 2.47383 8.90329C2.43328 8.94384 2.37828 8.96662 2.32094 8.96662Z" fill="#7D4039"/>
<path d="M3.58129 8.96662H3.12161C3.06427 8.96662 3.00927 8.94384 2.96872 8.90329C2.92818 8.86274 2.9054 8.80774 2.9054 8.7504C2.9054 8.69305 2.92818 8.63806 2.96872 8.59751C3.00927 8.55696 3.06427 8.53418 3.12161 8.53418H3.58129C3.63863 8.53418 3.69363 8.55696 3.73418 8.59751C3.77472 8.63806 3.7975 8.69305 3.7975 8.7504C3.7975 8.80774 3.77472 8.86274 3.73418 8.90329C3.69363 8.94384 3.63863 8.96662 3.58129 8.96662Z" fill="#7D4039"/>
<path d="M4.84108 8.96662H4.38162C4.32428 8.96662 4.26928 8.94384 4.22873 8.90329C4.18819 8.86274 4.16541 8.80774 4.16541 8.7504C4.16541 8.69305 4.18819 8.63806 4.22873 8.59751C4.26928 8.55696 4.32428 8.53418 4.38162 8.53418H4.84108C4.89842 8.53418 4.95342 8.55696 4.99397 8.59751C5.03452 8.63806 5.0573 8.69305 5.0573 8.7504C5.0573 8.80774 5.03452 8.86274 4.99397 8.90329C4.95342 8.94384 4.89842 8.96662 4.84108 8.96662Z" fill="#7D4039"/>
<path d="M2.32094 9.98114H1.86148C1.80414 9.98114 1.74914 9.95836 1.70859 9.91782C1.66804 9.87727 1.64526 9.82227 1.64526 9.76493C1.64526 9.70758 1.66804 9.65258 1.70859 9.61204C1.74914 9.57149 1.80414 9.54871 1.86148 9.54871H2.32094C2.37828 9.54871 2.43328 9.57149 2.47383 9.61204C2.51437 9.65258 2.53715 9.70758 2.53715 9.76493C2.53715 9.82227 2.51437 9.87727 2.47383 9.91782C2.43328 9.95836 2.37828 9.98114 2.32094 9.98114Z" fill="#7D4039"/>
<path d="M3.58129 9.98114H3.12161C3.06427 9.98114 3.00927 9.95836 2.96872 9.91782C2.92818 9.87727 2.9054 9.82227 2.9054 9.76493C2.9054 9.70758 2.92818 9.65258 2.96872 9.61204C3.00927 9.57149 3.06427 9.54871 3.12161 9.54871H3.58129C3.63863 9.54871 3.69363 9.57149 3.73418 9.61204C3.77472 9.65258 3.7975 9.70758 3.7975 9.76493C3.7975 9.82227 3.77472 9.87727 3.73418 9.91782C3.69363 9.95836 3.63863 9.98114 3.58129 9.98114Z" fill="#7D4039"/>
<path d="M4.84108 9.98114H4.38162C4.32428 9.98114 4.26928 9.95836 4.22873 9.91782C4.18819 9.87727 4.16541 9.82227 4.16541 9.76493C4.16541 9.70758 4.18819 9.65258 4.22873 9.61204C4.26928 9.57149 4.32428 9.54871 4.38162 9.54871H4.84108C4.89842 9.54871 4.95342 9.57149 4.99397 9.61204C5.03452 9.65258 5.0573 9.70758 5.0573 9.76493C5.0573 9.82227 5.03452 9.87727 4.99397 9.91782C4.95342 9.95836 4.89842 9.98114 4.84108 9.98114Z" fill="#7D4039"/>
<path d="M2.32094 10.996H1.86148C1.80414 10.996 1.74914 10.9733 1.70859 10.9327C1.66804 10.8922 1.64526 10.8372 1.64526 10.7798C1.64526 10.7225 1.66804 10.6675 1.70859 10.6269C1.74914 10.5864 1.80414 10.5636 1.86148 10.5636H2.32094C2.37828 10.5636 2.43328 10.5864 2.47383 10.6269C2.51437 10.6675 2.53715 10.7225 2.53715 10.7798C2.53715 10.8372 2.51437 10.8922 2.47383 10.9327C2.43328 10.9733 2.37828 10.996 2.32094 10.996Z" fill="#7D4039"/>
<path d="M3.58129 10.996H3.12161C3.06427 10.996 3.00927 10.9733 2.96872 10.9327C2.92818 10.8922 2.9054 10.8372 2.9054 10.7798C2.9054 10.7225 2.92818 10.6675 2.96872 10.6269C3.00927 10.5864 3.06427 10.5636 3.12161 10.5636H3.58129C3.63863 10.5636 3.69363 10.5864 3.73418 10.6269C3.77472 10.6675 3.7975 10.7225 3.7975 10.7798C3.7975 10.8372 3.77472 10.8922 3.73418 10.9327C3.69363 10.9733 3.63863 10.996 3.58129 10.996Z" fill="#7D4039"/>
<path d="M4.84108 10.996H4.38162C4.32428 10.996 4.26928 10.9733 4.22873 10.9327C4.18819 10.8922 4.16541 10.8372 4.16541 10.7798C4.16541 10.7225 4.18819 10.6675 4.22873 10.6269C4.26928 10.5864 4.32428 10.5636 4.38162 10.5636H4.84108C4.89842 10.5636 4.95342 10.5864 4.99397 10.6269C5.03452 10.6675 5.0573 10.7225 5.0573 10.7798C5.0573 10.8372 5.03452 10.8922 4.99397 10.9327C4.95342 10.9733 4.89842 10.996 4.84108 10.996Z" fill="#7D4039"/>
<path d="M2.32094 12.0106H1.86148C1.80414 12.0106 1.74914 11.9878 1.70859 11.9472C1.66804 11.9067 1.64526 11.8517 1.64526 11.7943C1.64526 11.737 1.66804 11.682 1.70859 11.6415C1.74914 11.6009 1.80414 11.5781 1.86148 11.5781H2.32094C2.37828 11.5781 2.43328 11.6009 2.47383 11.6415C2.51437 11.682 2.53715 11.737 2.53715 11.7943C2.53715 11.8517 2.51437 11.9067 2.47383 11.9472C2.43328 11.9878 2.37828 12.0106 2.32094 12.0106Z" fill="#7D4039"/>
<path d="M3.58129 12.0106H3.12161C3.06427 12.0106 3.00927 11.9878 2.96872 11.9472C2.92818 11.9067 2.9054 11.8517 2.9054 11.7943C2.9054 11.737 2.92818 11.682 2.96872 11.6415C3.00927 11.6009 3.06427 11.5781 3.12161 11.5781H3.58129C3.63863 11.5781 3.69363 11.6009 3.73418 11.6415C3.77472 11.682 3.7975 11.737 3.7975 11.7943C3.7975 11.8517 3.77472 11.9067 3.73418 11.9472C3.69363 11.9878 3.63863 12.0106 3.58129 12.0106Z" fill="#7D4039"/>
<path d="M4.84108 12.0106H4.38162C4.32428 12.0106 4.26928 11.9878 4.22873 11.9472C4.18819 11.9067 4.16541 11.8517 4.16541 11.7943C4.16541 11.737 4.18819 11.682 4.22873 11.6415C4.26928 11.6009 4.32428 11.5781 4.38162 11.5781H4.84108C4.89842 11.5781 4.95342 11.6009 4.99397 11.6415C5.03452 11.682 5.0573 11.737 5.0573 11.7943C5.0573 11.8517 5.03452 11.9067 4.99397 11.9472C4.95342 11.9878 4.89842 12.0106 4.84108 12.0106Z" fill="#7D4039"/>
<path d="M2.32094 13.0252H1.86148C1.80414 13.0252 1.74914 13.0024 1.70859 12.9619C1.66804 12.9213 1.64526 12.8663 1.64526 12.809C1.64526 12.7516 1.66804 12.6967 1.70859 12.6561C1.74914 12.6156 1.80414 12.5928 1.86148 12.5928H2.32094C2.37828 12.5928 2.43328 12.6156 2.47383 12.6561C2.51437 12.6967 2.53715 12.7516 2.53715 12.809C2.53715 12.8663 2.51437 12.9213 2.47383 12.9619C2.43328 13.0024 2.37828 13.0252 2.32094 13.0252Z" fill="#7D4039"/>
<path d="M3.58129 13.0252H3.12161C3.06427 13.0252 3.00927 13.0024 2.96872 12.9619C2.92818 12.9213 2.9054 12.8663 2.9054 12.809C2.9054 12.7516 2.92818 12.6967 2.96872 12.6561C3.00927 12.6156 3.06427 12.5928 3.12161 12.5928H3.58129C3.63863 12.5928 3.69363 12.6156 3.73418 12.6561C3.77472 12.6967 3.7975 12.7516 3.7975 12.809C3.7975 12.8663 3.77472 12.9213 3.73418 12.9619C3.69363 13.0024 3.63863 13.0252 3.58129 13.0252Z" fill="#7D4039"/>
<path d="M4.84108 13.0252H4.38162C4.32428 13.0252 4.26928 13.0024 4.22873 12.9619C4.18819 12.9213 4.16541 12.8663 4.16541 12.809C4.16541 12.7516 4.18819 12.6967 4.22873 12.6561C4.26928 12.6156 4.32428 12.5928 4.38162 12.5928H4.84108C4.89842 12.5928 4.95342 12.6156 4.99397 12.6561C5.03452 12.6967 5.0573 12.7516 5.0573 12.809C5.0573 12.8663 5.03452 12.9213 4.99397 12.9619C4.95342 13.0024 4.89842 13.0252 4.84108 13.0252Z" fill="#7D4039"/>
<path d="M7.32974 2.88706C7.2724 2.88706 7.2174 2.86428 7.17685 2.82374C7.1363 2.78319 7.11353 2.72819 7.11353 2.67085V2.26285C7.11353 2.2055 7.1363 2.15051 7.17685 2.10996C7.2174 2.06941 7.2724 2.04663 7.32974 2.04663C7.38708 2.04663 7.44208 2.06941 7.48263 2.10996C7.52317 2.15051 7.54595 2.2055 7.54595 2.26285V2.67085C7.54595 2.72819 7.52317 2.78319 7.48263 2.82374C7.44208 2.86428 7.38708 2.88706 7.32974 2.88706Z" fill="#7D4039"/>
<path d="M6.34378 3.13829C6.28643 3.13829 6.23144 3.11551 6.19089 3.07496C6.15034 3.03441 6.12756 2.97941 6.12756 2.92207V2.51407C6.12756 2.45672 6.15034 2.40173 6.19089 2.36118C6.23144 2.32063 6.28643 2.29785 6.34378 2.29785C6.40112 2.29785 6.45612 2.32063 6.49666 2.36118C6.53721 2.40173 6.55999 2.45672 6.55999 2.51407V2.92207C6.55999 2.97941 6.53721 3.03441 6.49666 3.07496C6.45612 3.11551 6.40112 3.13829 6.34378 3.13829Z" fill="#7D4039"/>
<path d="M7.32974 4.51316C7.2724 4.51316 7.2174 4.49038 7.17685 4.44983C7.1363 4.40928 7.11353 4.35429 7.11353 4.29694V3.88894C7.11353 3.8316 7.1363 3.77661 7.17685 3.73606C7.2174 3.69551 7.2724 3.67273 7.32974 3.67273C7.38708 3.67273 7.44208 3.69551 7.48263 3.73606C7.52317 3.77661 7.54595 3.8316 7.54595 3.88894V4.29694C7.54595 4.35429 7.52317 4.40928 7.48263 4.44983C7.44208 4.49038 7.38708 4.51316 7.32974 4.51316Z" fill="#7D4039"/>
<path d="M6.34378 4.76463C6.28643 4.76463 6.23144 4.74185 6.19089 4.7013C6.15034 4.66075 6.12756 4.60576 6.12756 4.54841V4.14041C6.12756 4.08307 6.15034 4.02807 6.19089 3.98752C6.23144 3.94697 6.28643 3.92419 6.34378 3.92419C6.40112 3.92419 6.45612 3.94697 6.49666 3.98752C6.53721 4.02807 6.55999 4.08307 6.55999 4.14041V4.54841C6.55999 4.60576 6.53721 4.66075 6.49666 4.7013C6.45612 4.74185 6.40112 4.76463 6.34378 4.76463Z" fill="#7D4039"/>
<path d="M7.32974 6.14037C7.2724 6.14037 7.2174 6.11759 7.17685 6.07704C7.1363 6.03649 7.11353 5.9815 7.11353 5.92415V5.51529C7.11353 5.45794 7.1363 5.40295 7.17685 5.3624C7.2174 5.32185 7.2724 5.29907 7.32974 5.29907C7.38708 5.29907 7.44208 5.32185 7.48263 5.3624C7.52317 5.40295 7.54595 5.45794 7.54595 5.51529V5.92415C7.54595 5.9815 7.52317 6.03649 7.48263 6.07704C7.44208 6.11759 7.38708 6.14037 7.32974 6.14037Z" fill="#7D4039"/>
<path d="M6.34378 6.39109C6.28643 6.39109 6.23144 6.36831 6.19089 6.32777C6.15034 6.28722 6.12756 6.23222 6.12756 6.17488V5.76688C6.12756 5.70953 6.15034 5.65454 6.19089 5.61399C6.23144 5.57344 6.28643 5.55066 6.34378 5.55066C6.40112 5.55066 6.45612 5.57344 6.49666 5.61399C6.53721 5.65454 6.55999 5.70953 6.55999 5.76688V6.17488C6.55999 6.23222 6.53721 6.28722 6.49666 6.32777C6.45612 6.36831 6.40112 6.39109 6.34378 6.39109Z" fill="#7D4039"/>
<path d="M7.32974 7.76597C7.2724 7.76597 7.2174 7.74319 7.17685 7.70264C7.1363 7.66209 7.11353 7.6071 7.11353 7.54975V7.14175C7.11353 7.08441 7.1363 7.02941 7.17685 6.98887C7.2174 6.94832 7.2724 6.92554 7.32974 6.92554C7.38708 6.92554 7.44208 6.94832 7.48263 6.98887C7.52317 7.02941 7.54595 7.08441 7.54595 7.14175V7.54975C7.54595 7.6071 7.52317 7.66209 7.48263 7.70264C7.44208 7.74319 7.38708 7.76597 7.32974 7.76597Z" fill="#7D4039"/>
<path d="M6.34378 8.01719C6.28643 8.01719 6.23144 7.99441 6.19089 7.95386C6.15034 7.91331 6.12756 7.85832 6.12756 7.80097V7.39297C6.12756 7.33563 6.15034 7.28063 6.19089 7.24009C6.23144 7.19954 6.28643 7.17676 6.34378 7.17676C6.40112 7.17676 6.45612 7.19954 6.49666 7.24009C6.53721 7.28063 6.55999 7.33563 6.55999 7.39297V7.80097C6.55999 7.85832 6.53721 7.91331 6.49666 7.95386C6.45612 7.99441 6.40112 8.01719 6.34378 8.01719Z" fill="#7D4039"/>
<path d="M7.32974 9.39206C7.2724 9.39206 7.2174 9.36928 7.17685 9.32873C7.1363 9.28819 7.11353 9.23319 7.11353 9.17585V8.76785C7.11353 8.71051 7.1363 8.65551 7.17685 8.61496C7.2174 8.57442 7.2724 8.55164 7.32974 8.55164C7.38708 8.55164 7.44208 8.57442 7.48263 8.61496C7.52317 8.65551 7.54595 8.71051 7.54595 8.76785V9.17585C7.54595 9.23319 7.52317 9.28819 7.48263 9.32873C7.44208 9.36928 7.38708 9.39206 7.32974 9.39206Z" fill="#7D4039"/>
<path d="M6.34378 9.64321C6.28643 9.64321 6.23144 9.62043 6.19089 9.57988C6.15034 9.53934 6.12756 9.48434 6.12756 9.427V9.01944C6.12756 8.96209 6.15034 8.9071 6.19089 8.86655C6.23144 8.826 6.28643 8.80322 6.34378 8.80322C6.40112 8.80322 6.45612 8.826 6.49666 8.86655C6.53721 8.9071 6.55999 8.96209 6.55999 9.01944V9.427C6.55999 9.48434 6.53721 9.53934 6.49666 9.57988C6.45612 9.62043 6.40112 9.64321 6.34378 9.64321Z" fill="#7D4039"/>
<path d="M7.32974 11.0185C7.2724 11.0185 7.2174 10.9957 7.17685 10.9552C7.1363 10.9147 7.11353 10.8597 7.11353 10.8023V10.3943C7.11353 10.337 7.1363 10.282 7.17685 10.2414C7.2174 10.2009 7.2724 10.1781 7.32974 10.1781C7.38708 10.1781 7.44208 10.2009 7.48263 10.2414C7.52317 10.282 7.54595 10.337 7.54595 10.3943V10.8023C7.54595 10.8597 7.52317 10.9147 7.48263 10.9552C7.44208 10.9957 7.38708 11.0185 7.32974 11.0185Z" fill="#7D4039"/>
<path d="M6.34378 11.27C6.28643 11.27 6.23144 11.2472 6.19089 11.2067C6.15034 11.1661 6.12756 11.1111 6.12756 11.0538V10.6458C6.12756 10.5884 6.15034 10.5334 6.19089 10.4929C6.23144 10.4523 6.28643 10.4296 6.34378 10.4296C6.40112 10.4296 6.45612 10.4523 6.49666 10.4929C6.53721 10.5334 6.55999 10.5884 6.55999 10.6458V11.0538C6.55999 11.1111 6.53721 11.1661 6.49666 11.2067C6.45612 11.2472 6.40112 11.27 6.34378 11.27Z" fill="#7D4039"/>
<path d="M7.32974 12.6448C7.2724 12.6448 7.2174 12.622 7.17685 12.5814C7.1363 12.5409 7.11353 12.4859 7.11353 12.4286V12.0216C7.11353 11.9643 7.1363 11.9093 7.17685 11.8687C7.2174 11.8282 7.2724 11.8054 7.32974 11.8054C7.38708 11.8054 7.44208 11.8282 7.48263 11.8687C7.52317 11.9093 7.54595 11.9643 7.54595 12.0216V12.4296C7.54567 12.4868 7.52276 12.5415 7.48225 12.5818C7.44173 12.6221 7.3869 12.6448 7.32974 12.6448Z" fill="#7D4039"/>
<path d="M6.34378 12.8963C6.28643 12.8963 6.23144 12.8735 6.19089 12.833C6.15034 12.7924 6.12756 12.7374 6.12756 12.6801V12.2719C6.12756 12.2145 6.15034 12.1595 6.19089 12.119C6.23144 12.0784 6.28643 12.0557 6.34378 12.0557C6.40112 12.0557 6.45612 12.0784 6.49667 12.119C6.53721 12.1595 6.55999 12.2145 6.55999 12.2719V12.6799C6.56002 12.7083 6.55445 12.7364 6.5436 12.7627C6.53274 12.789 6.51682 12.8128 6.49674 12.8329C6.47666 12.853 6.45282 12.869 6.42657 12.8798C6.40032 12.8907 6.37219 12.8963 6.34378 12.8963Z" fill="#7D4039"/>
<path d="M8.82157 2.68107C8.76422 2.68107 8.70922 2.65829 8.66868 2.61774C8.62813 2.57719 8.60535 2.52219 8.60535 2.46485V2.05728C8.60535 1.99994 8.62813 1.94494 8.66868 1.90439C8.70922 1.86384 8.76422 1.84106 8.82157 1.84106C8.87891 1.84106 8.93391 1.86384 8.97446 1.90439C9.015 1.94494 9.03778 1.99994 9.03778 2.05728V2.46485C9.03778 2.52219 9.015 2.57719 8.97446 2.61774C8.93391 2.65829 8.87891 2.68107 8.82157 2.68107Z" fill="#7D4039"/>
<path d="M9.55167 2.95679C9.49432 2.95679 9.43933 2.93401 9.39878 2.89347C9.35823 2.85292 9.33545 2.79792 9.33545 2.74058V2.33279C9.33545 2.27545 9.35823 2.22045 9.39878 2.17991C9.43933 2.13936 9.49432 2.11658 9.55167 2.11658C9.60901 2.11658 9.66401 2.13936 9.70456 2.17991C9.74511 2.22045 9.76789 2.27545 9.76789 2.33279V2.74079C9.76783 2.7981 9.74503 2.85304 9.70448 2.89354C9.66394 2.93404 9.60898 2.95679 9.55167 2.95679Z" fill="#7D4039"/>
<path d="M10.2814 3.23231C10.2241 3.23231 10.1691 3.20953 10.1285 3.16898C10.088 3.12843 10.0652 3.07343 10.0652 3.01609V2.60831C10.0652 2.55096 10.088 2.49597 10.1285 2.45542C10.1691 2.41487 10.2241 2.39209 10.2814 2.39209C10.3387 2.39209 10.3937 2.41487 10.4343 2.45542C10.4748 2.49597 10.4976 2.55096 10.4976 2.60831V3.01631C10.4976 3.07361 10.4748 3.12855 10.4342 3.16905C10.3937 3.20956 10.3387 3.23231 10.2814 3.23231Z" fill="#7D4039"/>
<path d="M8.82157 4.30275C8.76422 4.30275 8.70922 4.27997 8.66868 4.23942C8.62813 4.19888 8.60535 4.14388 8.60535 4.08654V3.67789C8.60535 3.62054 8.62813 3.56555 8.66868 3.525C8.70922 3.48445 8.76422 3.46167 8.82157 3.46167C8.87891 3.46167 8.93391 3.48445 8.97446 3.525C9.015 3.56555 9.03778 3.62054 9.03778 3.67789V4.08654C9.03778 4.14388 9.015 4.19888 8.97446 4.23942C8.93391 4.27997 8.87891 4.30275 8.82157 4.30275Z" fill="#7D4039"/>
<path d="M9.55167 4.5774C9.49432 4.5774 9.43933 4.55462 9.39878 4.51407C9.35823 4.47352 9.33545 4.41853 9.33545 4.36118V3.9534C9.33545 3.89605 9.35823 3.84106 9.39878 3.80051C9.43933 3.75996 9.49432 3.73718 9.55167 3.73718C9.60901 3.73718 9.66401 3.75996 9.70456 3.80051C9.74511 3.84106 9.76789 3.89605 9.76789 3.9534V4.36118C9.76789 4.41853 9.74511 4.47352 9.70456 4.51407C9.66401 4.55462 9.60901 4.5774 9.55167 4.5774Z" fill="#7D4039"/>
<path d="M10.2814 4.85279C10.2241 4.85279 10.1691 4.83001 10.1285 4.78946C10.088 4.74891 10.0652 4.69392 10.0652 4.63657V4.22879C10.0652 4.17145 10.088 4.11645 10.1285 4.0759C10.1691 4.03535 10.2241 4.01257 10.2814 4.01257C10.3387 4.01257 10.3937 4.03535 10.4343 4.0759C10.4748 4.11645 10.4976 4.17145 10.4976 4.22879V4.63679C10.4976 4.6941 10.4748 4.74904 10.4342 4.78954C10.3937 4.83004 10.3387 4.85279 10.2814 4.85279Z" fill="#7D4039"/>
<path d="M8.82156 5.92245C8.76422 5.92245 8.70922 5.89967 8.66868 5.85912C8.62813 5.81857 8.60535 5.76357 8.60535 5.70623V5.29715C8.60535 5.2398 8.62813 5.18481 8.66868 5.14426C8.70922 5.10371 8.76422 5.08093 8.82156 5.08093C8.87891 5.08093 8.9339 5.10371 8.97445 5.14426C9.015 5.18481 9.03778 5.2398 9.03778 5.29715V5.70515C9.03792 5.73363 9.03244 5.76187 9.02163 5.78822C9.01083 5.81458 8.99493 5.83854 8.97484 5.85874C8.95474 5.87893 8.93086 5.89495 8.90456 5.90588C8.87825 5.91682 8.85005 5.92245 8.82156 5.92245Z" fill="#7D4039"/>
<path d="M9.55167 6.1981C9.49432 6.1981 9.43933 6.17532 9.39878 6.13477C9.35823 6.09422 9.33545 6.03923 9.33545 5.98188V5.57388C9.33545 5.51654 9.35823 5.46154 9.39878 5.42099C9.43933 5.38045 9.49432 5.35767 9.55167 5.35767C9.60901 5.35767 9.66401 5.38045 9.70456 5.42099C9.74511 5.46154 9.76789 5.51654 9.76789 5.57388V5.98188C9.76789 6.03923 9.74511 6.09422 9.70456 6.13477C9.66401 6.17532 9.60901 6.1981 9.55167 6.1981Z" fill="#7D4039"/>
<path d="M10.2814 6.47339C10.2241 6.47339 10.1691 6.45062 10.1285 6.41007C10.088 6.36952 10.0652 6.31452 10.0652 6.25718V5.84939C10.0652 5.79205 10.088 5.73706 10.1285 5.69651C10.1691 5.65596 10.2241 5.63318 10.2814 5.63318C10.3387 5.63318 10.3937 5.65596 10.4343 5.69651C10.4748 5.73706 10.4976 5.79205 10.4976 5.84939V6.2574C10.4976 6.3147 10.4748 6.36964 10.4342 6.41014C10.3937 6.45064 10.3387 6.47339 10.2814 6.47339Z" fill="#7D4039"/>
<path d="M8.82157 7.54319C8.76422 7.54319 8.70922 7.52041 8.66868 7.47986C8.62813 7.43932 8.60535 7.38432 8.60535 7.32698V6.91898C8.60535 6.86163 8.62813 6.80664 8.66868 6.76609C8.70922 6.72554 8.76422 6.70276 8.82157 6.70276C8.87891 6.70276 8.93391 6.72554 8.97446 6.76609C9.015 6.80664 9.03778 6.86163 9.03778 6.91898V7.32698C9.03778 7.38432 9.015 7.43932 8.97446 7.47986C8.93391 7.52041 8.87891 7.54319 8.82157 7.54319Z" fill="#7D4039"/>
<path d="M9.55167 7.81871C9.49432 7.81871 9.43933 7.79593 9.39878 7.75538C9.35823 7.71483 9.33545 7.65983 9.33545 7.60249V7.19449C9.33545 7.13714 9.35823 7.08215 9.39878 7.0416C9.43933 7.00105 9.49432 6.97827 9.55167 6.97827C9.60901 6.97827 9.66401 7.00105 9.70456 7.0416C9.74511 7.08215 9.76789 7.13714 9.76789 7.19449V7.60249C9.76789 7.65983 9.74511 7.71483 9.70456 7.75538C9.66401 7.79593 9.60901 7.81871 9.55167 7.81871Z" fill="#7D4039"/>
<path d="M10.2814 8.09385C10.2241 8.09385 10.1691 8.07107 10.1285 8.03052C10.088 7.98997 10.0652 7.93498 10.0652 7.87764V7.46963C10.0652 7.41229 10.088 7.35729 10.1285 7.31675C10.1691 7.2762 10.2241 7.25342 10.2814 7.25342C10.3387 7.25342 10.3937 7.2762 10.4343 7.31675C10.4748 7.35729 10.4976 7.41229 10.4976 7.46963V7.87764C10.4976 7.93498 10.4748 7.98997 10.4343 8.03052C10.3937 8.07107 10.3387 8.09385 10.2814 8.09385Z" fill="#7D4039"/>
<path d="M8.82157 9.16369C8.76422 9.16369 8.70922 9.14091 8.66868 9.10036C8.62813 9.05981 8.60535 9.00481 8.60535 8.94747V8.54056C8.60535 8.48321 8.62813 8.42822 8.66868 8.38767C8.70922 8.34712 8.76422 8.32434 8.82157 8.32434C8.87891 8.32434 8.93391 8.34712 8.97446 8.38767C9.015 8.42822 9.03778 8.48321 9.03778 8.54056V8.94855C9.0375 9.00571 9.01459 9.06043 8.97407 9.10074C8.93356 9.14106 8.87872 9.16369 8.82157 9.16369Z" fill="#7D4039"/>
<path d="M9.55167 9.43906C9.49432 9.43906 9.43933 9.41628 9.39878 9.37573C9.35823 9.33518 9.33545 9.28019 9.33545 9.22284V8.81485C9.33545 8.7575 9.35823 8.70251 9.39878 8.66196C9.43933 8.62141 9.49432 8.59863 9.55167 8.59863C9.60901 8.59863 9.66401 8.62141 9.70456 8.66196C9.74511 8.70251 9.76789 8.7575 9.76789 8.81485V9.22284C9.76789 9.28019 9.74511 9.33518 9.70456 9.37573C9.66401 9.41628 9.60901 9.43906 9.55167 9.43906Z" fill="#7D4039"/>
<path d="M10.2814 9.71445C10.2241 9.71445 10.1691 9.69167 10.1285 9.65112C10.088 9.61057 10.0652 9.55558 10.0652 9.49823V9.09024C10.0652 9.03289 10.088 8.9779 10.1285 8.93735C10.1691 8.8968 10.2241 8.87402 10.2814 8.87402C10.3387 8.87402 10.3937 8.8968 10.4343 8.93735C10.4748 8.9779 10.4976 9.03289 10.4976 9.09024V9.49823C10.4976 9.55558 10.4748 9.61057 10.4343 9.65112C10.3937 9.69167 10.3387 9.71445 10.2814 9.71445Z" fill="#7D4039"/>
<path d="M8.82157 10.7842C8.76422 10.7842 8.70922 10.7614 8.66868 10.7208C8.62813 10.6803 8.60535 10.6253 8.60535 10.5679V10.1599C8.60535 10.1026 8.62813 10.0476 8.66868 10.0071C8.70922 9.96651 8.76422 9.94373 8.82157 9.94373C8.87891 9.94373 8.93391 9.96651 8.97446 10.0071C9.015 10.0476 9.03778 10.1026 9.03778 10.1599V10.5679C9.03778 10.6253 9.015 10.6803 8.97446 10.7208C8.93391 10.7614 8.87891 10.7842 8.82157 10.7842Z" fill="#7D4039"/>
<path d="M9.55167 11.0595C9.49432 11.0595 9.43933 11.0368 9.39878 10.9962C9.35823 10.9557 9.33545 10.9007 9.33545 10.8433V10.4353C9.33545 10.378 9.35823 10.323 9.39878 10.2824C9.43933 10.2419 9.49432 10.2191 9.55167 10.2191C9.60901 10.2191 9.66401 10.2419 9.70456 10.2824C9.74511 10.323 9.76789 10.378 9.76789 10.4353V10.8433C9.76789 10.9007 9.74511 10.9557 9.70456 10.9962C9.66401 11.0368 9.60901 11.0595 9.55167 11.0595Z" fill="#7D4039"/>
<path d="M10.2814 11.3351C10.2241 11.3351 10.1691 11.3123 10.1285 11.2717C10.088 11.2312 10.0652 11.1762 10.0652 11.1188V10.7108C10.0652 10.6535 10.088 10.5985 10.1285 10.558C10.1691 10.5174 10.2241 10.4946 10.2814 10.4946C10.3387 10.4946 10.3937 10.5174 10.4343 10.558C10.4748 10.5985 10.4976 10.6535 10.4976 10.7108V11.1188C10.4976 11.1762 10.4748 11.2312 10.4343 11.2717C10.3937 11.3123 10.3387 11.3351 10.2814 11.3351Z" fill="#7D4039"/>
<path d="M8.82157 12.4046C8.76422 12.4046 8.70922 12.3819 8.66868 12.3413C8.62813 12.3008 8.60535 12.2458 8.60535 12.1884V11.7804C8.60535 11.7231 8.62813 11.6681 8.66868 11.6275C8.70922 11.587 8.76422 11.5642 8.82157 11.5642C8.87891 11.5642 8.93391 11.587 8.97446 11.6275C9.015 11.6681 9.03778 11.7231 9.03778 11.7804V12.1884C9.03778 12.2458 9.015 12.3008 8.97446 12.3413C8.93391 12.3819 8.87891 12.4046 8.82157 12.4046Z" fill="#7D4039"/>
<path d="M9.55167 12.6801C9.49432 12.6801 9.43933 12.6574 9.39878 12.6168C9.35823 12.5763 9.33545 12.5213 9.33545 12.4639V12.0559C9.33545 11.9986 9.35823 11.9436 9.39878 11.903C9.43933 11.8625 9.49432 11.8397 9.55167 11.8397C9.60901 11.8397 9.66401 11.8625 9.70456 11.903C9.74511 11.9436 9.76789 11.9986 9.76789 12.0559V12.4639C9.76789 12.5213 9.74511 12.5763 9.70456 12.6168C9.66401 12.6574 9.60901 12.6801 9.55167 12.6801Z" fill="#7D4039"/>
<path d="M10.2814 12.9557C10.2241 12.9557 10.1691 12.9329 10.1285 12.8923C10.088 12.8518 10.0652 12.7968 10.0652 12.7394V12.3314C10.0652 12.2741 10.088 12.2191 10.1285 12.1786C10.1691 12.138 10.2241 12.1152 10.2814 12.1152C10.3387 12.1152 10.3937 12.138 10.4343 12.1786C10.4748 12.2191 10.4976 12.2741 10.4976 12.3314V12.7394C10.4976 12.7968 10.4748 12.8518 10.4343 12.8923C10.3937 12.9329 10.3387 12.9557 10.2814 12.9557Z" fill="#7D4039"/>
<path d="M13.0161 7.27579C12.9588 7.27579 12.9038 7.25301 12.8633 7.21246C12.8227 7.17191 12.7999 7.11691 12.7999 7.05957V6.84097C12.7999 6.78363 12.8227 6.72863 12.8633 6.68808C12.9038 6.64754 12.9588 6.62476 13.0161 6.62476C13.0735 6.62476 13.1285 6.64754 13.169 6.68808C13.2096 6.72863 13.2324 6.78363 13.2324 6.84097V7.05957C13.2324 7.11691 13.2096 7.17191 13.169 7.21246C13.1285 7.25301 13.0735 7.27579 13.0161 7.27579Z" fill="#7D4039"/>
<path d="M13.7449 7.73355C13.6876 7.73355 13.6326 7.71077 13.592 7.67022C13.5515 7.62967 13.5287 7.57468 13.5287 7.51733V7.29874C13.5287 7.24139 13.5515 7.1864 13.592 7.14585C13.6326 7.1053 13.6876 7.08252 13.7449 7.08252C13.8022 7.08252 13.8572 7.1053 13.8978 7.14585C13.9383 7.1864 13.9611 7.24139 13.9611 7.29874V7.51733C13.9611 7.57468 13.9383 7.62967 13.8978 7.67022C13.8572 7.71077 13.8022 7.73355 13.7449 7.73355Z" fill="#7D4039"/>
<path d="M13.0161 8.34332C12.9588 8.34332 12.9038 8.32054 12.8633 8.27999C12.8227 8.23944 12.7999 8.18445 12.7999 8.1271V7.90872C12.7999 7.85138 12.8227 7.79638 12.8633 7.75583C12.9038 7.71528 12.9588 7.6925 13.0161 7.6925C13.0735 7.6925 13.1285 7.71528 13.169 7.75583C13.2096 7.79638 13.2324 7.85138 13.2324 7.90872V8.12732C13.2323 8.18462 13.2095 8.23956 13.169 8.28007C13.1284 8.32057 13.0735 8.34332 13.0161 8.34332Z" fill="#7D4039"/>
<path d="M13.7449 8.80143C13.6876 8.80143 13.6326 8.77865 13.592 8.7381C13.5515 8.69756 13.5287 8.64256 13.5287 8.58522V8.3677C13.5287 8.31036 13.5515 8.25537 13.592 8.21482C13.6326 8.17427 13.6876 8.15149 13.7449 8.15149C13.8022 8.15149 13.8572 8.17427 13.8978 8.21482C13.9383 8.25537 13.9611 8.31036 13.9611 8.3677V8.5863C13.9608 8.64345 13.9379 8.69817 13.8974 8.73849C13.8569 8.7788 13.8021 8.80143 13.7449 8.80143Z" fill="#7D4039"/>
<path d="M13.0161 9.41115C12.9588 9.41115 12.9038 9.38837 12.8633 9.34783C12.8227 9.30728 12.7999 9.25228 12.7999 9.19494V8.97635C12.7999 8.919 12.8227 8.86401 12.8633 8.82346C12.9038 8.78291 12.9588 8.76013 13.0161 8.76013C13.0735 8.76013 13.1285 8.78291 13.169 8.82346C13.2096 8.86401 13.2324 8.919 13.2324 8.97635V9.19494C13.2324 9.25228 13.2096 9.30728 13.169 9.34783C13.1285 9.38837 13.0735 9.41115 13.0161 9.41115Z" fill="#7D4039"/>
<path d="M13.7449 9.86916C13.6876 9.86916 13.6326 9.84638 13.592 9.80583C13.5515 9.76529 13.5287 9.71029 13.5287 9.65295V9.43435C13.5287 9.37701 13.5515 9.32202 13.592 9.28147C13.6326 9.24092 13.6876 9.21814 13.7449 9.21814C13.8022 9.21814 13.8572 9.24092 13.8978 9.28147C13.9383 9.32202 13.9611 9.37701 13.9611 9.43435V9.65295C13.9611 9.71029 13.9383 9.76529 13.8978 9.80583C13.8572 9.84638 13.8022 9.86916 13.7449 9.86916Z" fill="#7D4039"/>
<path d="M13.0161 10.4791C12.9588 10.4791 12.9038 10.4564 12.8633 10.4158C12.8227 10.3753 12.7999 10.3203 12.7999 10.2629V10.0443C12.7999 9.987 12.8227 9.932 12.8633 9.89145C12.9038 9.8509 12.9588 9.82812 13.0161 9.82812C13.0735 9.82812 13.1285 9.8509 13.169 9.89145C13.2096 9.932 13.2324 9.987 13.2324 10.0443V10.2629C13.2324 10.3203 13.2096 10.3753 13.169 10.4158C13.1285 10.4564 13.0735 10.4791 13.0161 10.4791Z" fill="#7D4039"/>
<path d="M13.7449 10.9369C13.6876 10.9369 13.6326 10.9141 13.592 10.8736C13.5515 10.833 13.5287 10.778 13.5287 10.7207V10.5021C13.5287 10.4448 13.5515 10.3898 13.592 10.3492C13.6326 10.3087 13.6876 10.2859 13.7449 10.2859C13.8022 10.2859 13.8572 10.3087 13.8978 10.3492C13.9383 10.3898 13.9611 10.4448 13.9611 10.5021V10.7207C13.9611 10.778 13.9383 10.833 13.8978 10.8736C13.8572 10.9141 13.8022 10.9369 13.7449 10.9369Z" fill="#7D4039"/>
<path d="M13.0161 11.5459C12.9588 11.5459 12.9038 11.5231 12.8633 11.4826C12.8227 11.442 12.7999 11.387 12.7999 11.3297V11.112C12.7999 11.0546 12.8227 10.9996 12.8633 10.9591C12.9038 10.9185 12.9588 10.8958 13.0161 10.8958C13.0735 10.8958 13.1285 10.9185 13.169 10.9591C13.2096 10.9996 13.2324 11.0546 13.2324 11.112V11.3297C13.2324 11.387 13.2096 11.442 13.169 11.4826C13.1285 11.5231 13.0735 11.5459 13.0161 11.5459Z" fill="#7D4039"/>
<path d="M13.7449 12.0049C13.6876 12.0049 13.6326 11.9821 13.592 11.9416C13.5515 11.901 13.5287 11.846 13.5287 11.7887V11.5701C13.5287 11.5128 13.5515 11.4578 13.592 11.4172C13.6326 11.3767 13.6876 11.3539 13.7449 11.3539C13.8022 11.3539 13.8572 11.3767 13.8978 11.4172C13.9383 11.4578 13.9611 11.5128 13.9611 11.5701V11.7887C13.9611 11.846 13.9383 11.901 13.8978 11.9416C13.8572 11.9821 13.8022 12.0049 13.7449 12.0049Z" fill="#7D4039"/>
<path d="M13.0161 12.6148C12.9588 12.6148 12.9038 12.592 12.8633 12.5514C12.8227 12.5109 12.7999 12.4559 12.7999 12.3986V12.18C12.7999 12.1226 12.8227 12.0676 12.8633 12.0271C12.9038 11.9865 12.9588 11.9637 13.0161 11.9637C13.0735 11.9637 13.1285 11.9865 13.169 12.0271C13.2096 12.0676 13.2324 12.1226 13.2324 12.18V12.3986C13.2324 12.4559 13.2096 12.5109 13.169 12.5514C13.1285 12.592 13.0735 12.6148 13.0161 12.6148Z" fill="#7D4039"/>
<path d="M13.7449 13.0725C13.6876 13.0725 13.6326 13.0498 13.592 13.0092C13.5515 12.9687 13.5287 12.9137 13.5287 12.8563V12.6377C13.5287 12.5804 13.5515 12.5254 13.592 12.4848C13.6326 12.4443 13.6876 12.4215 13.7449 12.4215C13.8022 12.4215 13.8572 12.4443 13.8978 12.4848C13.9383 12.5254 13.9611 12.5804 13.9611 12.6377V12.8563C13.9611 12.9137 13.9383 12.9687 13.8978 13.0092C13.8572 13.0498 13.8022 13.0725 13.7449 13.0725Z" fill="#7D4039"/>
<path d="M15.1852 13.852H0.482452C0.425107 13.852 0.370112 13.8292 0.329564 13.7887C0.289015 13.7481 0.266235 13.6931 0.266235 13.6358C0.266235 13.5784 0.289015 13.5234 0.329564 13.4829C0.370112 13.4423 0.425107 13.4196 0.482452 13.4196H15.1852C15.2425 13.4196 15.2975 13.4423 15.338 13.4829C15.3786 13.5234 15.4014 13.5784 15.4014 13.6358C15.4014 13.6931 15.3786 13.7481 15.338 13.7887C15.2975 13.8292 15.2425 13.852 15.1852 13.852Z" fill="#7D4039"/>
</svg>
