<svg width="36" height="36" viewBox="0 0 36 36" fill="none" xmlns="http://www.w3.org/2000/svg">
<path d="M34.046 24.976C32.786 24.946 31.2 24.872 30.198 24.696C29.114 24.504 27.81 24.132 26.892 23.846C26.172 23.622 25.388 23.82 24.854 24.352L20.42 28.76C17.356 27.146 14.902 25.266 12.824 23.176C10.734 21.098 8.854 18.644 7.24 15.58L11.648 11.144C12.18 10.61 12.378 9.826 12.154 9.106C11.87 8.19 11.496 6.886 11.306 5.802C11.128 4.8 11.056 3.214 11.024 1.954C10.998 0.864 10.11 0 9.02 0H2C1.124 0 0 0.656 0 2C0 11.078 3.68 19.748 9.932 26.068C16.252 32.32 24.922 36 34 36C35.344 36 36 34.876 36 34V26.98C36 25.89 35.136 25.002 34.046 24.976Z" fill="#7D4039"/>
</svg>
