<svg width="43" height="42" viewBox="0 0 43 42" fill="none" xmlns="http://www.w3.org/2000/svg">
<g clip-path="url(#clip0)" filter="url(#filter0_d)">
<path d="M15.8693 14.7422H26.4706C27.0466 14.7422 27.5803 14.4845 27.935 14.0351C28.2896 13.5857 28.413 13.0106 28.2737 12.4572L27.482 9.31361C27.1025 7.80698 25.9654 6.65198 24.5321 6.20361C24.9574 5.57069 25.206 4.81166 25.206 3.99606C25.206 1.79264 23.3954 0 21.17 0C18.9445 0 17.1339 1.79264 17.1339 3.99613C17.1339 4.81173 17.3825 5.57069 17.8079 6.20367C16.3745 6.65205 15.2374 7.80705 14.858 9.31368L14.0663 12.4573C13.9269 13.0106 14.0504 13.5857 14.405 14.0352C14.7596 14.4846 15.2933 14.7422 15.8693 14.7422ZM21.17 1.99219C22.286 1.99219 23.1939 2.89113 23.1939 3.99613C23.1939 5.10106 22.286 6 21.17 6C20.054 6 19.1461 5.10106 19.1461 3.99613C19.1461 2.89113 20.054 1.99219 21.17 1.99219ZM16.8103 9.79559C17.0777 8.73375 18.0364 7.99219 19.1416 7.99219H23.1983C24.3036 7.99219 25.2622 8.73375 25.5296 9.79559L26.2737 12.75H16.0663L16.8103 9.79559Z" fill="black"/>
<path d="M38.3147 10.1053C38.3111 8.58819 37.1627 7.29626 35.6434 7.10009C34.7682 6.98681 33.8857 7.25296 33.2223 7.82957C32.559 8.40631 32.1786 9.23824 32.1786 10.1122L32.1787 14.9526C32.1154 14.9486 32.0517 14.9467 31.9878 14.9467C31.1934 14.9467 30.4466 15.2529 29.8849 15.8091L27.2475 18.4203C27.2218 18.4457 27.186 18.4578 27.1501 18.4539C27.1318 18.4518 27.1136 18.4503 27.0952 18.4492L25.9124 18.3792C24.9304 18.2763 23.9681 18.6127 23.2686 19.3052L21.6374 20.9204C21.4675 21.0884 21.3121 21.2669 21.1701 21.4534C21.0281 21.2668 20.8726 21.0884 20.7028 20.9204L19.0715 19.3052C18.372 18.6127 17.4101 18.2764 16.4278 18.3792L15.245 18.4492C15.2266 18.4503 15.2083 18.4518 15.1901 18.4539C15.1535 18.458 15.1184 18.4457 15.0926 18.4204L12.4552 15.8091C11.8935 15.2529 11.1468 14.9467 10.3524 14.9467C10.2885 14.9467 10.2247 14.9486 10.1615 14.9526L10.1616 10.1122C10.1616 9.23824 9.7812 8.40631 9.11781 7.82957C8.45449 7.25283 7.57204 6.98674 6.69671 7.10009C5.17736 7.29626 4.02899 8.58819 4.02543 10.1053L4.00001 21.0845C3.9974 22.2296 4.46494 23.3508 5.28273 24.1605L11.7131 30.5272V32.34C11.7131 33.2554 12.4653 34.0001 13.3899 34.0001H20.4993C20.7377 34.0001 20.9644 33.9503 21.17 33.8611C21.3756 33.9503 21.6023 34.0001 21.8407 34.0001H28.9502C29.8747 34.0001 30.6269 33.2554 30.6269 32.34V30.5272L37.0573 24.1605C37.8751 23.3508 38.3426 22.2296 38.34 21.0845L38.3147 10.1053ZM35.6345 22.7518L28.9095 29.4103C28.7209 29.5971 28.6148 29.8504 28.6148 30.1146V32.0079H22.1761V24.4422C22.1761 23.6439 22.49 22.8936 23.0601 22.3292L24.6913 20.7141C24.9612 20.447 25.3333 20.3183 25.7122 20.3617C25.7305 20.3637 25.7488 20.3654 25.7673 20.3665L26.952 20.4365C27.5907 20.5004 28.2153 20.2795 28.6703 19.8292L31.3078 17.2179C31.6828 16.8467 32.2929 16.8466 32.6679 17.2179C33.0429 17.5892 33.0429 18.1933 32.6679 18.5646L28.9096 22.2857C28.5167 22.6747 28.5167 23.3054 28.9096 23.6944C29.3024 24.0834 29.9395 24.0834 30.3324 23.6944L34.0907 19.9733C34.6524 19.4171 34.9617 18.6777 34.9617 17.8912C34.9617 17.1528 34.6891 16.4559 34.1909 15.9132L34.1908 10.1123C34.1908 9.80708 34.3184 9.52811 34.55 9.32676C34.7817 9.12535 35.0775 9.03643 35.3833 9.07568C35.9062 9.14322 36.3014 9.58787 36.3027 10.11L36.3279 21.089C36.3293 21.7081 36.0766 22.3142 35.6345 22.7518ZM6.70556 22.7518C6.2635 22.3141 6.01078 21.708 6.01219 21.089L6.03754 10.1099C6.03875 9.58774 6.43399 9.14302 6.95687 9.07555C7.26265 9.03623 7.55849 9.12522 7.79015 9.32663C8.02182 9.52797 8.14932 9.80695 8.14932 10.1122L8.14925 15.9131C7.65105 16.4557 7.37841 17.1527 7.37841 17.891C7.37841 18.6776 7.68774 19.417 8.24945 19.9731L12.0078 23.6943C12.4006 24.0832 13.0377 24.0832 13.4306 23.6943C13.8235 23.3053 13.8235 22.6746 13.4306 22.2856L9.67215 18.5645C9.29716 18.1932 9.29716 17.5892 9.67215 17.2178C10.0472 16.8466 10.6573 16.8467 11.0323 17.2178L13.6698 19.8292C14.1247 20.2795 14.7492 20.5004 15.3881 20.4365L16.5728 20.3665C16.5912 20.3653 16.6096 20.3637 16.6279 20.3617C17.0066 20.3187 17.3789 20.447 17.6487 20.714L19.28 22.3292C19.8501 22.8936 20.164 23.644 20.164 24.4422V32.0079H13.7252V30.1146C13.7252 29.8503 13.6192 29.597 13.4305 29.4103L6.70556 22.7518Z" fill="black"/>
</g>
<defs>
<filter id="filter0_d" x="0" y="0" width="42.34" height="42" filterUnits="userSpaceOnUse" color-interpolation-filters="sRGB">
<feFlood flood-opacity="0" result="BackgroundImageFix"/>
<feColorMatrix in="SourceAlpha" type="matrix" values="0 0 0 0 0 0 0 0 0 0 0 0 0 0 0 0 0 0 127 0" result="hardAlpha"/>
<feOffset dy="4"/>
<feGaussianBlur stdDeviation="2"/>
<feColorMatrix type="matrix" values="0 0 0 0 0 0 0 0 0 0 0 0 0 0 0 0 0 0 0.25 0"/>
<feBlend mode="normal" in2="BackgroundImageFix" result="effect1_dropShadow"/>
<feBlend mode="normal" in="SourceGraphic" in2="effect1_dropShadow" result="shape"/>
</filter>
<clipPath id="clip0">
<rect width="34.34" height="34" fill="white" transform="translate(4)"/>
</clipPath>
</defs>
</svg>
