<svg width="49" height="48" viewBox="0 0 49 48" fill="none" xmlns="http://www.w3.org/2000/svg">
<g filter="url(#filter0_d)">
<path d="M43.7507 19.1235C43.6608 19.0078 41.5089 16.2595 38.024 13.487C28.7443 6.10402 19.6709 5.80782 10.0189 13.487C6.53407 16.2595 4.38215 19.0078 4.29229 19.1235C3.90257 19.6248 3.90257 20.3756 4.29229 20.877C4.38215 20.9926 6.53407 23.741 10.019 26.5135C19.2986 33.8964 28.3721 34.1926 38.0241 26.5135C41.509 23.741 43.6608 20.9925 43.7508 20.877C44.1404 20.3756 44.1404 19.6248 43.7507 19.1235ZM32.5421 20.0002C32.5421 25.2881 28.6884 29.5276 24.0215 29.5276C19.3469 29.5276 15.501 25.2792 15.501 20.0002C15.501 14.7124 19.3546 10.4728 24.0215 10.4728C28.6961 10.4728 32.5421 14.7212 32.5421 20.0002ZM6.7956 20.0002C9.11152 17.3814 12.0093 14.8899 15.0408 13.1488C12.5492 17.2402 12.5009 22.681 15.0408 26.8516C11.9942 25.1019 9.09768 22.6031 6.7956 20.0002V20.0002ZM33.0021 26.8516C35.4937 22.7603 35.5419 17.3195 33.0021 13.1488C36.0487 14.8986 38.9452 17.3974 41.2473 20.0002C38.9363 22.6132 36.0397 25.1071 33.0021 26.8516Z" fill="black"/>
<path d="M25.1948 18.6728H25.882L24.0216 20.7779L22.5029 19.0594C22.0452 18.5413 21.3018 18.541 20.8439 19.0594L18.5177 21.6916C18.0595 22.2101 18.0595 23.0505 18.5177 23.5689C18.9758 24.0874 19.7186 24.0873 20.1767 23.5689L21.6734 21.8754L23.1922 23.5938C23.6504 24.1122 24.3931 24.1122 24.8512 23.5938L27.541 20.5501V20.8853C27.541 21.6184 28.0663 22.2127 28.7142 22.2127C29.3621 22.2127 29.8873 21.6184 29.8873 20.8853V17.3454C29.8873 16.6123 29.3621 16.0179 28.7142 16.0179H25.1948C24.5469 16.0179 24.0216 16.6123 24.0216 17.3454C24.0216 18.0785 24.5469 18.6728 25.1948 18.6728V18.6728Z" fill="black"/>
<path d="M24.0215 5.3098C24.6694 5.3098 25.1947 4.71546 25.1947 3.98235V1.32745C25.1947 0.594344 24.6694 0 24.0215 0C23.3736 0 22.8484 0.594344 22.8484 1.32745V3.98235C22.8484 4.71546 23.3736 5.3098 24.0215 5.3098Z" fill="black"/>
<path d="M31.6857 7.6334C32.2443 7.99845 32.9628 7.78535 33.2882 7.14755L34.4613 4.84841C34.7853 4.21353 34.5931 3.40158 34.0319 3.03511C33.4709 2.66838 32.7533 2.88591 32.4294 3.52096L31.2563 5.8201C30.9323 6.45498 31.1245 7.26685 31.6857 7.6334Z" fill="black"/>
<path d="M24.0215 34.6017C23.3736 34.6017 22.8484 35.196 22.8484 35.9291V38.6725C22.8484 39.4056 23.3736 40 24.0215 40C24.6694 40 25.1947 39.4056 25.1947 38.6725V35.9291C25.1947 35.196 24.6694 34.6017 24.0215 34.6017Z" fill="black"/>
<path d="M33.2491 32.7757C32.9251 32.1407 32.2077 31.9231 31.6466 32.2899C31.0854 32.6564 30.8932 33.4682 31.2172 34.1032L32.4295 36.479C32.7544 37.1159 33.4725 37.3305 34.032 36.9649C34.5931 36.5983 34.7854 35.7865 34.4613 35.1516L33.2491 32.7757Z" fill="black"/>
<path d="M14.7541 7.14752C15.0791 7.78443 15.7972 7.99894 16.3566 7.63336C16.9178 7.26681 17.11 6.45494 16.786 5.82007L15.6129 3.52092C15.2888 2.88587 14.5714 2.66843 14.0104 3.03507C13.4492 3.40163 13.257 4.2135 13.581 4.84837L14.7541 7.14752Z" fill="black"/>
<path d="M16.3957 32.2899C15.8347 31.9231 15.1171 32.1408 14.7932 32.7757L13.581 35.1516C13.257 35.7866 13.4492 36.5984 14.0104 36.9649C14.5692 37.3301 15.2876 37.1165 15.6129 36.479L16.8251 34.1032C17.1491 33.4683 16.9569 32.6564 16.3957 32.2899V32.2899Z" fill="black"/>
</g>
<defs>
<filter id="filter0_d" x="0" y="0" width="48.043" height="48" filterUnits="userSpaceOnUse" color-interpolation-filters="sRGB">
<feFlood flood-opacity="0" result="BackgroundImageFix"/>
<feColorMatrix in="SourceAlpha" type="matrix" values="0 0 0 0 0 0 0 0 0 0 0 0 0 0 0 0 0 0 127 0" result="hardAlpha"/>
<feOffset dy="4"/>
<feGaussianBlur stdDeviation="2"/>
<feColorMatrix type="matrix" values="0 0 0 0 0 0 0 0 0 0 0 0 0 0 0 0 0 0 0.25 0"/>
<feBlend mode="normal" in2="BackgroundImageFix" result="effect1_dropShadow"/>
<feBlend mode="normal" in="SourceGraphic" in2="effect1_dropShadow" result="shape"/>
</filter>
</defs>
</svg>
