<svg width="16" height="16" viewBox="0 0 16 16" fill="none" xmlns="http://www.w3.org/2000/svg">
<g clip-path="url(#clip0)">
<path d="M3.87094 6.70956V6.19343C2.59019 6.19343 1.54836 5.1516 1.54836 3.87085H1.03223C1.03223 5.436 2.30579 6.70956 3.87094 6.70956Z" fill="#7D4039"/>
<path d="M3.87103 5.67748C4.86687 5.67748 5.67748 4.86687 5.67748 3.87103C5.67748 2.87519 4.86687 2.06458 3.87103 2.06458C2.87519 2.06458 2.06458 2.87519 2.06458 3.87103C2.06458 4.86687 2.87519 5.67748 3.87103 5.67748ZM3.87103 2.5807C4.58247 2.5807 5.16135 3.15959 5.16135 3.87103C5.16135 4.58247 4.58247 5.16135 3.87103 5.16135C3.15959 5.16135 2.5807 4.58247 2.5807 3.87103C2.5807 3.15959 3.15959 2.5807 3.87103 2.5807Z" fill="#7D4039"/>
<path d="M3.87087 4.64507C4.29766 4.64507 4.64507 4.29766 4.64507 3.87087C4.64507 3.44408 4.29766 3.09668 3.87087 3.09668C3.44408 3.09668 3.09668 3.44408 3.09668 3.87087C3.09668 4.29766 3.44408 4.64507 3.87087 4.64507ZM3.87087 3.61281C4.01326 3.61281 4.12894 3.72848 4.12894 3.87087C4.12894 4.01326 4.01326 4.12894 3.87087 4.12894C3.72848 4.12894 3.61281 4.01326 3.61281 3.87087C3.61281 3.72848 3.72848 3.61281 3.87087 3.61281Z" fill="#7D4039"/>
<path d="M16 12.3122V10.3974L15.3017 10.1539C15.2233 9.89629 15.1207 9.64806 14.9951 9.41268L15.3167 8.74735L15.0674 8.49811C14.952 8.34652 14.7626 8.14655 14.6193 8.00176C14.441 7.82145 14.2354 7.62576 14.0958 7.50353L12.3788 6.00202L12.5262 5.55998L13.1236 5.85887L14.1167 4.8658L13.8178 4.2684L14.4516 4.05708V2.65285L13.8178 2.44178L14.1167 1.84438L13.1236 0.85131L12.5262 1.1502L12.3151 0.516129H10.9109L10.6998 1.14995L10.1024 0.851058L9.10938 1.84413L9.40827 2.44153L8.77419 2.6526V2.84955L6.65008 0.992061C5.91898 0.352319 4.98148 0 4.00983 0V0.00693045C3.96333 0.00541835 3.91797 0 3.87097 0C1.73652 0 0 1.73652 0 3.87097C0 3.91797 0.00541835 3.96333 0.00693045 4.00983H0C0 4.98148 0.352319 5.91872 0.992061 6.64982L2.85081 8.77419H2.6526L2.44153 9.40801L1.84413 9.10912L0.851058 10.1022L1.14995 10.6996L0.516129 10.9107V12.3149L1.14995 12.526L0.851058 13.1234L1.84413 14.1164L2.44153 13.8175L2.6526 14.4516H4.05683L4.26789 13.8178L4.8653 14.1167L5.85837 13.1236L5.55948 12.5262L6.00441 12.378L7.50239 14.0901C7.61983 14.224 7.79587 14.4105 7.96157 14.5775C8.11845 14.7353 8.33442 14.9432 8.49647 15.0668L8.7466 15.3169L9.41192 14.9953C9.64718 15.1207 9.89554 15.2235 10.153 15.3019L10.3974 16H12.3122L12.5558 15.3017C12.8134 15.2233 13.0616 15.1207 13.297 14.9951L13.9623 15.3167L15.3167 13.9623L14.9951 13.297C15.1205 13.0616 15.2233 12.8134 15.3017 12.5558L16 12.3122ZM7.71459 9.41268C7.58921 9.64806 7.48639 9.89629 7.40801 10.1539L6.70968 10.3974V12.3122L7.40801 12.5558C7.48639 12.8134 7.58896 13.0616 7.71459 13.297L7.63634 13.4588L2.36744 7.43788C2.82989 7.63357 3.33808 7.74194 3.87097 7.74194C6.00542 7.74194 7.74194 6.00542 7.74194 3.87097C7.74194 3.33758 7.63357 2.82913 7.43763 2.36643L13.4622 7.63483L13.2973 7.71459C13.062 7.58921 12.8136 7.48639 12.5561 7.40801L12.3122 6.70968H10.3974L10.1539 7.40801C9.89629 7.48639 9.64806 7.58896 9.41268 7.71459L8.74735 7.39302L7.39302 8.74735L7.71459 9.41268ZM9.29032 3.02482L9.88281 2.82737L9.92616 2.71308C9.93889 2.67969 9.95199 2.64743 9.96598 2.61542L10.016 2.50378L9.73702 1.94582L10.2039 1.47896L10.7618 1.75794L10.8735 1.70791C10.9055 1.69367 10.9378 1.68082 10.9711 1.66809L11.0854 1.62475L11.2829 1.03226H11.9432L12.1406 1.62475L12.2549 1.66809C12.2883 1.68082 12.3206 1.69393 12.3526 1.70791L12.4642 1.75794L13.0222 1.47896L13.489 1.94582L13.2101 2.50378L13.2601 2.61542C13.2743 2.64743 13.2872 2.67969 13.2999 2.71308L13.3432 2.82737L13.9355 3.02482V3.68511L13.343 3.88256L13.2996 3.99685C13.2869 4.03024 13.2738 4.0625 13.2598 4.09451L13.2098 4.20615L13.4888 4.76411L13.0219 5.23097L12.464 4.95199L12.3523 5.00202C12.3203 5.01625 12.2881 5.02911 12.2547 5.04183L12.1404 5.08518L11.9577 5.63382L9.29032 3.30091V3.02482ZM3.87097 0.516129C5.72077 0.516129 7.22581 2.02117 7.22581 3.87097C7.22581 5.72077 5.72077 7.22581 3.87097 7.22581C2.02117 7.22581 0.516129 5.72077 0.516129 3.87097C0.516129 2.02117 2.02117 0.516129 3.87097 0.516129ZM5.08493 12.1404L5.04158 12.2547C5.02886 12.2881 5.01575 12.3203 5.00176 12.3523L4.95174 12.464L5.23072 13.0219L4.76386 13.4888L4.2059 13.2098L4.09425 13.2598C4.06225 13.2741 4.02999 13.2869 3.9966 13.2996L3.88231 13.343L3.68485 13.9355H3.02457L2.82712 13.343L2.71283 13.2996C2.67944 13.2869 2.64718 13.2738 2.61517 13.2598L2.50353 13.2098L1.94582 13.4888L1.47896 13.0219L1.75794 12.464L1.70791 12.3523C1.69367 12.3203 1.68082 12.2881 1.66809 12.2547L1.62475 12.1404L1.03226 11.9429V11.2826L1.62475 11.0852L1.66809 10.9709C1.68082 10.9375 1.69393 10.9052 1.70791 10.8732L1.75794 10.7616L1.47896 10.2039L1.94582 9.73702L2.50378 10.016L2.61542 9.96598C2.64743 9.95174 2.67969 9.93889 2.71308 9.92616L2.82737 9.88281L3.02482 9.29032H3.30267L5.63609 11.9569L5.08493 12.1404ZM14.8764 12.1576L14.841 12.2896C14.7589 12.5961 14.638 12.8887 14.4813 13.1595L14.4127 13.278L14.6922 13.8565L13.8565 14.6922L13.278 14.4127L13.1595 14.4813C12.8887 14.6377 12.5959 14.7587 12.2896 14.841L12.1576 14.8764L11.9458 15.4839H10.7639L10.552 14.8764L10.4201 14.841C10.1135 14.7589 9.82094 14.638 9.55015 14.4813L9.4317 14.4127L8.8532 14.6922L8.01752 13.8565L8.297 13.278L8.22833 13.1595C8.07195 12.8887 7.95098 12.5959 7.8687 12.2896L7.83329 12.1576L7.22581 11.9458V10.7639L7.83329 10.552L7.8687 10.4201C7.95073 10.1135 8.0717 9.82094 8.22833 9.55015L8.297 9.4317L8.01752 8.8532L8.8532 8.01752L9.4317 8.297L9.55015 8.22833C9.82094 8.07195 10.1138 7.95098 10.4201 7.8687L10.552 7.83329L10.7639 7.22581H11.9458L12.1576 7.83329L12.2896 7.8687C12.5961 7.95073 12.8887 8.0717 13.1595 8.22833L13.278 8.297L13.8565 8.01752L14.6922 8.8532L14.4127 9.4317L14.4813 9.55015C14.6377 9.82094 14.7587 10.1138 14.841 10.4201L14.8764 10.552L15.4839 10.7639V11.9458L14.8764 12.1576Z" fill="#7D4039"/>
<path d="M11.3548 8.77429C9.93181 8.77429 8.77417 9.93193 8.77417 11.3549C8.77417 12.7779 9.93181 13.9356 11.3548 13.9356C12.7778 13.9356 13.9355 12.7779 13.9355 11.3549C13.9355 9.93193 12.7778 8.77429 11.3548 8.77429ZM11.3548 13.4195C10.2165 13.4195 9.2903 12.4933 9.2903 11.3549C9.2903 10.2166 10.2165 9.29042 11.3548 9.29042C12.4932 9.29042 13.4193 10.2166 13.4193 11.3549C13.4193 12.4933 12.4932 13.4195 11.3548 13.4195Z" fill="#7D4039"/>
<path d="M11.3548 9.8064C10.5008 9.8064 9.8064 10.5008 9.8064 11.3548C9.8064 12.2087 10.5008 12.9032 11.3548 12.9032C12.2087 12.9032 12.9032 12.2087 12.9032 11.3548C12.9032 10.5008 12.2087 9.8064 11.3548 9.8064ZM11.3548 12.387C10.7855 12.387 10.3225 11.9241 10.3225 11.3548C10.3225 10.7855 10.7855 10.3225 11.3548 10.3225C11.9241 10.3225 12.387 10.7855 12.387 11.3548C12.387 11.9241 11.9241 12.387 11.3548 12.387Z" fill="#7D4039"/>
<path d="M12.9033 3.3549C12.9033 2.64346 12.3244 2.06458 11.613 2.06458C10.9015 2.06458 10.3226 2.64346 10.3226 3.3549C10.3226 4.06634 10.9015 4.64522 11.613 4.64522C12.3244 4.64522 12.9033 4.06634 12.9033 3.3549ZM10.8388 3.3549C10.8388 2.92811 11.1862 2.5807 11.613 2.5807C12.0397 2.5807 12.3871 2.92811 12.3871 3.3549C12.3871 3.78169 12.0397 4.12909 11.613 4.12909C11.1862 4.12909 10.8388 3.78169 10.8388 3.3549Z" fill="#7D4039"/>
<path d="M2.06458 11.6131C2.06458 12.3245 2.64346 12.9034 3.3549 12.9034C4.06634 12.9034 4.64522 12.3245 4.64522 11.6131C4.64522 10.9016 4.06634 10.3228 3.3549 10.3228C2.64346 10.3228 2.06458 10.9016 2.06458 11.6131ZM4.12909 11.6131C4.12909 12.0399 3.78169 12.3873 3.3549 12.3873C2.92811 12.3873 2.5807 12.0399 2.5807 11.6131C2.5807 11.1863 2.92811 10.8389 3.3549 10.8389C3.78169 10.8389 4.12909 11.1863 4.12909 11.6131Z" fill="#7D4039"/>
</g>
<defs>
<clipPath id="clip0">
<rect width="16" height="16" fill="white"/>
</clipPath>
</defs>
</svg>
