<svg width="16" height="16" viewBox="0 0 16 16" fill="none" xmlns="http://www.w3.org/2000/svg">
<g clip-path="url(#clip0)">
<path d="M14.6071 10.1775C14.4777 10.1775 14.3727 10.0727 14.3727 9.94331C14.3727 9.92422 14.3751 9.90484 14.3797 9.88631C14.5026 9.39312 14.5649 8.8829 14.5649 8.36981C14.5649 7.13762 14.2068 5.9425 13.5291 4.91362C13.458 4.80553 13.4879 4.66019 13.596 4.58897C13.704 4.51775 13.8495 4.54769 13.9206 4.65581C14.6488 5.76144 15.0337 7.04575 15.0337 8.36981C15.0337 8.91937 14.9671 9.46606 14.8358 9.99475C14.8122 10.0993 14.7188 10.1775 14.6071 10.1775Z" fill="#7D4039"/>
<path d="M8.69512 8.12844C8.62162 8.10244 8.54634 8.07516 8.47134 8.04672V6.86916C8.66422 6.91229 8.77943 7.01038 8.78906 7.01885C8.88422 7.10516 9.0314 7.09879 9.11872 7.00423C9.20653 6.9091 9.20059 6.76082 9.1055 6.67304C9.09159 6.66019 8.85628 6.44826 8.47134 6.39304V6.14807C8.47134 6.01863 8.3664 5.9137 8.23697 5.9137C8.10753 5.9137 8.00259 6.01863 8.00259 6.14807V6.41079C7.96378 6.41907 7.92428 6.42891 7.8839 6.44107C7.53781 6.54573 7.27915 6.84232 7.20893 7.2151C7.14493 7.55491 7.25356 7.88263 7.49278 8.07066C7.62128 8.17125 7.78181 8.2635 8.00256 8.36132V9.84722C7.8049 9.83394 7.67203 9.78841 7.45212 9.64428C7.34387 9.57331 7.19856 9.60353 7.12762 9.71181C7.05665 9.82006 7.0869 9.96534 7.19515 10.0363C7.5085 10.2417 7.72234 10.3015 8.00253 10.3165V10.5915C8.00253 10.7209 8.10746 10.8259 8.2369 10.8259C8.36634 10.8259 8.47128 10.7209 8.47128 10.5915V10.2985C9.02075 10.1944 9.34172 9.74303 9.41259 9.32156C9.50322 8.78319 9.22159 8.31488 8.69512 8.12844ZM7.78209 7.70182C7.68118 7.62251 7.63806 7.46926 7.66959 7.30188C7.69837 7.1491 7.80121 6.96479 8.00259 6.89566V7.84094C7.91925 7.79663 7.844 7.75029 7.78209 7.70182ZM8.9504 9.24378C8.91147 9.47531 8.74844 9.7216 8.47134 9.8141V8.54619C8.49356 8.55419 8.51568 8.56219 8.53875 8.57035C8.99844 8.73313 8.97006 9.12697 8.9504 9.24378Z" fill="#7D4039"/>
<path d="M8.25916 4.96069C6.37932 4.96069 4.84998 6.4901 4.84998 8.36997C4.84998 10.2494 6.37932 11.7783 8.25916 11.7783C10.1385 11.7783 11.6674 10.2493 11.6674 8.36997C11.6674 6.4901 10.1385 4.96069 8.25916 4.96069ZM8.25916 11.3096C6.63779 11.3096 5.31873 9.99091 5.31873 8.37001C5.31873 6.7486 6.63779 5.42947 8.25916 5.42947C9.88004 5.42947 11.1987 6.7486 11.1987 8.37001C11.1987 9.99091 9.88001 11.3096 8.25916 11.3096Z" fill="#7D4039"/>
<path d="M15.7656 2.34748C15.8951 2.34748 16 2.24255 16 2.11311V0.717015C16 0.487171 15.813 0.30014 15.5832 0.30014H11.697C11.4676 0.30014 11.281 0.48714 11.281 0.717015V2.30858C10.3458 1.84042 9.30922 1.59433 8.25906 1.59433C7.49606 1.59433 6.75025 1.72061 6.03706 1.9698V1.81283C6.03706 1.68339 5.93213 1.57845 5.80269 1.57845H5.57288V0.578796C5.57288 0.367015 5.40056 0.194702 5.18878 0.194702H4.45625C4.244 0.194702 4.07128 0.367015 4.07128 0.578796V1.57842H3.51956V0.907452C3.51956 0.823202 3.47434 0.745452 3.40116 0.703765C3.32797 0.662108 3.238 0.66289 3.16556 0.70589L1.99416 1.40114V0.907452C1.99416 0.823202 1.94894 0.745452 1.87575 0.703765C1.80256 0.662077 1.71259 0.66289 1.64016 0.70589L0.11475 1.61123C0.043625 1.65345 0 1.73008 0 1.8128V4.78483C0 4.91426 0.104937 5.0192 0.234375 5.0192H2.37431C1.79112 6.0388 1.48453 7.18848 1.48453 8.3698C1.48453 9.15161 1.61753 9.91658 1.87953 10.6468L0.150969 11.7699C0.0844375 11.8131 0.0442813 11.8871 0.0442813 11.9665V13.219C0.0442813 13.3485 0.149219 13.4534 0.278656 13.4534C0.408094 13.4534 0.513031 13.3485 0.513031 13.219V12.0937L2.75719 10.6355L5.00134 12.0937V15.3366H4.06253V13.4166C4.06253 13.1902 3.87872 13.006 3.65275 13.006H1.86166C1.63572 13.006 1.45187 13.1902 1.45187 13.4166V15.3366H0.513031V14.383C0.513031 14.2536 0.408094 14.1487 0.278656 14.1487C0.149219 14.1487 0.0442813 14.2536 0.0442813 14.383V15.4115C0.0442813 15.6287 0.220938 15.8054 0.438094 15.8054H5.07544C5.29306 15.8054 5.47013 15.6287 5.47013 15.4115V14.5416C6.34206 14.9368 7.29847 15.1447 8.25906 15.1447C9.23969 15.1447 10.2133 14.9291 11.0994 14.5184V15.4018C11.0994 15.6243 11.2805 15.8054 11.503 15.8054H15.4813C15.7038 15.8054 15.8848 15.6244 15.8848 15.4018V14.4185C15.8848 13.6839 15.4536 13.0335 14.8121 12.7331C15.1405 12.3989 15.3436 11.9412 15.3436 11.4367V11.2967C15.3436 10.677 15.1452 10.1505 14.7698 9.7742C14.4337 9.43726 13.9815 9.2473 13.4964 9.2393C13.4939 9.23926 13.4913 9.23926 13.4887 9.2393C13.0033 9.24726 12.5508 9.43723 12.2146 9.77417C11.8392 10.1505 11.6407 10.677 11.6407 11.2967V11.4367C11.6407 11.9411 11.8438 12.3989 12.1723 12.733C11.6659 12.9701 11.2907 13.4255 11.155 13.9681C10.2648 14.431 9.26609 14.6759 8.25909 14.6759C7.29337 14.6759 6.33241 14.45 5.47016 14.0226V11.9664C5.47016 11.8871 5.43 11.8131 5.36347 11.7699L2.88494 10.1594C2.80728 10.109 2.70719 10.109 2.62953 10.1594L2.284 10.3839C2.06444 9.7363 1.95328 9.06011 1.95328 8.36976C1.95328 7.1797 2.28747 6.02405 2.92081 5.01917H5.80272C5.93216 5.01917 6.03709 4.91423 6.03709 4.7848V2.46845C6.74703 2.19942 7.49372 2.06308 8.25909 2.06308C9.31578 2.06308 10.3574 2.33123 11.2811 2.83845V4.60323C11.2811 4.83261 11.4677 5.01923 11.697 5.01923H15.5832C15.813 5.01923 16 4.83261 16 4.60323V3.26117C16 3.13173 15.8951 3.0268 15.7656 3.0268C15.6362 3.0268 15.5312 3.13173 15.5312 3.26117V4.55045H11.7498V0.76889H12.8047V2.10248C12.8047 2.31817 12.9801 2.49367 13.1958 2.49367H14.0852C14.3009 2.49367 14.4764 2.3182 14.4764 2.10248V0.76889H15.5312V2.11311C15.5312 2.24255 15.6362 2.34748 15.7656 2.34748ZM3.59381 15.3366H1.92062V14.5545H3.59381V15.3366ZM3.59381 14.0858H1.92062V13.4747H3.59381V14.0858ZM13.4926 9.70805C14.1247 9.72026 14.8012 10.1725 14.8693 11.1352C14.4845 11.2377 13.9793 11.1094 13.4889 10.9848C13.1391 10.896 12.7835 10.8057 12.4667 10.8057C12.3585 10.8057 12.2549 10.8162 12.1576 10.841C12.3289 10.08 12.9284 9.71895 13.4926 9.70805ZM12.1094 11.4367V11.3847C12.3193 11.1912 12.7533 11.2816 13.3735 11.4391C13.7534 11.5356 14.1651 11.6402 14.555 11.6402C14.6596 11.6402 14.7625 11.6322 14.863 11.615C14.7752 12.2932 14.1943 12.819 13.4926 12.819C12.7299 12.819 12.1094 12.1989 12.1094 11.4367ZM11.5682 14.4185C11.5682 13.7784 12.0058 13.2237 12.62 13.0688C12.8802 13.2084 13.1772 13.2877 13.4926 13.2877C13.8077 13.2877 14.1046 13.2084 14.3646 13.0689C14.9786 13.2238 15.4161 13.7785 15.4161 14.4185V15.3366H11.5682V14.4185ZM4.54003 0.663483H5.10416V1.57842H4.54003V0.663483ZM2.78416 4.55048H1.66106V3.61339H2.78416V4.55048ZM5.56834 4.55048H3.25294V3.53936C3.25294 3.3217 3.07587 3.14464 2.85822 3.14464H1.58703C1.36937 3.14464 1.19231 3.3217 1.19231 3.53936V4.55048H0.46875V1.94623L1.52541 1.31911V1.8128C1.52541 1.89705 1.57063 1.9748 1.64381 2.01648C1.717 2.05817 1.80697 2.05736 1.87941 2.01436L3.05078 1.31911V1.8128C3.05078 1.94223 3.15572 2.04717 3.28516 2.04717H5.56831V4.55048H5.56834ZM14.0076 2.02489H13.2734V0.76889H14.0077V2.02489H14.0076Z" fill="#7D4039"/>
</g>
<defs>
<clipPath id="clip0">
<rect width="16" height="16" fill="white"/>
</clipPath>
</defs>
</svg>
