<svg width="16" height="16" viewBox="0 0 16 16" fill="none" xmlns="http://www.w3.org/2000/svg">
<path d="M4.25 2.25C4.31628 2.25007 4.37983 2.27644 4.42669 2.32331C4.47356 2.37017 4.49993 2.43372 4.5 2.5H5C4.9998 2.34496 4.95164 2.19379 4.86212 2.06721C4.7726 1.94063 4.64611 1.84485 4.5 1.793V1.5H4V1.793C3.83327 1.85203 3.69277 1.96808 3.60331 2.12066C3.51385 2.27323 3.48119 2.45251 3.5111 2.62684C3.54102 2.80116 3.63157 2.9593 3.76677 3.07333C3.90198 3.18735 4.07313 3.24993 4.25 3.25C4.29945 3.25 4.34778 3.26466 4.38889 3.29213C4.43 3.3196 4.46205 3.35865 4.48097 3.40433C4.49989 3.45001 4.50484 3.50028 4.4952 3.54877C4.48555 3.59727 4.46174 3.64181 4.42678 3.67678C4.39181 3.71174 4.34727 3.73555 4.29877 3.7452C4.25028 3.75484 4.20001 3.74989 4.15433 3.73097C4.10865 3.71205 4.0696 3.68 4.04213 3.63889C4.01466 3.59778 4 3.54945 4 3.5H3.5C3.5002 3.65504 3.54836 3.80621 3.63788 3.93279C3.7274 4.05937 3.85389 4.15515 4 4.207V4.5H4.5V4.207C4.66673 4.14797 4.80723 4.03192 4.89669 3.87934C4.98615 3.72677 5.01881 3.54749 4.9889 3.37316C4.95898 3.19884 4.86843 3.0407 4.73323 2.92667C4.59802 2.81265 4.42687 2.75007 4.25 2.75C4.1837 2.75 4.12011 2.72366 4.07322 2.67678C4.02634 2.62989 4 2.5663 4 2.5C4 2.4337 4.02634 2.37011 4.07322 2.32322C4.12011 2.27634 4.1837 2.25 4.25 2.25Z" fill="#7D4039"/>
<path d="M5.5 2.25H7.75V2.75H5.5V2.25Z" fill="#7D4039"/>
<path d="M5.5 3.25H9.5V3.75H5.5V3.25Z" fill="#7D4039"/>
<path d="M3.25 8C2.90388 8 2.56554 8.10264 2.27775 8.29493C1.98997 8.48722 1.76566 8.76053 1.63321 9.0803C1.50076 9.40007 1.4661 9.75194 1.53363 10.0914C1.60115 10.4309 1.76782 10.7427 2.01256 10.9874C2.2573 11.2322 2.56912 11.3988 2.90859 11.4664C3.24806 11.5339 3.59992 11.4992 3.91969 11.3668C4.23946 11.2343 4.51278 11.01 4.70507 10.7222C4.89736 10.4345 5 10.0961 5 9.75C4.99948 9.28603 4.81493 8.84121 4.48686 8.51314C4.15878 8.18506 3.71397 8.00052 3.25 8ZM4.475 9.5H3.5V8.52516C3.74 8.57459 3.96025 8.69326 4.13353 8.86652C4.30682 9.03977 4.42553 9.26001 4.475 9.5ZM2 9.75C2.00037 9.46197 2.10003 9.18287 2.28219 8.95975C2.46435 8.73664 2.71787 8.58315 3 8.52516V9.64647L2.20762 10.4388C2.072 10.2347 1.99976 9.99505 2 9.75ZM3.25 11C3.00494 11.0002 2.76529 10.928 2.56119 10.7924L3.35356 10H4.475C4.41699 10.2822 4.26348 10.5357 4.04033 10.7178C3.81719 10.9 3.53806 10.9997 3.25 11Z" fill="#7D4039"/>
<path d="M15.25 6.5H10.5V2.5C10.5 2.46717 10.4935 2.43466 10.481 2.40433C10.4684 2.37399 10.45 2.34643 10.4268 2.32322L8.67678 0.573219C8.65357 0.550004 8.62601 0.53159 8.59567 0.519027C8.56534 0.506464 8.53283 0.499999 8.5 0.5H0.75C0.683696 0.5 0.620107 0.526339 0.573223 0.573223C0.526339 0.620107 0.5 0.683696 0.5 0.75V12.25C0.5 12.3163 0.526339 12.3799 0.573223 12.4268C0.620107 12.4737 0.683696 12.5 0.75 12.5H8.5V15.25C8.5 15.3163 8.52634 15.3799 8.57322 15.4268C8.62011 15.4737 8.6837 15.5 8.75 15.5H15.25C15.3163 15.5 15.3799 15.4737 15.4268 15.4268C15.4737 15.3799 15.5 15.3163 15.5 15.25V6.75C15.5 6.6837 15.4737 6.62011 15.4268 6.57322C15.3799 6.52634 15.3163 6.5 15.25 6.5ZM8.75 1.35356L9.64644 2.25H8.75V1.35356ZM8.5 6.75V12H1V1H8.25V2.5C8.25 2.5663 8.27634 2.62989 8.32322 2.67678C8.37011 2.72366 8.4337 2.75 8.5 2.75H10V6.5H8.75C8.6837 6.5 8.62011 6.52634 8.57322 6.57322C8.52634 6.62011 8.5 6.6837 8.5 6.75ZM15 15H9V7H15V15Z" fill="#7D4039"/>
<path d="M9.75 9H14.25C14.3163 9 14.3799 8.97366 14.4268 8.92678C14.4737 8.87989 14.5 8.8163 14.5 8.75V7.75C14.5 7.6837 14.4737 7.62011 14.4268 7.57322C14.3799 7.52634 14.3163 7.5 14.25 7.5H9.75C9.6837 7.5 9.62011 7.52634 9.57322 7.57322C9.52634 7.62011 9.5 7.6837 9.5 7.75V8.75C9.5 8.8163 9.52634 8.87989 9.57322 8.92678C9.62011 8.97366 9.6837 9 9.75 9ZM10 8H14V8.5H10V8Z" fill="#7D4039"/>
<path d="M9.75 11H10.75C10.8163 11 10.8799 10.9737 10.9268 10.9268C10.9737 10.8799 11 10.8163 11 10.75V9.75C11 9.6837 10.9737 9.62011 10.9268 9.57322C10.8799 9.52634 10.8163 9.5 10.75 9.5H9.75C9.6837 9.5 9.62011 9.52634 9.57322 9.57322C9.52634 9.62011 9.5 9.6837 9.5 9.75V10.75C9.5 10.8163 9.52634 10.8799 9.57322 10.9268C9.62011 10.9737 9.6837 11 9.75 11ZM10 10H10.5V10.5H10V10Z" fill="#7D4039"/>
<path d="M12.5 9.5H11.5C11.4337 9.5 11.3701 9.52634 11.3232 9.57322C11.2763 9.62011 11.25 9.6837 11.25 9.75V10.75C11.25 10.8163 11.2763 10.8799 11.3232 10.9268C11.3701 10.9737 11.4337 11 11.5 11H12.5C12.5663 11 12.6299 10.9737 12.6768 10.9268C12.7237 10.8799 12.75 10.8163 12.75 10.75V9.75C12.75 9.6837 12.7237 9.62011 12.6768 9.57322C12.6299 9.52634 12.5663 9.5 12.5 9.5ZM12.25 10.5H11.75V10H12.25V10.5Z" fill="#7D4039"/>
<path d="M14.25 9.5H13.25C13.1837 9.5 13.1201 9.52634 13.0732 9.57322C13.0263 9.62011 13 9.6837 13 9.75V10.75C13 10.8163 13.0263 10.8799 13.0732 10.9268C13.1201 10.9737 13.1837 11 13.25 11H14.25C14.3163 11 14.3799 10.9737 14.4268 10.9268C14.4737 10.8799 14.5 10.8163 14.5 10.75V9.75C14.5 9.6837 14.4737 9.62011 14.4268 9.57322C14.3799 9.52634 14.3163 9.5 14.25 9.5ZM14 10.5H13.5V10H14V10.5Z" fill="#7D4039"/>
<path d="M9.75 12.75H10.75C10.8163 12.75 10.8799 12.7237 10.9268 12.6768C10.9737 12.6299 11 12.5663 11 12.5V11.5C11 11.4337 10.9737 11.3701 10.9268 11.3232C10.8799 11.2763 10.8163 11.25 10.75 11.25H9.75C9.6837 11.25 9.62011 11.2763 9.57322 11.3232C9.52634 11.3701 9.5 11.4337 9.5 11.5V12.5C9.5 12.5663 9.52634 12.6299 9.57322 12.6768C9.62011 12.7237 9.6837 12.75 9.75 12.75ZM10 11.75H10.5V12.25H10V11.75Z" fill="#7D4039"/>
<path d="M12.5 11.25H11.5C11.4337 11.25 11.3701 11.2763 11.3232 11.3232C11.2763 11.3701 11.25 11.4337 11.25 11.5V12.5C11.25 12.5663 11.2763 12.6299 11.3232 12.6768C11.3701 12.7237 11.4337 12.75 11.5 12.75H12.5C12.5663 12.75 12.6299 12.7237 12.6768 12.6768C12.7237 12.6299 12.75 12.5663 12.75 12.5V11.5C12.75 11.4337 12.7237 11.3701 12.6768 11.3232C12.6299 11.2763 12.5663 11.25 12.5 11.25ZM12.25 12.25H11.75V11.75H12.25V12.25Z" fill="#7D4039"/>
<path d="M14.25 11.25H13.25C13.1837 11.25 13.1201 11.2763 13.0732 11.3232C13.0263 11.3701 13 11.4337 13 11.5V12.5C13 12.5663 13.0263 12.6299 13.0732 12.6768C13.1201 12.7237 13.1837 12.75 13.25 12.75H14.25C14.3163 12.75 14.3799 12.7237 14.4268 12.6768C14.4737 12.6299 14.5 12.5663 14.5 12.5V11.5C14.5 11.4337 14.4737 11.3701 14.4268 11.3232C14.3799 11.2763 14.3163 11.25 14.25 11.25ZM14 12.25H13.5V11.75H14V12.25Z" fill="#7D4039"/>
<path d="M9.75 14.5H10.75C10.8163 14.5 10.8799 14.4737 10.9268 14.4268C10.9737 14.3799 11 14.3163 11 14.25V13.25C11 13.1837 10.9737 13.1201 10.9268 13.0732C10.8799 13.0263 10.8163 13 10.75 13H9.75C9.6837 13 9.62011 13.0263 9.57322 13.0732C9.52634 13.1201 9.5 13.1837 9.5 13.25V14.25C9.5 14.3163 9.52634 14.3799 9.57322 14.4268C9.62011 14.4737 9.6837 14.5 9.75 14.5ZM10 13.5H10.5V14H10V13.5Z" fill="#7D4039"/>
<path d="M12.5 13H11.5C11.4337 13 11.3701 13.0263 11.3232 13.0732C11.2763 13.1201 11.25 13.1837 11.25 13.25V14.25C11.25 14.3163 11.2763 14.3799 11.3232 14.4268C11.3701 14.4737 11.4337 14.5 11.5 14.5H12.5C12.5663 14.5 12.6299 14.4737 12.6768 14.4268C12.7237 14.3799 12.75 14.3163 12.75 14.25V13.25C12.75 13.1837 12.7237 13.1201 12.6768 13.0732C12.6299 13.0263 12.5663 13 12.5 13ZM12.25 14H11.75V13.5H12.25V14Z" fill="#7D4039"/>
<path d="M14.25 13H13.25C13.1837 13 13.1201 13.0263 13.0732 13.0732C13.0263 13.1201 13 13.1837 13 13.25V14.25C13 14.3163 13.0263 14.3799 13.0732 14.4268C13.1201 14.4737 13.1837 14.5 13.25 14.5H14.25C14.3163 14.5 14.3799 14.4737 14.4268 14.4268C14.4737 14.3799 14.5 14.3163 14.5 14.25V13.25C14.5 13.1837 14.4737 13.1201 14.4268 13.0732C14.3799 13.0263 14.3163 13 14.25 13ZM14 14H13.5V13.5H14V14Z" fill="#7D4039"/>
<path d="M4.75 6H3.5V5.25C3.5 5.1837 3.47366 5.12011 3.42678 5.07322C3.37989 5.02634 3.3163 5 3.25 5H1.75C1.6837 5 1.62011 5.02634 1.57322 5.07322C1.52634 5.12011 1.5 5.1837 1.5 5.25V7.25C1.5 7.3163 1.52634 7.37989 1.57322 7.42678C1.62011 7.47366 1.6837 7.5 1.75 7.5H4.75C4.8163 7.5 4.87989 7.47366 4.92678 7.42678C4.97366 7.37989 5 7.3163 5 7.25V6.25C5 6.1837 4.97366 6.12011 4.92678 6.07322C4.87989 6.02634 4.8163 6 4.75 6ZM3 5.5V6H2V5.5H3ZM4.5 7H2V6.5H4.5V7Z" fill="#7D4039"/>
<path d="M5.5 8.5H8V9H5.5V8.5Z" fill="#7D4039"/>
<path d="M5.5 9.5H8V10H5.5V9.5Z" fill="#7D4039"/>
<path d="M5.5 10.5H8V11H5.5V10.5Z" fill="#7D4039"/>
<path d="M5.5 5.5H9.5V6H5.5V5.5Z" fill="#7D4039"/>
<path d="M5.5 6.5H8V7H5.5V6.5Z" fill="#7D4039"/>
<path d="M2.25 3.75C2.18372 3.74993 2.12017 3.72356 2.07331 3.67669C2.02644 3.62983 2.00007 3.56628 2 3.5H1.5C1.5002 3.65504 1.54836 3.80621 1.63788 3.93279C1.7274 4.05937 1.85389 4.15515 2 4.207V4.5H2.5V4.207C2.66673 4.14797 2.80723 4.03192 2.89669 3.87934C2.98615 3.72677 3.01881 3.54749 2.9889 3.37316C2.95898 3.19884 2.86843 3.0407 2.73323 2.92667C2.59802 2.81265 2.42687 2.75007 2.25 2.75C2.20055 2.75 2.15222 2.73534 2.11111 2.70787C2.07 2.6804 2.03795 2.64135 2.01903 2.59567C2.00011 2.54999 1.99516 2.49972 2.0048 2.45123C2.01445 2.40273 2.03826 2.35819 2.07322 2.32322C2.10819 2.28826 2.15273 2.26445 2.20123 2.2548C2.24972 2.24516 2.29999 2.25011 2.34567 2.26903C2.39135 2.28795 2.4304 2.32 2.45787 2.36111C2.48534 2.40222 2.5 2.45055 2.5 2.5H3C2.9998 2.34496 2.95164 2.19379 2.86212 2.06721C2.7726 1.94063 2.64611 1.84485 2.5 1.793V1.5H2V1.793C1.83327 1.85203 1.69277 1.96808 1.60331 2.12066C1.51385 2.27323 1.48119 2.45251 1.5111 2.62684C1.54102 2.80116 1.63157 2.9593 1.76677 3.07333C1.90198 3.18735 2.07313 3.24993 2.25 3.25C2.3163 3.25 2.37989 3.27634 2.42678 3.32322C2.47366 3.37011 2.5 3.4337 2.5 3.5C2.5 3.5663 2.47366 3.62989 2.42678 3.67678C2.37989 3.72366 2.3163 3.75 2.25 3.75Z" fill="#7D4039"/>
</svg>
