<svg width="16" height="16" viewBox="0 0 16 16" fill="none" xmlns="http://www.w3.org/2000/svg">
<path d="M10.25 12.75H10.75V14.75H10.25V12.75Z" fill="#7D4039"/>
<path d="M11.25 12.75H11.75V14.75H11.25V12.75Z" fill="#7D4039"/>
<path d="M13.75 8.9975V3.75H13.25V1.20475L12.75 1.288V0.75H12.25V1.3715L11.75 1.45475V0.25H11.25V1.53825L10.75 1.6215V0.75H10.25V1.70475L9.75 1.788V3.75H9.25V6.25H7.25V2.75H6.25V1.25H5.75V0.25H3.25V1.25H2.75V2.75H1.75V7.42125C1.232 7.6685 0.85475 8.16175 0.77 8.75H0.25V15.75H15.75V8.71175L13.75 8.9975ZM10.25 2.21175L12.75 1.795V3.75H10.25V2.21175ZM9.75 4.25H13.25V9.069L11.75 9.28325V10.5835L11 9.5835L10.25 10.5835V6.25H9.75V4.25ZM9.75 7.25H6.25V6.75H9.75V7.25ZM9.75 12.25H12.25V15.25H9.75V12.25ZM10 11.75L11 10.4167L12 11.75H10ZM3.75 0.75H5.25V1.25H3.75V0.75ZM3.25 1.75H5.75V2.75H3.25V1.75ZM2.25 3.25H6.75V6.25H5.75V7.42125C5.52225 7.31275 5.2685 7.25 5 7.25H2.5C2.415 7.25 2.332 7.25825 2.25 7.27V3.25ZM2.5 7.75H5C5.6035 7.75 6.1085 8.18025 6.22475 8.75H1.27525C1.3915 8.18025 1.8965 7.75 2.5 7.75ZM6.75 9.25V9.75H0.75V9.25H6.75ZM5.75 13.75H4.75V12.75H5.75V13.75ZM4.25 13.75H3.25V12.75H4.25V13.75ZM4.25 14.25V15.25H3.25V14.25H4.25ZM4.75 14.25H5.75V15.25H4.75V14.25ZM5.75 12.25H4.75V11.25H5.75V12.25ZM4.25 12.25H3.25V11.25H4.25V12.25ZM2.75 12.25H1.75V11.25H2.75V12.25ZM1.75 12.75H2.75V13.75H1.75V12.75ZM1.75 14.25H2.75V15.25H1.75V14.25ZM6.25 15.25V10.75H1.25V15.25H0.75V10.25H6.75V15.25H6.25ZM6.73 8.75C6.676 8.3745 6.5035 8.03675 6.25 7.77775V7.75H9.75V11.25L9.25 11.9167V15.25H7.25V8.75H6.73ZM15.25 15.25H12.75V11.9167L12.25 11.25V9.71675L15.25 9.28825V15.25Z" fill="#7D4039"/>
<path d="M7.75 8.25H8.25V8.75H7.75V8.25Z" fill="#7D4039"/>
<path d="M7.75 14.25H8.25V14.75H7.75V14.25Z" fill="#7D4039"/>
<path d="M7.75 9.25H8.25V9.75H7.75V9.25Z" fill="#7D4039"/>
<path d="M7.75 13.25H8.25V13.75H7.75V13.25Z" fill="#7D4039"/>
<path d="M7.75 11.25H8.25V11.75H7.75V11.25Z" fill="#7D4039"/>
<path d="M7.75 10.25H8.25V10.75H7.75V10.25Z" fill="#7D4039"/>
<path d="M7.75 12.25H8.25V12.75H7.75V12.25Z" fill="#7D4039"/>
<path d="M8.75 10.25H9.25V10.75H8.75V10.25Z" fill="#7D4039"/>
<path d="M8.75 9.25H9.25V9.75H8.75V9.25Z" fill="#7D4039"/>
<path d="M8.75 8.25H9.25V8.75H8.75V8.25Z" fill="#7D4039"/>
<path d="M14.25 14.25H14.75V14.75H14.25V14.25Z" fill="#7D4039"/>
<path d="M14.25 12.25H14.75V12.75H14.25V12.25Z" fill="#7D4039"/>
<path d="M14.25 13.25H14.75V13.75H14.25V13.25Z" fill="#7D4039"/>
<path d="M14.25 11.25H14.75V11.75H14.25V11.25Z" fill="#7D4039"/>
<path d="M14.25 10.25H14.75V10.75H14.25V10.25Z" fill="#7D4039"/>
<path d="M13.25 13.25H13.75V13.75H13.25V13.25Z" fill="#7D4039"/>
<path d="M13.25 10.25H13.75V10.75H13.25V10.25Z" fill="#7D4039"/>
<path d="M13.25 12.25H13.75V12.75H13.25V12.25Z" fill="#7D4039"/>
<path d="M13.25 14.25H13.75V14.75H13.25V14.25Z" fill="#7D4039"/>
<path d="M13.25 11.25H13.75V11.75H13.25V11.25Z" fill="#7D4039"/>
<path d="M5.75 3.75H6.25V4.25H5.75V3.75Z" fill="#7D4039"/>
<path d="M4.75 3.75H5.25V4.25H4.75V3.75Z" fill="#7D4039"/>
<path d="M2.75 3.75H3.25V4.25H2.75V3.75Z" fill="#7D4039"/>
<path d="M3.75 3.75H4.25V4.25H3.75V3.75Z" fill="#7D4039"/>
<path d="M3.75 4.75H4.25V5.25H3.75V4.75Z" fill="#7D4039"/>
<path d="M5.75 4.75H6.25V5.25H5.75V4.75Z" fill="#7D4039"/>
<path d="M2.75 4.75H3.25V5.25H2.75V4.75Z" fill="#7D4039"/>
<path d="M4.75 4.75H5.25V5.25H4.75V4.75Z" fill="#7D4039"/>
<path d="M2.75 5.75H3.25V6.25H2.75V5.75Z" fill="#7D4039"/>
<path d="M3.75 5.75H4.25V6.25H3.75V5.75Z" fill="#7D4039"/>
<path d="M4.75 5.75H5.25V6.25H4.75V5.75Z" fill="#7D4039"/>
<path d="M12.25 4.75H12.75V5.25H12.25V4.75Z" fill="#7D4039"/>
<path d="M11.25 4.75H11.75V5.25H11.25V4.75Z" fill="#7D4039"/>
<path d="M10.25 4.75H10.75V5.25H10.25V4.75Z" fill="#7D4039"/>
<path d="M12.25 5.75H12.75V6.25H12.25V5.75Z" fill="#7D4039"/>
<path d="M10.25 5.75H10.75V6.25H10.25V5.75Z" fill="#7D4039"/>
<path d="M11.25 5.75H11.75V6.25H11.25V5.75Z" fill="#7D4039"/>
<path d="M11.25 8.75H11.75V9.25H11.25V8.75Z" fill="#7D4039"/>
<path d="M11.25 7.75H11.75V8.25H11.25V7.75Z" fill="#7D4039"/>
<path d="M11.25 6.75H11.75V7.25H11.25V6.75Z" fill="#7D4039"/>
<path d="M12.25 7.75H12.75V8.25H12.25V7.75Z" fill="#7D4039"/>
<path d="M12.25 6.75H12.75V7.25H12.25V6.75Z" fill="#7D4039"/>
</svg>
