<svg width="16" height="16" viewBox="0 0 16 16" fill="none" xmlns="http://www.w3.org/2000/svg">
<path d="M1 15.5H2.5C2.77575 15.5 3 15.2758 3 15V14.5H8.6515C9.9075 14.5 11.1348 14.148 12.1997 13.4825C13.8055 12.4788 14.9152 10.8335 15.2445 8.9685L15.353 8.354C15.4015 8.0795 15.3267 7.7995 15.1475 7.586C14.9683 7.3725 14.7055 7.25 14.4268 7.25C14.2745 7.25 14.1295 7.28775 14 7.35375V6.25H14.25C14.351 6.25 14.4425 6.189 14.481 6.09575C14.5197 6.00225 14.4983 5.89475 14.4268 5.82325L12.4268 3.82325C12.329 3.7255 12.171 3.7255 12.0732 3.82325L11.5 4.3965V1C11.5 0.862003 11.3883 0.750003 11.25 0.750003H8.75C8.61175 0.750003 8.5 0.862003 8.5 1V3.75H7.487C7.29675 3.3315 7.156 3.08675 7.043 2.94475L7.67475 1.40075C7.745 1.232 7.704 1.04225 7.57025 0.917503C7.4365 0.792503 7.24425 0.765253 7.081 0.846753L6.60825 1.083L6.3105 0.686003C6.23525 0.585503 6.12025 0.522503 5.995 0.513503C5.8695 0.504253 5.74675 0.550003 5.657 0.639253L5.27675 1.01925L5.027 0.686003C4.9515 0.585253 4.8365 0.522503 4.711 0.513503C4.58575 0.504253 4.4625 0.550253 4.3735 0.639253L3.89375 1.119L3.17275 0.913003C3.0035 0.864503 2.82475 0.922003 2.7155 1.05875C2.606 1.1955 2.58925 1.38325 2.673 1.5365L3.429 2.93225C2.89825 3.41175 2.25 4.759 2.25 5.98325V6.75C2.25 7.57725 2.92275 8.25 3.75 8.25H6.5H8.75H10.75H13.3455L12.8175 9.30625L11.4427 9.8955C11.2885 9.37975 10.8153 9 10.25 9H6.65075C5.34975 9 4.098 9.3585 3 10.0365V9.5C3 9.22425 2.77575 9 2.5 9H1C0.72425 9 0.5 9.22425 0.5 9.5V15C0.5 15.2758 0.72425 15.5 1 15.5ZM3.79425 1.61075C3.9455 1.654 4.10875 1.612 4.21975 1.5005L4.673 1.04725L4.923 1.381C4.99875 1.4815 5.114 1.5445 5.2395 1.55325C5.3665 1.5615 5.4875 1.516 5.57625 1.42725L5.9565 1.04725L6.24175 1.42725C6.367 1.59525 6.594 1.64925 6.78225 1.55525L7.146 1.37325L6.582 2.75H5.9045L6.2235 2.11175L5.77625 1.888L5.3455 2.75H4.90725L4.55875 2.025L4.108 2.24175L4.35225 2.75H3.89875L3.188 1.4375L3.79425 1.61075ZM6.25 4V7.75H3.75C3.1985 7.75 2.75 7.3015 2.75 6.75V5.98325C2.75 4.645 3.57825 3.397 3.81525 3.25H6.647C6.6875 3.299 6.77925 3.4305 6.9345 3.75H6.5C6.36175 3.75 6.25 3.862 6.25 4ZM6.75 4.25H8.5V7.75H6.75V4.25ZM12.25 4.3535L13.6465 5.75H10.8535L12.25 4.3535ZM9 1.25H11V4.8965L10.0732 5.82325C10.0017 5.89475 9.98025 6.00225 10.019 6.09575C10.0575 6.189 10.149 6.25 10.25 6.25H10.5V7.75H9V1.25ZM11 6.25H13.5V7.75H13V6.75C13 6.612 12.8883 6.5 12.75 6.5H11.75C11.6117 6.5 11.5 6.612 11.5 6.75V7.75H11V6.25ZM12.5 7.75H12V7H12.5V7.75ZM6.65075 9.5H10.25C10.6635 9.5 11 9.8365 11 10.25C11 10.6635 10.6635 11 10.25 11H6.25V11.5H10.25C10.8802 11.5 11.3977 11.0295 11.4825 10.4223L13.0983 9.72975C13.1528 9.7065 13.1973 9.66475 13.2235 9.61175L14.0325 7.9935C14.108 7.84325 14.2587 7.75 14.4268 7.75C14.5573 7.75 14.6805 7.80725 14.7645 7.9075C14.8485 8.00775 14.8837 8.13875 14.861 8.26725L14.7525 8.88175C14.4477 10.6075 13.421 12.1298 11.9347 13.0585C10.9492 13.6745 9.814 14 8.6515 14H3V10.6345C4.07975 9.894 5.33825 9.5 6.65075 9.5ZM1 9.5H2.5L2.50025 15H1V9.5Z" fill="#7D4039"/>
<path d="M1.5 10.25H2V11H1.5V10.25Z" fill="#7D4039"/>
<path d="M9.5 1.75H9.75V2.25H9.5V1.75Z" fill="#7D4039"/>
<path d="M10.25 1.75H10.5V2.25H10.25V1.75Z" fill="#7D4039"/>
<path d="M9.5 2.75H9.75V3.25H9.5V2.75Z" fill="#7D4039"/>
<path d="M10.25 2.75H10.5V3.25H10.25V2.75Z" fill="#7D4039"/>
<path d="M9.5 3.75H9.75V4.25H9.5V3.75Z" fill="#7D4039"/>
<path d="M10.25 3.75H10.5V4.25H10.25V3.75Z" fill="#7D4039"/>
<path d="M7.25 4.75H7.5V5.25H7.25V4.75Z" fill="#7D4039"/>
<path d="M8 4.75H8.25V5.25H8V4.75Z" fill="#7D4039"/>
<path d="M7.25 5.75H7.5V6.25H7.25V5.75Z" fill="#7D4039"/>
<path d="M8 5.75H8.25V6.25H8V5.75Z" fill="#7D4039"/>
<path d="M7.25 6.75H7.5V7.25H7.25V6.75Z" fill="#7D4039"/>
<path d="M8 6.75H8.25V7.25H8V6.75Z" fill="#7D4039"/>
<path d="M9.5 4.75H9.75V5.25H9.5V4.75Z" fill="#7D4039"/>
<path d="M10.25 4.75H10.5V5.25H10.25V4.75Z" fill="#7D4039"/>
<path d="M5.5 4.5H5.25V4.25H4.75V4.5H4.5C4.36175 4.5 4.25 4.612 4.25 4.75V5.5C4.25 5.638 4.36175 5.75 4.5 5.75H5.25V6H4.25V6.25C4.25 6.388 4.36175 6.5 4.5 6.5H4.75V6.75H5.25V6.5H5.5C5.63825 6.5 5.75 6.388 5.75 6.25V5.5C5.75 5.362 5.63825 5.25 5.5 5.25H4.75V5H5.75V4.75C5.75 4.612 5.63825 4.5 5.5 4.5Z" fill="#7D4039"/>
<path d="M13.25 1H13.75V1.5H13.25V1Z" fill="#7D4039"/>
<path d="M13.75 0.5H14.25V1H13.75V0.5Z" fill="#7D4039"/>
<path d="M14.25 1H14.75V1.5H14.25V1Z" fill="#7D4039"/>
<path d="M13.75 1.5H14.25V2H13.75V1.5Z" fill="#7D4039"/>
<path d="M15 2.25H15.5V2.75H15V2.25Z" fill="#7D4039"/>
<path d="M13.25 3H13.75V3.5H13.25V3Z" fill="#7D4039"/>
<path d="M0.5 2.75H1V3.25H0.5V2.75Z" fill="#7D4039"/>
<path d="M1 2.25H1.5V2.75H1V2.25Z" fill="#7D4039"/>
<path d="M1.5 2.75H2V3.25H1.5V2.75Z" fill="#7D4039"/>
<path d="M1 3.25H1.5V3.75H1V3.25Z" fill="#7D4039"/>
<path d="M0.5 4.75H1V5.25H0.5V4.75Z" fill="#7D4039"/>
<path d="M1.5 0.5H2V1H1.5V0.5Z" fill="#7D4039"/>
</svg>
