<svg width="28" height="48" viewBox="0 0 28 48" fill="none" xmlns="http://www.w3.org/2000/svg">
<path d="M24.6418 0H3.24206C1.4592 0 0 1.45783 0 3.24206V44.7566C0 46.5408 1.4592 48 3.24206 48H24.6418C26.4247 48 27.8839 46.5435 27.8839 44.7579V3.24206C27.8839 1.45783 26.4247 0 24.6418 0ZM10.5189 2.33691H17.365C17.5817 2.33691 17.7573 2.51246 17.7573 2.73051C17.7573 2.9472 17.5817 3.12274 17.365 3.12274H10.5189C10.3022 3.12274 10.1266 2.9472 10.1266 2.73051C10.1266 2.51246 10.3022 2.33691 10.5189 2.33691ZM13.9419 46.379C13.0464 46.379 12.3209 45.6535 12.3209 44.7566C12.3209 43.8597 13.0464 43.1355 13.9419 43.1355C14.8375 43.1355 15.563 43.8597 15.563 44.7566C15.563 45.6535 14.8375 46.379 13.9419 46.379ZM25.6279 42H2.256V5.14149H25.6279V42Z" fill="#7D4039"/>
</svg>
