<svg width="400" height="396" viewBox="0 0 400 396" fill="none" xmlns="http://www.w3.org/2000/svg">
<path d="M152.597 369.201C154.251 369.646 155.573 370.366 156.564 371.362C157.556 372.357 158.2 373.566 158.496 374.988C158.774 376.421 158.681 377.995 158.22 379.71C157.759 381.425 157.051 382.826 156.096 383.911C155.126 384.992 153.962 385.714 152.605 386.078C151.248 386.442 149.743 386.402 148.089 385.957C146.977 385.658 145.99 385.202 145.127 384.589C144.245 383.987 143.567 383.274 143.093 382.451L144.445 380.751C144.985 381.576 145.596 382.229 146.279 382.711C146.941 383.204 147.713 383.569 148.594 383.806C150.355 384.28 151.845 384.101 153.063 383.269C154.281 382.437 155.158 381.024 155.694 379.031C156.23 377.038 156.182 375.368 155.55 374.022C154.914 372.691 153.716 371.788 151.954 371.314C151.073 371.077 150.225 370.998 149.408 371.077C148.572 371.167 147.714 371.433 146.833 371.875L146.516 369.727C147.335 369.268 148.279 368.992 149.348 368.898C150.402 368.801 151.485 368.902 152.597 369.201Z" fill="#7D4039"/>
<path d="M136.675 363.893C137.78 364.317 138.647 364.915 139.276 365.688C139.905 366.461 140.283 367.351 140.411 368.36C140.517 369.377 140.347 370.469 139.9 371.634C139.453 372.799 138.852 373.717 138.098 374.387C137.323 375.067 136.444 375.483 135.459 375.637C134.475 375.791 133.43 375.655 132.325 375.231C131.249 374.819 130.397 374.226 129.768 373.453C129.139 372.681 128.764 371.783 128.642 370.759C128.515 369.751 128.675 368.664 129.122 367.499C129.569 366.334 130.18 365.411 130.955 364.732C131.724 364.067 132.6 363.658 133.585 363.504C134.569 363.351 135.599 363.48 136.675 363.893ZM136.004 365.641C135.078 365.285 134.202 365.335 133.377 365.789C132.551 366.244 131.895 367.106 131.407 368.376C130.92 369.646 130.834 370.718 131.15 371.593C131.46 372.483 132.078 373.106 133.004 373.461C133.945 373.822 134.828 373.775 135.654 373.321C136.474 372.881 137.127 372.027 137.614 370.757C138.101 369.487 138.19 368.407 137.88 367.517C137.571 366.627 136.945 366.002 136.004 365.641Z" fill="#7D4039"/>
<path d="M125.721 359.53L120.497 370.012L118.392 368.963L119.259 367.223C118.587 367.675 117.861 367.912 117.081 367.935C116.287 367.95 115.503 367.765 114.73 367.38C112.253 366.145 111.713 364.125 113.112 361.318L116.334 354.852L118.504 355.933L115.346 362.27C114.896 363.172 114.747 363.92 114.898 364.514C115.035 365.1 115.475 365.579 116.22 365.95C117.094 366.386 117.935 366.456 118.743 366.162C119.529 365.874 120.148 365.28 120.597 364.377L123.551 358.449L125.721 359.53Z" fill="#7D4039"/>
<path d="M106.612 348.841C107.87 349.605 108.612 350.495 108.837 351.511C109.062 352.528 108.805 353.645 108.066 354.862L105.127 359.704L107.076 360.887L106.104 362.487L104.156 361.304L102.325 364.319L100.253 363.061L102.084 360.046L98.9857 358.165L99.9572 356.565L103.055 358.446L105.895 353.768C106.335 353.043 106.517 352.405 106.44 351.853C106.349 351.293 105.956 350.801 105.258 350.377C105.039 350.244 104.815 350.136 104.585 350.053C104.346 349.983 104.104 349.92 103.857 349.864L104.475 348.105C104.755 348.107 105.101 348.185 105.511 348.341C105.917 348.475 106.284 348.642 106.612 348.841Z" fill="#7D4039"/>
<path d="M97.3792 342.605C98.0402 343.084 98.5362 343.64 98.8671 344.274C99.1979 344.909 99.3595 345.559 99.3516 346.225C99.3308 346.881 99.1187 347.488 98.7154 348.046C98.2088 348.746 97.6352 349.17 96.9944 349.318C96.3407 349.457 95.5399 349.322 94.592 348.913C93.6311 348.494 92.4507 347.778 91.0508 346.765L90.3898 346.287L90.0239 346.792C89.4893 347.531 89.2602 348.175 89.3368 348.724C89.4134 349.273 89.8081 349.806 90.521 350.322C91.0654 350.716 91.6708 351.025 92.3371 351.251C92.9941 351.489 93.7344 351.64 94.558 351.703L94.1617 353.519C93.4159 353.513 92.5985 353.346 91.7096 353.019C90.8207 352.691 90.0392 352.284 89.3652 351.796C88.069 350.858 87.335 349.853 87.163 348.78C86.9817 347.721 87.3648 346.537 88.3122 345.227L92.5474 339.375L94.3944 340.712L93.2547 342.287C93.882 341.911 94.5545 341.746 95.2722 341.791C95.9899 341.837 96.6922 342.108 97.3792 342.605ZM95.9773 343.724C95.2773 343.217 94.5158 343.041 93.6927 343.196C92.8696 343.351 92.1861 343.804 91.642 344.556L91.2621 345.081L91.9037 345.545C92.85 346.23 93.6281 346.724 94.2382 347.027C94.8353 347.321 95.3302 347.442 95.723 347.391C96.0934 347.343 96.4146 347.131 96.6867 346.755C97.0431 346.263 97.1654 345.739 97.0535 345.184C96.9323 344.642 96.5735 344.155 95.9773 343.724Z" fill="#7D4039"/>
<path d="M87.4668 335.419L79.5908 344.087L77.85 342.505L79.125 341.102C78.4126 341.363 77.7017 341.42 76.9924 341.272C76.2831 341.125 75.6206 340.772 75.0048 340.212C73.6785 339.007 73.3472 337.647 74.0109 336.131C73.2436 336.428 72.4654 336.5 71.6765 336.345C70.8875 336.19 70.1674 335.817 69.5161 335.225C67.574 333.46 67.6574 331.418 69.7663 329.097L74.6243 323.75L76.4184 325.38L71.6411 330.638C70.974 331.372 70.6147 332.029 70.5632 332.609C70.4998 333.179 70.7583 333.727 71.3385 334.254C71.9898 334.846 72.7147 335.083 73.5133 334.966C74.3011 334.86 75.0501 334.416 75.7602 333.635L80.1663 328.786L81.9603 330.416L77.1831 335.673C76.516 336.408 76.1507 337.059 76.0874 337.629C76.024 338.198 76.2825 338.746 76.8627 339.274C77.514 339.865 78.239 340.103 79.0375 339.985C79.8135 339.869 80.5566 339.42 81.2667 338.638L85.6728 333.789L87.4668 335.419Z" fill="#7D4039"/>
<path d="M67.5919 315.467C68.3723 316.357 68.8607 317.291 69.0571 318.267C69.2535 319.244 69.173 320.208 68.8155 321.16C68.4354 322.11 67.7761 322.996 66.8375 323.819C65.899 324.641 64.9398 325.173 63.9602 325.415C62.9579 325.655 61.9856 325.613 61.0431 325.291C60.1006 324.968 59.2392 324.361 58.4588 323.471C57.6996 322.604 57.2217 321.683 57.0253 320.706C56.8288 319.729 56.9154 318.76 57.2849 317.798C57.6424 316.846 58.2904 315.959 59.229 315.137C60.1676 314.314 61.138 313.783 62.1402 313.543C63.1305 313.313 64.0968 313.36 65.0393 313.683C65.9818 314.006 66.8326 314.6 67.5919 315.467ZM66.184 316.7C65.5302 315.954 64.7322 315.59 63.79 315.607C62.8478 315.625 61.8653 316.081 60.8425 316.978C59.8197 317.874 59.2439 318.783 59.1152 319.704C58.9744 320.636 59.2309 321.475 59.8847 322.221C60.5491 322.979 61.3524 323.349 62.2946 323.332C63.2248 323.325 64.2013 322.874 65.2241 321.977C66.2469 321.081 66.8287 320.167 66.9694 319.235C67.1102 318.303 66.8484 317.459 66.184 316.7Z" fill="#7D4039"/>
<path d="M57.7033 303.029C58.2679 303.805 58.6977 304.601 58.9929 305.415C59.2752 306.238 59.3998 307.008 59.3668 307.725L57.6375 308.121C57.6258 307.398 57.5036 306.686 57.2707 305.985C57.0285 305.271 56.6956 304.622 56.2722 304.04C55.7735 303.354 55.2742 302.926 54.7742 302.755C54.2743 302.585 53.8173 302.65 53.4032 302.951C53.0667 303.196 52.8926 303.5 52.8808 303.865C52.8561 304.239 52.9613 304.697 53.1965 305.238L54.1686 307.35C55.0177 309.225 54.7693 310.652 53.4235 311.631C52.5306 312.28 51.5601 312.442 50.512 312.116C49.4639 311.79 48.5212 311.051 47.6837 309.899C47.2038 309.239 46.8445 308.541 46.6058 307.805C46.3577 307.055 46.2819 306.339 46.3784 305.655L48.1077 305.258C48.0535 305.891 48.1193 306.526 48.3051 307.162C48.4909 307.799 48.7626 308.363 49.1201 308.855C49.6094 309.528 50.1105 309.945 50.6234 310.106C51.1233 310.276 51.5868 310.206 52.0138 309.896C52.6609 309.426 52.7645 308.697 52.3246 307.712L51.3526 305.599C50.9092 304.636 50.7328 303.795 50.8235 303.076C50.9047 302.344 51.2882 301.729 51.9741 301.23C52.8799 300.572 53.8504 300.41 54.8856 300.745C55.9078 301.09 56.847 301.851 57.7033 303.029Z" fill="#7D4039"/>
<path d="M43.7009 280.217C44.2574 281.28 44.52 282.316 44.4887 283.326C44.4357 284.329 44.1166 285.254 43.5312 286.103C42.9316 286.958 42.079 287.675 40.9733 288.254C39.329 289.115 37.7871 289.326 36.3476 288.888C34.9081 288.449 33.7728 287.436 32.9418 285.849C32.6004 285.197 32.3762 284.492 32.2691 283.736C32.162 282.979 32.1993 282.291 32.3811 281.672L34.2469 281.563C34.0861 282.152 34.0468 282.733 34.129 283.304C34.1896 283.868 34.3312 284.363 34.5538 284.788C35.0806 285.795 35.8077 286.407 36.7349 286.626C37.6406 286.838 38.6746 286.64 39.837 286.032C40.9994 285.423 41.7727 284.675 42.157 283.788C42.5197 282.894 42.4376 281.943 41.9108 280.937C41.6882 280.512 41.3694 280.11 40.9544 279.731C40.5179 279.345 40.0114 279.051 39.4351 278.847L40.6099 277.365C41.2078 277.576 41.7908 277.948 42.3589 278.481C42.9197 279 43.367 279.579 43.7009 280.217Z" fill="#7D4039"/>
<path d="M37.4374 266.594C37.889 267.689 38.0503 268.73 37.9213 269.718C37.7924 270.705 37.4053 271.592 36.7601 272.378C36.094 273.154 35.1842 273.781 34.0305 274.257C32.8769 274.733 31.7974 274.927 30.7922 274.84C29.766 274.744 28.8589 274.391 28.0709 273.782C27.2828 273.172 26.663 272.32 26.2114 271.226C25.772 270.161 25.6168 269.135 25.7458 268.147C25.8748 267.159 26.2692 266.269 26.9292 265.478C27.5744 264.692 28.4738 264.061 29.6275 263.585C30.7811 263.109 31.871 262.919 32.8972 263.015C33.9085 263.117 34.8082 263.473 35.5962 264.082C36.3843 264.692 36.998 265.529 37.4374 266.594ZM35.7069 267.308C35.3286 266.391 34.6906 265.789 33.7932 265.501C32.8957 265.214 31.8184 265.33 30.5612 265.848C29.304 266.367 28.4659 267.042 28.0471 267.872C27.6134 268.709 27.5857 269.586 27.9641 270.503C28.3486 271.435 28.9895 272.044 29.887 272.332C30.7697 272.625 31.8396 272.513 33.0968 271.994C34.354 271.475 35.1994 270.797 35.6331 269.961C36.0668 269.124 36.0914 268.24 35.7069 267.308Z" fill="#7D4039"/>
<path d="M33.078 255.638L21.8731 259.047L21.1885 256.797L23.0483 256.231C22.2584 256.053 21.5872 255.689 21.0349 255.138C20.4779 254.571 20.0737 253.875 19.8222 253.048C19.0164 250.4 20.1137 248.619 23.1138 247.707L30.025 245.604L30.7306 247.923L23.9572 249.984C22.9929 250.277 22.347 250.683 22.0195 251.2C21.6874 251.703 21.6424 252.352 21.8846 253.148C22.1687 254.082 22.6954 254.741 23.4647 255.126C24.214 255.5 25.0709 255.54 26.0352 255.247L32.3724 253.319L33.078 255.638Z" fill="#7D4039"/>
<path d="M25.9435 223.909C26.1655 225.364 25.9591 226.505 25.3244 227.33C24.6896 228.155 23.6683 228.675 22.2606 228.89L16.6614 229.744L17.0054 231.998L15.1548 232.281L14.8109 230.027L11.3232 230.559L10.9576 228.163L14.4452 227.63L13.8985 224.048L15.7491 223.765L16.2958 227.348L21.7052 226.523C22.5435 226.395 23.1496 226.124 23.5236 225.711C23.8951 225.282 24.0193 224.664 23.8962 223.858C23.8576 223.604 23.7965 223.363 23.7128 223.133C23.6134 222.905 23.506 222.679 23.3907 222.454L25.1359 221.799C25.3144 222.015 25.4758 222.33 25.6201 222.745C25.7778 223.142 25.8855 223.53 25.9435 223.909Z" fill="#7D4039"/>
<path d="M24.7056 211.494C24.7861 212.675 24.6084 213.714 24.1723 214.61C23.7362 215.505 23.0876 216.223 22.2263 216.763C21.348 217.288 20.2863 217.593 19.0412 217.678C17.7961 217.763 16.7108 217.604 15.7853 217.202C14.8427 216.785 14.0946 216.163 13.541 215.335C12.9874 214.506 12.6703 213.502 12.5897 212.32C12.5113 211.171 12.6902 210.148 13.1262 209.253C13.5623 208.357 14.2189 207.639 15.0962 207.098C15.9574 206.558 17.0106 206.245 18.2557 206.161C19.5008 206.076 20.5947 206.242 21.5372 206.658C22.4638 207.076 23.2039 207.699 23.7575 208.528C24.3112 209.356 24.6272 210.345 24.7056 211.494ZM22.8379 211.621C22.7704 210.632 22.3568 209.858 21.5971 209.3C20.8374 208.743 19.7791 208.51 18.4223 208.603C17.0654 208.695 16.0565 209.069 15.3955 209.723C14.7186 210.379 14.4138 211.202 14.4813 212.191C14.5499 213.197 14.964 213.979 15.7237 214.536C16.4675 215.095 17.5178 215.328 18.8746 215.235C20.2315 215.143 21.2484 214.769 21.9253 214.113C22.6023 213.458 22.9065 212.627 22.8379 211.621Z" fill="#7D4039"/>
<path d="M24.3922 195.273C24.3611 196.297 24.0938 197.193 23.5902 197.962C23.0711 198.715 22.3492 199.293 21.4244 199.697C20.4997 200.101 19.4137 200.284 18.1663 200.246C16.9188 200.209 15.8539 199.96 14.9714 199.501C14.073 199.042 13.3875 198.42 12.9151 197.638C12.4427 196.855 12.2223 195.944 12.2539 194.904C12.2806 194.025 12.4963 193.247 12.9011 192.571C13.3058 191.895 13.8411 191.399 14.507 191.083L7.38231 190.866L7.45597 188.444L24.3682 188.958L24.296 191.333L22.2569 191.271C22.9504 191.628 23.4863 192.164 23.8647 192.88C24.2436 193.58 24.4195 194.378 24.3922 195.273ZM22.5401 194.593C22.5702 193.601 22.2347 192.791 21.5335 192.161C20.8323 191.531 19.802 191.196 18.4427 191.155C17.0833 191.113 16.0425 191.386 15.3204 191.972C14.5822 192.558 14.1981 193.347 14.1679 194.338C14.1373 195.346 14.4726 196.164 15.1738 196.794C15.859 197.423 16.8813 197.758 18.2406 197.8C19.6 197.841 20.6488 197.569 21.3869 196.983C22.1251 196.397 22.5094 195.6 22.5401 194.593Z" fill="#7D4039"/>
<path d="M25.6763 178.282C25.5735 179.092 25.323 179.794 24.9249 180.388C24.5268 180.983 24.0337 181.436 23.4457 181.749C22.8596 182.045 22.2254 182.15 21.5428 182.064C20.6857 181.955 20.0384 181.655 19.6008 181.164C19.1652 180.657 18.8998 179.889 18.8046 178.861C18.7114 177.817 18.7737 176.438 18.9915 174.724L19.0943 173.914L18.4753 173.835C17.5705 173.72 16.8956 173.828 16.4504 174.159C16.0052 174.489 15.7271 175.091 15.6162 175.964C15.5315 176.631 15.55 177.31 15.6717 178.003C15.7775 178.694 16.0003 179.416 16.3401 180.169L14.556 180.692C14.204 180.035 13.9585 179.237 13.8195 178.3C13.6805 177.363 13.6634 176.482 13.7682 175.657C13.9698 174.07 14.5 172.943 15.3586 172.278C16.2014 171.611 17.4244 171.379 19.0275 171.583L26.1939 172.493L25.9066 174.755L23.9781 174.51C24.6084 174.881 25.0758 175.392 25.3801 176.043C25.6844 176.695 25.7831 177.441 25.6763 178.282ZM24.0226 177.588C24.1314 176.731 23.9206 175.979 23.39 175.331C22.8594 174.683 22.1339 174.3 21.2133 174.183L20.5704 174.102L20.4706 174.887C20.3234 176.046 20.2631 176.966 20.2895 177.646C20.3179 178.311 20.4489 178.804 20.6824 179.124C20.9021 179.426 21.2421 179.606 21.7024 179.665C22.3056 179.741 22.8238 179.597 23.2572 179.233C23.6747 178.867 23.9298 178.318 24.0226 177.588Z" fill="#7D4039"/>
<path d="M28.4463 162.182C28.2417 163.12 27.9335 163.97 27.5218 164.731C27.0943 165.49 26.6021 166.095 26.0451 166.546L24.5989 165.519C25.1315 165.029 25.5822 164.464 25.9511 163.824C26.3234 163.168 26.5862 162.489 26.7396 161.785C26.9203 160.957 26.9082 160.299 26.7032 159.812C26.4983 159.325 26.1457 159.027 25.6454 158.918C25.239 158.829 24.8956 158.902 24.6154 159.136C24.3196 159.366 24.0477 159.749 23.7999 160.284L22.8686 162.415C22.0325 164.296 20.8016 165.059 19.1758 164.704C18.0972 164.469 17.3312 163.852 16.8778 162.852C16.4243 161.853 16.3493 160.657 16.6528 159.266C16.8267 158.469 17.1093 157.736 17.5006 157.068C17.8953 156.384 18.38 155.851 18.9547 155.469L20.4009 156.497C19.8922 156.877 19.4619 157.348 19.1101 157.91C18.7582 158.472 18.5176 159.05 18.388 159.644C18.2107 160.457 18.2324 161.109 18.453 161.599C18.6579 162.086 19.0183 162.386 19.5342 162.498C20.3158 162.669 20.9286 162.262 21.3725 161.278L22.3038 159.147C22.7287 158.175 23.2397 157.484 23.8368 157.074C24.4373 156.648 25.1518 156.526 25.9803 156.707C27.0746 156.945 27.8407 157.563 28.2784 158.559C28.7006 159.552 28.7565 160.759 28.4463 162.182Z" fill="#7D4039"/>
<path d="M35.7036 137.777C35.2634 138.979 34.5952 139.757 33.699 140.11C32.8083 140.448 31.7094 140.378 30.4023 139.899L18.3005 135.467L19.1342 133.191L31.1008 137.574C32.5882 138.119 33.5547 137.782 34.0004 136.566C34.0665 136.385 34.1195 136.217 34.1595 136.061C34.205 135.891 34.2355 135.714 34.251 135.533L36.0599 136.246C35.9929 136.801 35.8742 137.311 35.7036 137.777Z" fill="#7D4039"/>
<path d="M40.1022 127.236C39.7625 127.978 39.3139 128.574 38.7566 129.022C38.1992 129.471 37.5932 129.757 36.9388 129.879C36.2909 129.987 35.6543 129.898 35.0287 129.612C34.2431 129.252 33.7148 128.773 33.4437 128.173C33.1792 127.56 33.1549 126.748 33.3709 125.738C33.5936 124.714 34.0646 123.416 34.7839 121.845L35.1237 121.103L34.5563 120.843C33.7271 120.463 33.0507 120.365 32.5272 120.548C32.0036 120.73 31.5586 121.222 31.1923 122.022C30.9125 122.633 30.7273 123.287 30.6367 123.985C30.5315 124.675 30.5288 125.431 30.6285 126.251L28.7694 126.218C28.6297 125.485 28.6334 124.651 28.7803 123.715C28.9272 122.779 29.1738 121.933 29.5202 121.177C30.1863 119.722 31.0284 118.805 32.0464 118.427C33.0498 118.042 34.2862 118.185 35.7555 118.858L42.3237 121.866L41.3746 123.939L39.607 123.129C40.0981 123.671 40.3917 124.298 40.4877 125.011C40.5837 125.723 40.4552 126.465 40.1022 127.236ZM38.7309 126.08C39.0906 125.295 39.1139 124.514 38.8009 123.737C38.4879 122.96 37.9095 122.378 37.0658 121.992L36.4766 121.722L36.1469 122.442C35.6606 123.504 35.3285 124.364 35.1506 125.022C34.9793 125.665 34.9574 126.174 35.0848 126.549C35.2043 126.903 35.475 127.177 35.8969 127.37C36.4497 127.623 36.9873 127.64 37.5096 127.422C38.0174 127.197 38.4245 126.75 38.7309 126.08Z" fill="#7D4039"/>
<path d="M47.5503 112.697C47.0752 113.531 46.5275 114.25 45.9071 114.854C45.2729 115.45 44.6225 115.881 43.9561 116.146L42.8825 114.733C43.537 114.425 44.1357 114.02 44.6788 113.519C45.2298 113.004 45.6835 112.434 46.0399 111.809C46.4596 111.072 46.6443 110.44 46.5939 109.915C46.5436 109.389 46.296 108.999 45.8511 108.746C45.4896 108.54 45.1403 108.507 44.8031 108.646C44.452 108.777 44.0783 109.062 43.682 109.499L42.1573 111.254C40.798 112.8 39.3954 113.161 37.9495 112.338C36.9902 111.791 36.4434 110.973 36.3089 109.884C36.1744 108.795 36.4596 107.631 37.1644 106.394C37.5683 105.685 38.0566 105.07 38.6294 104.549C39.2102 104.015 39.8318 103.651 40.4944 103.457L41.568 104.87C40.969 105.081 40.4177 105.402 39.9142 105.834C39.4107 106.265 39.0085 106.745 38.7076 107.273C38.2958 107.996 38.122 108.624 38.1863 109.158C38.2366 109.684 38.4912 110.078 38.95 110.339C39.6451 110.735 40.3513 110.529 41.0686 109.723L42.5933 107.967C43.2888 107.167 43.9827 106.659 44.675 106.446C45.3753 106.219 46.0938 106.315 46.8306 106.735C47.8038 107.289 48.3507 108.107 48.4713 109.189C48.578 110.262 48.271 111.431 47.5503 112.697Z" fill="#7D4039"/>
<path d="M62.5752 90.5439C61.8354 91.4888 60.999 92.1548 60.066 92.5419C59.1303 92.9066 58.1554 92.9968 57.1414 92.8125C56.1148 92.6184 55.1102 92.1367 54.1275 91.3674C52.6661 90.2232 51.8388 88.905 51.6457 87.4127C51.4526 85.9204 51.9084 84.4687 53.0131 83.0577C53.4668 82.4782 54.0164 81.9838 54.6618 81.5747C55.3072 81.1656 55.9493 80.9165 56.5881 80.8273L57.4564 82.4825C56.8526 82.5788 56.3075 82.7819 55.821 83.0919C55.3317 83.3794 54.9391 83.7121 54.6432 84.0901C53.943 84.9846 53.6839 85.8994 53.8662 86.8346C54.0457 87.7473 54.652 88.608 55.6851 89.4168C56.7181 90.2256 57.7181 90.6224 58.685 90.6073C59.6492 90.5696 60.4814 90.1036 61.1817 89.2091C61.4776 88.8312 61.7127 88.3752 61.887 87.841C62.0586 87.2845 62.1187 86.7016 62.0673 86.0924L63.9014 86.5529C63.9555 87.1846 63.8565 87.8691 63.6044 88.6064C63.3621 89.3311 63.019 89.977 62.5752 90.5439Z" fill="#7D4039"/>
<path d="M72.6946 78.9215C71.3822 80.323 69.9574 81.0602 68.4203 81.1332C66.8715 81.1954 65.414 80.5866 64.0476 79.307C63.1717 78.4867 62.565 77.5897 62.2274 76.616C61.8891 75.6196 61.8284 74.6311 62.0452 73.6505C62.2621 72.6699 62.7533 71.7709 63.5189 70.9534C64.6235 69.7738 65.8726 69.2008 67.266 69.2344C68.6477 69.257 69.9985 69.8862 71.3181 71.1221L71.9137 71.6798L66.0407 77.9512C67.9361 79.4851 69.7041 79.3762 71.3446 77.6244C71.8039 77.1339 72.1764 76.584 72.4621 75.9747C72.7587 75.3537 72.9287 74.6689 72.972 73.9204L74.6904 74.5433C74.6799 75.2567 74.4895 76.0101 74.1193 76.8033C73.7491 77.5965 73.2742 78.3026 72.6946 78.9215ZM64.8283 72.0481C64.1393 72.7838 63.8202 73.581 63.871 74.4396C63.9218 75.2983 64.283 76.1297 64.9546 76.9341L69.4332 72.1517C68.6062 71.4431 67.7963 71.0791 67.0032 71.0598C66.1985 71.0296 65.4736 71.359 64.8283 72.0481Z" fill="#7D4039"/>
<path d="M80.009 71.3558L72.1345 62.6862L73.8755 61.1048L75.2794 62.6504C74.7935 61.2113 75.2075 59.787 76.5211 58.3776L77.0751 57.8096L78.5872 59.2245L77.6003 60.3154C76.1649 61.9001 76.1142 63.4268 77.4482 64.8954L81.8211 69.7099L80.009 71.3558Z" fill="#7D4039"/>
<path d="M93.4535 60.2796C92.2967 61.1898 91.2029 61.5721 90.172 61.4263C89.1412 61.2806 88.1855 60.6481 87.3049 59.529L83.8025 55.0778L82.0106 56.4876L80.853 55.0165L82.6449 53.6066L80.4633 50.834L82.3683 49.335L84.5499 52.1076L87.3979 49.8667L88.5555 51.3379L85.7074 53.5788L89.0912 57.8792C89.6155 58.5456 90.1496 58.9398 90.6934 59.0616C91.2497 59.1736 91.8485 58.9772 92.4898 58.4726C92.691 58.3143 92.8711 58.1421 93.03 57.956C93.179 57.7573 93.3231 57.5523 93.4623 57.341L94.892 58.537C94.7924 58.7986 94.5976 59.0944 94.3076 59.4244C94.04 59.7571 93.7553 60.0421 93.4535 60.2796Z" fill="#7D4039"/>
<path d="M91.0009 43.9655L89.5706 41.8907L91.9023 40.2834L93.3325 42.3582L91.0009 43.9655ZM99.3651 55.7187L92.7179 46.0758L94.7137 44.7L101.361 54.3429L99.3651 55.7187Z" fill="#7D4039"/>
<path d="M108.102 49.9937L103.039 41.5559L101.084 42.7289L100.121 41.1237L102.076 39.9506L101.965 39.7654C101.134 38.3797 100.858 37.1271 101.138 36.0075C101.431 34.8798 102.288 33.8343 103.706 32.8712L104.575 32.2662L105.657 33.7438L104.748 34.3736C103.944 34.9306 103.476 35.5191 103.344 36.1393C103.226 36.7512 103.402 37.4482 103.871 38.2302L104.155 38.7035L106.974 37.0119L107.937 38.6172L105.118 40.3088L110.18 48.7466L108.102 49.9937Z" fill="#7D4039"/>
<path d="M111.518 31.4752L110.361 29.2368L112.876 27.9359L114.034 30.1743L111.518 31.4752ZM118.336 44.1881L112.956 33.7849L115.109 32.6714L120.489 43.0746L118.336 44.1881Z" fill="#7D4039"/>
<path d="M131.881 38.0354C130.779 38.51 129.725 38.6935 128.721 38.5859C127.725 38.4573 126.826 38.0691 126.025 37.4212C125.217 36.7587 124.566 35.8543 124.073 34.708C123.339 33.0033 123.245 31.4499 123.791 30.0477C124.337 28.6454 125.433 27.59 127.078 26.8813C127.754 26.5903 128.474 26.42 129.236 26.3704C129.999 26.3208 130.682 26.41 131.285 26.6379L131.254 28.5068C130.678 28.3018 130.102 28.2188 129.526 28.2575C128.959 28.2753 128.455 28.3791 128.014 28.5689C126.971 29.0181 126.305 29.6968 126.016 30.6049C125.736 31.4919 125.856 32.538 126.375 33.743C126.893 34.9481 127.581 35.7757 128.437 36.226C129.301 36.6552 130.255 36.6452 131.298 36.196C131.739 36.0062 132.164 35.7187 132.573 35.3335C132.99 34.9274 133.322 34.4447 133.569 33.8854L134.958 35.1688C134.703 35.7491 134.288 36.3023 133.713 36.8285C133.153 37.3484 132.542 37.7507 131.881 38.0354Z" fill="#7D4039"/>
<path d="M144.668 33.2346C143.893 33.4899 143.152 33.5657 142.444 33.462C141.736 33.3582 141.114 33.1081 140.579 32.7115C140.06 32.31 139.692 31.7824 139.477 31.129C139.207 30.3083 139.199 29.5949 139.454 28.9887C139.725 28.3774 140.303 27.8077 141.191 27.2796C142.093 26.7465 143.365 26.2097 145.006 25.6691L145.781 25.4138L145.586 24.8211C145.301 23.9549 144.913 23.3919 144.423 23.1321C143.934 22.8723 143.271 22.8801 142.435 23.1554C141.797 23.3656 141.191 23.6746 140.618 24.0824C140.04 24.475 139.484 24.9866 138.95 25.6171L137.71 24.2314C138.153 23.6309 138.767 23.0664 139.553 22.5379C140.339 22.0095 141.127 21.6151 141.918 21.3548C143.437 20.8543 144.682 20.8486 145.652 21.3378C146.617 21.8118 147.352 22.8162 147.857 24.3511L150.117 31.2125L147.952 31.9258L147.343 30.0793C147.28 30.8077 147.02 31.4494 146.562 32.0043C146.105 32.5592 145.474 32.9693 144.668 33.2346ZM144.584 31.4432C145.404 31.1729 145.993 30.6589 146.35 29.9012C146.707 29.1436 146.74 28.324 146.45 27.4426L146.247 26.8271L145.495 27.0749C144.385 27.4403 143.529 27.7813 142.926 28.0979C142.338 28.4095 141.95 28.7395 141.761 29.088C141.583 29.4162 141.566 29.8007 141.711 30.2414C141.902 30.8189 142.254 31.2249 142.77 31.4595C143.28 31.6789 143.885 31.6734 144.584 31.4432Z" fill="#7D4039"/>
<path d="M161.423 28.5721C160.255 28.8454 159.186 28.8408 158.216 28.5583C157.258 28.2566 156.441 27.7164 155.766 26.9377C155.087 26.1434 154.606 25.1387 154.322 23.9235C153.899 22.1163 154.079 20.5705 154.864 19.2861C155.648 18.0018 156.912 17.1555 158.657 16.7473C159.374 16.5797 160.112 16.5385 160.871 16.6238C161.63 16.709 162.287 16.9169 162.841 17.2475L162.481 19.0816C161.95 18.7786 161.398 18.5955 160.825 18.5325C160.263 18.4502 159.749 18.4638 159.281 18.5731C158.175 18.8319 157.4 19.3829 156.957 20.2261C156.525 21.0501 156.459 22.1008 156.757 23.3783C157.056 24.6558 157.587 25.5914 158.351 26.1852C159.126 26.7597 160.067 26.9176 161.173 26.6588C161.64 26.5495 162.109 26.3412 162.579 26.034C163.062 25.7075 163.474 25.2908 163.815 24.7837L164.956 26.2913C164.603 26.8176 164.097 27.2893 163.439 27.7062C162.796 28.1194 162.124 28.4081 161.423 28.5721Z" fill="#7D4039"/>
<path d="M168.683 12.2384L168.283 9.75021L171.08 9.30156L171.479 11.7897L168.683 12.2384ZM171.181 26.446L169.325 14.8819L171.719 14.4979L173.574 26.062L171.181 26.446Z" fill="#7D4039"/>
<path d="M185.884 24.8513C184.704 24.9498 183.663 24.7879 182.76 24.3656C181.858 23.9432 181.131 23.3056 180.578 22.4526C180.039 21.5824 179.718 20.5255 179.614 19.2818C179.51 18.0381 179.652 16.9505 180.04 16.019C180.443 15.0702 181.054 14.3127 181.873 13.7466C182.693 13.1804 183.693 12.848 184.873 12.7494C186.021 12.6535 187.046 12.8168 187.948 13.2391C188.851 13.6615 189.579 14.3071 190.133 15.176C190.686 16.0289 191.014 17.0772 191.118 18.3209C191.222 19.5646 191.073 20.6608 190.67 21.6096C190.267 22.5424 189.655 23.292 188.835 23.8582C188.016 24.4244 187.032 24.7554 185.884 24.8513ZM185.728 22.9858C186.716 22.9032 187.484 22.4779 188.03 21.7098C188.576 20.9417 188.792 19.88 188.679 18.5247C188.566 17.1694 188.177 16.1663 187.512 15.5153C186.846 14.8484 186.019 14.5563 185.031 14.6389C184.026 14.7228 183.251 15.1488 182.705 15.9169C182.158 16.669 181.941 17.7228 182.054 19.078C182.167 20.4333 182.557 21.4444 183.222 22.1113C183.888 22.7782 184.723 23.0697 185.728 22.9858Z" fill="#7D4039"/>
<path d="M197.644 24.0196L197.792 12.3085L200.144 12.3382L200.119 14.2821C200.528 13.5832 201.079 13.0541 201.771 12.6948C202.48 12.3357 203.266 12.1616 204.13 12.1726C206.898 12.2075 208.262 13.7928 208.222 16.9286L208.131 24.152L205.707 24.1214L205.797 17.042C205.809 16.0341 205.619 15.2956 205.225 14.8266C204.847 14.3578 204.242 14.1181 203.41 14.1076C202.434 14.0953 201.646 14.3974 201.046 15.0138C200.462 15.6145 200.164 16.4188 200.151 17.4267L200.068 24.0502L197.644 24.0196Z" fill="#7D4039"/>
<path d="M219.965 25.4071C218.056 25.2038 216.609 24.5108 215.625 23.3279C214.642 22.1292 214.25 20.599 214.448 18.7376C214.575 17.5443 214.926 16.5196 215.5 15.6636C216.091 14.7933 216.843 14.1493 217.757 13.7317C218.67 13.314 219.684 13.1645 220.797 13.283C222.404 13.4541 223.614 14.1058 224.427 15.2382C225.241 16.3547 225.553 17.8119 225.361 19.6097L225.275 20.4211L216.731 19.5116C216.649 21.9485 217.801 23.2941 220.187 23.5481C220.855 23.6193 221.519 23.5853 222.177 23.4462C222.851 23.3088 223.5 23.032 224.124 22.6157L224.662 24.3624C224.086 24.7838 223.37 25.0857 222.514 25.2681C221.658 25.4505 220.808 25.4968 219.965 25.4071ZM220.712 14.9876C219.71 14.8809 218.881 15.1065 218.227 15.6643C217.572 16.2221 217.126 17.0113 216.889 18.0319L223.404 18.7255C223.471 17.6386 223.274 16.7728 222.811 16.1282C222.351 15.4678 221.651 15.0876 220.712 14.9876Z" fill="#7D4039"/>
<path d="M234.376 27.6656C233.434 27.4801 232.578 27.1892 231.808 26.793C231.041 26.381 230.426 25.9012 229.964 25.3534L230.962 23.8867C231.462 24.4092 232.036 24.8484 232.684 25.2042C233.347 25.5631 234.032 25.8121 234.738 25.9512C235.57 26.1151 236.227 26.0896 236.71 25.8748C237.193 25.66 237.483 25.3014 237.582 24.7991C237.663 24.3909 237.583 24.0491 237.344 23.7737C237.108 23.4826 236.719 23.2186 236.179 22.9817L234.03 22.0937C232.132 21.296 231.344 20.0809 231.666 18.4482C231.879 17.365 232.481 16.5866 233.471 16.113C234.461 15.6394 235.655 15.5402 237.052 15.8153C237.853 15.973 238.591 16.2407 239.267 16.6184C239.958 16.9992 240.501 17.473 240.895 18.0397L239.896 19.5065C239.506 19.0056 239.026 18.585 238.457 18.2446C237.888 17.9043 237.305 17.6754 236.709 17.5579C235.893 17.3971 235.242 17.432 234.756 17.6625C234.273 17.8773 233.981 18.2437 233.879 18.7618C233.724 19.5467 234.144 20.1511 235.136 20.5749L237.285 21.4628C238.265 21.8679 238.967 22.3647 239.389 22.9534C239.827 23.5452 239.964 24.257 239.8 25.0891C239.584 26.188 238.982 26.9664 237.995 27.4243C237.011 27.8665 235.805 27.9469 234.376 27.6656Z" fill="#7D4039"/>
<path d="M255.035 37.4043L258.561 33.7459L257.79 21.363L260.23 22.2358L260.622 31.832L267.055 24.6764L269.405 25.5168L257.431 38.2609L255.035 37.4043Z" fill="#7D4039"/>
<path d="M279.988 43.0829L285.758 32.8909L287.805 34.0496L286.871 35.6996C287.508 35.2882 288.189 35.0761 288.913 35.0633C289.637 35.0505 290.362 35.249 291.086 35.6589C292.645 36.5418 293.268 37.7955 292.955 39.4201C293.638 38.961 294.381 38.7198 295.185 38.6968C295.989 38.6737 296.773 38.879 297.539 39.3125C299.823 40.6053 300.192 42.6162 298.647 45.3452L295.088 51.6316L292.978 50.4374L296.478 44.2554C296.967 43.3921 297.172 42.6719 297.095 42.0947C297.031 41.5254 296.658 41.0476 295.976 40.6613C295.21 40.2278 294.451 40.1564 293.698 40.4472C292.952 40.724 292.32 41.3219 291.8 42.2409L288.572 47.9425L286.462 46.7483L289.962 40.5663C290.451 39.703 290.663 38.9867 290.599 38.4174C290.536 37.8481 290.163 37.3703 289.48 36.9841C288.715 36.5505 287.955 36.4791 287.202 36.7699C286.471 37.0546 285.845 37.6565 285.325 38.5754L282.097 44.2771L279.988 43.0829Z" fill="#7D4039"/>
<path d="M302.693 57.3756C302.032 56.8973 301.536 56.341 301.205 55.7066C300.874 55.0722 300.712 54.4221 300.72 53.7562C300.741 53.0998 300.953 52.4929 301.356 51.9354C301.862 51.2354 302.436 50.811 303.077 50.6624C303.73 50.5231 304.531 50.6581 305.479 51.0674C306.44 51.4861 307.621 52.2019 309.021 53.2147L309.682 53.693L310.048 53.1874C310.582 52.4485 310.811 51.8044 310.735 51.2553C310.658 50.7061 310.263 50.1736 309.55 49.6578C309.006 49.264 308.4 48.9544 307.734 48.729C307.077 48.4907 306.336 48.3402 305.513 48.2776L305.909 46.4609C306.655 46.4673 307.472 46.634 308.361 46.9611C309.25 47.2883 310.031 47.6956 310.706 48.1833C312.002 49.1211 312.736 50.1262 312.908 51.1986C313.09 52.258 312.707 53.4424 311.76 54.7517L307.526 60.6048L305.678 59.2684L306.818 57.6933C306.191 58.069 305.518 58.2342 304.8 58.189C304.083 58.1437 303.38 57.8726 302.693 57.3756ZM304.095 56.2568C304.795 56.7633 305.557 56.939 306.38 56.7839C307.203 56.6289 307.886 56.1755 308.43 55.4236L308.81 54.8986L308.168 54.4344C307.222 53.7498 306.444 53.2559 305.833 52.9528C305.236 52.659 304.741 52.538 304.349 52.5895C303.978 52.6375 303.657 52.8495 303.385 53.2254C303.029 53.7181 302.906 54.2418 303.018 54.7968C303.14 55.3388 303.499 55.8255 304.095 56.2568ZM310.852 46.6301L315.696 44.1511L317.699 45.6L312.213 47.6148L310.852 46.6301Z" fill="#7D4039"/>
<path d="M315.495 67.5245C314.77 66.8953 314.172 66.2175 313.701 65.491C313.24 64.7524 312.945 64.0304 312.816 63.325L314.411 62.5484C314.586 63.2506 314.866 63.917 315.25 64.5475C315.648 65.1886 316.118 65.745 316.662 66.2169C317.302 66.7726 317.885 67.0772 318.411 67.1307C318.936 67.1842 319.367 67.0176 319.702 66.6309C319.975 66.3166 320.076 65.9806 320.005 65.6226C319.945 65.2526 319.739 64.8305 319.388 64.3564L317.965 62.5177C316.715 60.8823 316.635 59.4362 317.725 58.1793C318.449 57.3455 319.358 56.9691 320.453 57.0504C321.547 57.1316 322.632 57.6388 323.708 58.572C324.324 59.1068 324.832 59.706 325.23 60.3696C325.641 61.0437 325.876 61.7245 325.937 62.4121L324.341 63.1887C324.251 62.5599 324.044 61.9565 323.72 61.3783C323.395 60.8002 323.003 60.3119 322.544 59.9135C321.916 59.3682 321.333 59.0749 320.797 59.0335C320.272 58.98 319.836 59.1526 319.49 59.5514C318.966 60.1557 319.029 60.8885 319.68 61.7497L321.103 63.5883C321.752 64.427 322.114 65.2067 322.188 65.9273C322.273 66.6585 322.038 67.3443 321.483 67.9848C320.749 68.8308 319.84 69.2071 318.756 69.1138C317.682 69.0084 316.595 68.4787 315.495 67.5245Z" fill="#7D4039"/>
<path d="M333.81 86.0458C333.149 85.264 332.749 84.4188 332.609 83.5103C332.491 82.6036 332.641 81.6908 333.059 80.772C333.476 79.8532 334.161 78.9908 335.114 78.1848C336.067 77.3788 337.025 76.8514 337.988 76.6025C338.963 76.3434 339.888 76.3468 340.763 76.6128C341.637 76.8788 342.41 77.4089 343.082 78.2029C343.65 78.8747 344.01 79.5973 344.161 80.3706C344.313 81.1439 344.246 81.8706 343.962 82.5508L349.404 77.9473L350.97 79.798L338.052 90.7254L336.517 88.9114L338.075 87.5939C337.32 87.792 336.563 87.7515 335.803 87.4724C335.053 87.2054 334.389 86.7299 333.81 86.0458ZM335.643 85.3133C336.283 86.0706 337.075 86.4489 338.017 86.4481C338.96 86.4473 339.95 86.0077 340.988 85.1294C342.027 84.2511 342.618 83.3525 342.763 82.4336C342.92 81.5044 342.678 80.6612 342.038 79.9038C341.387 79.1342 340.59 78.7498 339.648 78.7506C338.717 78.7411 337.733 79.1755 336.695 80.0538C335.656 80.9321 335.059 81.8359 334.902 82.7651C334.745 83.6943 334.992 84.5437 335.643 85.3133Z" fill="#7D4039"/>
<path d="M345.217 100.977C344.123 99.3996 343.702 97.8516 343.954 96.3335C344.219 94.8063 345.121 93.5095 346.66 92.443C347.646 91.7594 348.65 91.355 349.673 91.2299C350.719 91.1089 351.698 91.2575 352.611 91.6759C353.524 92.0943 354.299 92.7637 354.937 93.6842C355.858 95.0123 356.155 96.354 355.829 97.7091C355.516 99.0552 354.617 100.243 353.131 101.273L352.46 101.738L347.566 94.6768C345.667 96.207 345.402 97.9583 346.769 99.9307C347.152 100.483 347.611 100.963 348.146 101.37C348.691 101.791 349.325 102.101 350.047 102.301L349.077 103.85C348.382 103.69 347.685 103.345 346.988 102.816C346.29 102.287 345.7 101.674 345.217 100.977ZM353.592 94.7339C353.017 93.9055 352.305 93.4257 351.455 93.2947C350.605 93.1637 349.716 93.3418 348.788 93.8291L352.521 99.2138C353.388 98.5545 353.914 97.8393 354.1 97.0681C354.299 96.2878 354.129 95.5097 353.592 94.7339Z" fill="#7D4039"/>
<path d="M358.373 123.772C357.879 122.749 357.561 121.703 357.419 120.635C357.291 119.56 357.358 118.576 357.621 117.686L359.726 117.629C359.505 118.571 359.439 119.464 359.527 120.31C359.615 121.156 359.854 121.982 360.244 122.789C360.744 123.827 361.346 124.504 362.05 124.822C362.761 125.154 363.535 125.118 364.371 124.715C365.206 124.312 365.694 123.739 365.833 122.997C365.979 122.269 365.806 121.393 365.312 120.37L364.175 118.014L366.056 117.107L367.088 119.246C367.526 120.154 368.101 120.756 368.812 121.053C369.531 121.363 370.293 121.324 371.1 120.934C371.835 120.58 372.279 120.064 372.432 119.386C372.599 118.701 372.463 117.905 372.025 116.997C371.281 115.455 370.076 114.376 368.41 113.758L369.743 112.156C370.618 112.462 371.427 112.978 372.168 113.704C372.931 114.437 373.545 115.287 374.011 116.252C374.748 117.78 374.968 119.139 374.673 120.33C374.391 121.514 373.631 122.405 372.392 123.003C371.556 123.406 370.717 123.545 369.874 123.418C369.038 123.306 368.296 122.945 367.646 122.335C367.853 123.354 367.744 124.269 367.317 125.078C366.905 125.881 366.224 126.512 365.273 126.971C363.933 127.618 362.644 127.653 361.407 127.078C360.177 126.516 359.165 125.415 358.373 123.772Z" fill="#7D4039"/>
<path d="M365.343 140.374C364.671 138.524 364.856 136.857 365.9 135.371C366.964 133.895 368.811 132.679 371.443 131.722C374.12 130.75 376.317 130.496 378.035 130.961C379.774 131.436 380.979 132.598 381.652 134.447C382.329 136.312 382.151 137.977 381.117 139.442C380.099 140.902 378.259 142.115 375.597 143.083C372.95 144.045 370.743 144.294 368.974 143.83C367.226 143.376 366.015 142.224 365.343 140.374ZM367.283 139.669C367.698 140.812 368.511 141.479 369.721 141.669C370.93 141.859 372.61 141.563 374.761 140.782C376.911 140 378.374 139.154 379.149 138.242C379.945 137.34 380.132 136.31 379.712 135.152C379.296 134.009 378.491 133.34 377.297 133.144C376.102 132.949 374.437 133.239 372.302 134.015C370.151 134.796 368.673 135.648 367.868 136.571C367.063 137.494 366.868 138.526 367.283 139.669Z" fill="#7D4039"/>
<path d="M372.457 166.045C372.301 165.244 372.32 164.499 372.512 163.809C372.704 163.12 373.03 162.535 373.491 162.054C373.954 161.589 374.524 161.291 375.199 161.16C376.047 160.995 376.756 161.077 377.325 161.406C377.898 161.752 378.39 162.397 378.802 163.344C379.218 164.307 379.59 165.636 379.92 167.332L380.076 168.133L380.688 168.014C381.583 167.84 382.191 167.526 382.51 167.073C382.83 166.62 382.905 165.961 382.737 165.098C382.609 164.438 382.379 163.798 382.046 163.178C381.73 162.555 381.292 161.939 380.734 161.331L382.264 160.275C382.804 160.79 383.287 161.47 383.712 162.316C384.138 163.163 384.43 163.994 384.589 164.811C384.894 166.382 384.743 167.617 384.136 168.518C383.544 169.415 382.455 170.018 380.869 170.326L373.778 171.705L373.342 169.467L375.251 169.096C374.536 168.941 373.932 168.602 373.439 168.079C372.946 167.555 372.619 166.877 372.457 166.045ZM374.245 166.186C374.41 167.034 374.846 167.683 375.552 168.132C376.259 168.582 377.068 168.718 377.979 168.541L378.615 168.417L378.464 167.64C378.241 166.493 378.01 165.601 377.772 164.963C377.537 164.34 377.259 163.913 376.937 163.682C376.633 163.464 376.254 163.4 375.799 163.488C375.202 163.604 374.755 163.903 374.457 164.385C374.175 164.863 374.105 165.464 374.245 166.186Z" fill="#7D4039"/>
<path d="M374.675 178.081L386.33 176.928L386.561 179.269L384.627 179.46C385.367 179.789 385.954 180.278 386.388 180.926C386.823 181.591 387.083 182.353 387.168 183.212C387.441 185.967 386.017 187.499 382.896 187.807L375.707 188.518L375.468 186.106L382.514 185.409C383.517 185.31 384.23 185.039 384.652 184.595C385.076 184.167 385.247 183.539 385.165 182.711C385.069 181.74 384.682 180.99 384.002 180.463C383.341 179.949 382.508 179.742 381.505 179.841L374.913 180.493L374.675 178.081ZM388.895 178.725L388.866 177.449C389.908 177.427 390.748 177.625 391.384 178.044C392.037 178.462 392.401 179.053 392.476 179.818C392.511 180.168 392.463 180.494 392.332 180.797C392.202 181.115 391.998 181.481 391.717 181.894C391.465 182.273 391.293 182.571 391.202 182.789C391.113 183.023 391.078 183.236 391.097 183.427C391.177 184.239 391.823 184.674 393.034 184.731L393.088 186.003C392.031 186.044 391.184 185.854 390.548 185.435C389.911 185.015 389.555 184.423 389.48 183.659C389.448 183.341 389.489 183.023 389.602 182.706C389.717 182.406 389.921 182.024 390.213 181.561C390.466 181.198 390.639 180.908 390.729 180.69C390.82 180.472 390.855 180.251 390.833 180.028C390.754 179.232 390.108 178.798 388.895 178.725Z" fill="#7D4039"/>
<path d="M375.769 200.002C375.766 198.818 376.011 197.793 376.505 196.928C376.998 196.063 377.693 195.389 378.587 194.906C379.498 194.44 380.577 194.205 381.825 194.202C383.073 194.199 384.146 194.428 385.043 194.89C385.957 195.367 386.662 196.037 387.161 196.9C387.659 197.763 387.91 198.786 387.913 199.97C387.916 201.122 387.67 202.131 387.177 202.996C386.683 203.861 385.981 204.535 385.07 205.017C384.175 205.5 383.104 205.743 381.856 205.746C380.608 205.749 379.527 205.512 378.614 205.034C377.717 204.557 377.019 203.887 376.521 203.024C376.022 202.161 375.772 201.154 375.769 200.002ZM377.641 199.997C377.643 200.989 378.005 201.788 378.727 202.394C379.448 203 380.489 203.301 381.849 203.298C383.209 203.294 384.24 202.988 384.943 202.378C385.661 201.768 386.019 200.967 386.017 199.975C386.014 198.967 385.652 198.16 384.93 197.554C384.225 196.948 383.192 196.646 381.832 196.65C380.472 196.653 379.433 196.96 378.714 197.57C377.996 198.18 377.638 198.989 377.641 199.997Z" fill="#7D4039"/>
<path d="M375.05 215.875C375.134 214.919 375.333 214.037 375.645 213.229C375.974 212.423 376.386 211.761 376.881 211.243L378.446 212.08C377.979 212.633 377.603 213.25 377.318 213.932C377.031 214.629 376.856 215.336 376.793 216.054C376.718 216.898 376.813 217.549 377.078 218.006C377.342 218.463 377.73 218.714 378.24 218.76C378.654 218.796 378.986 218.681 379.234 218.414C379.499 218.148 379.72 217.734 379.898 217.172L380.554 214.941C381.146 212.969 382.271 212.057 383.928 212.204C385.028 212.301 385.866 212.817 386.441 213.751C387.017 214.686 387.242 215.862 387.117 217.281C387.045 218.093 386.857 218.856 386.553 219.568C386.248 220.296 385.834 220.886 385.312 221.337L383.748 220.5C384.205 220.059 384.572 219.537 384.85 218.935C385.128 218.333 385.294 217.73 385.348 217.124C385.421 216.295 385.317 215.652 385.037 215.193C384.772 214.736 384.377 214.484 383.851 214.438C383.054 214.367 382.497 214.848 382.181 215.88L381.526 218.111C381.227 219.128 380.807 219.878 380.267 220.361C379.725 220.859 379.031 221.07 378.186 220.996C377.071 220.897 376.233 220.381 375.673 219.448C375.129 218.516 374.921 217.325 375.05 215.875Z" fill="#7D4039"/>
<path d="M370.781 241.57C371.027 240.576 371.477 239.756 372.131 239.11C372.797 238.484 373.624 238.07 374.613 237.87C375.602 237.669 376.702 237.719 377.914 238.018C379.125 238.318 380.114 238.785 380.88 239.419C381.662 240.057 382.201 240.809 382.499 241.673C382.796 242.538 382.82 243.475 382.57 244.484C382.359 245.339 381.984 246.054 381.447 246.629C380.909 247.205 380.281 247.577 379.564 247.746L386.483 249.457L385.902 251.81L369.476 247.75L370.046 245.443L372.027 245.933C371.424 245.437 371.013 244.8 370.793 244.021C370.57 243.257 370.566 242.44 370.781 241.57ZM372.449 242.625C372.21 243.588 372.368 244.451 372.921 245.214C373.474 245.977 374.411 246.522 375.731 246.848C377.051 247.175 378.126 247.127 378.955 246.706C379.8 246.288 380.342 245.598 380.58 244.635C380.822 243.657 380.666 242.786 380.113 242.023C379.576 241.264 378.647 240.721 377.326 240.395C376.006 240.068 374.924 240.114 374.079 240.531C373.234 240.949 372.69 241.647 372.449 242.625Z" fill="#7D4039"/>
<path d="M365.37 259.564C366.007 257.753 367.014 256.504 368.392 255.818C369.785 255.138 371.364 255.109 373.13 255.73C374.262 256.128 375.178 256.705 375.879 257.46C376.59 258.236 377.044 259.117 377.24 260.102C377.436 261.087 377.348 262.107 376.977 263.164C376.44 264.688 375.528 265.716 374.239 266.246C372.965 266.781 371.475 266.749 369.769 266.149L369 265.878L371.851 257.773C369.499 257.132 367.924 257.944 367.127 260.208C366.904 260.842 366.785 261.495 366.769 262.168C366.747 262.856 366.867 263.551 367.129 264.253L365.305 264.375C365.028 263.718 364.899 262.951 364.918 262.076C364.938 261.201 365.088 260.364 365.37 259.564ZM375.337 262.689C375.672 261.738 375.643 260.88 375.251 260.114C374.859 259.349 374.193 258.733 373.255 258.267L371.08 264.448C372.123 264.764 373.011 264.771 373.744 264.469C374.493 264.173 375.024 263.579 375.337 262.689Z" fill="#7D4039"/>
<path d="M354.485 283.835C355.388 282.141 356.573 281.059 358.038 280.589C359.518 280.126 361.083 280.336 362.735 281.216C363.794 281.781 364.613 282.489 365.192 283.342C365.777 284.216 366.093 285.155 366.138 286.158C366.184 287.162 365.943 288.157 365.416 289.146C364.656 290.572 363.598 291.45 362.244 291.779C360.904 292.116 359.436 291.86 357.841 291.009L357.121 290.625L361.163 283.043C358.934 282.054 357.255 282.619 356.126 284.737C355.81 285.33 355.593 285.958 355.475 286.62C355.35 287.297 355.364 288.002 355.516 288.736L353.695 288.581C353.52 287.89 353.508 287.113 353.66 286.251C353.811 285.388 354.086 284.583 354.485 283.835ZM363.867 288.429C364.341 287.539 364.442 286.687 364.17 285.871C363.898 285.055 363.333 284.346 362.476 283.743L359.393 289.525C360.376 289.994 361.253 290.136 362.023 289.948C362.808 289.768 363.423 289.262 363.867 288.429Z" fill="#7D4039"/>
<path d="M350.289 291.728L352.673 299.12L359.91 298.415L358.356 300.782L353.28 301.212L354.906 306.04L353.353 308.407L351.112 301.454L343.389 302.243L344.969 299.835L350.464 299.335L348.722 294.116L350.289 291.728Z" fill="#7D4039"/>
<path d="M337.03 303.507L349.529 313.546L348.041 315.399L346.488 314.151C346.802 314.834 346.899 315.569 346.78 316.356C346.661 317.143 346.321 317.885 345.76 318.584C345.109 319.395 344.349 319.944 343.482 320.233C342.604 320.533 341.679 320.56 340.708 320.313C339.739 320.089 338.768 319.586 337.795 318.805C336.822 318.023 336.115 317.179 335.674 316.271C335.224 315.375 335.051 314.467 335.155 313.545C335.262 312.645 335.641 311.79 336.292 310.979C336.833 310.306 337.462 309.816 338.18 309.51C338.9 309.227 339.626 309.153 340.358 309.289L335.512 305.397L337.03 303.507ZM338.127 311.684C337.496 312.47 337.276 313.319 337.466 314.231C337.647 315.156 338.267 316.045 339.328 316.896C340.388 317.748 341.383 318.157 342.313 318.124C343.245 318.113 344.026 317.715 344.658 316.929C345.289 316.143 345.514 315.288 345.333 314.363C345.155 313.46 344.536 312.583 343.476 311.732C342.415 310.88 341.419 310.46 340.487 310.47C339.545 310.493 338.758 310.898 338.127 311.684Z" fill="#7D4039"/>
<path d="M324.953 323.603C326.293 322.228 327.733 321.519 329.271 321.477C330.821 321.446 332.266 322.084 333.606 323.391C334.465 324.228 335.054 325.137 335.372 326.118C335.69 327.12 335.731 328.11 335.495 329.086C335.258 330.062 334.749 330.951 333.967 331.753C332.839 332.91 331.579 333.458 330.187 333.397C328.806 333.347 327.468 332.69 326.173 331.428L325.589 330.859L331.586 324.706C329.722 323.135 327.952 323.208 326.277 324.927C325.808 325.408 325.424 325.95 325.127 326.554C324.818 327.169 324.634 327.85 324.576 328.597L322.87 327.94C322.895 327.227 323.1 326.478 323.486 325.692C323.872 324.907 324.361 324.21 324.953 323.603ZM332.68 330.633C333.384 329.911 333.719 329.12 333.685 328.261C333.652 327.401 333.307 326.563 332.652 325.745L328.078 330.437C328.891 331.162 329.693 331.542 330.486 331.577C331.29 331.623 332.021 331.308 332.68 330.633Z" fill="#7D4039"/>
<path d="M317.489 331.021L325.189 339.846L323.416 341.393L322.044 339.819C322.501 341.268 322.058 342.684 320.717 344.066L320.151 344.623L318.668 343.178L319.677 342.107C321.143 340.552 321.225 339.026 319.92 337.531L315.645 332.63L317.489 331.021Z" fill="#7D4039"/>
<path d="M316.862 350.309L318.395 352.308L316.148 354.032L314.615 352.032L316.862 350.309ZM307.913 338.994L315.04 348.288L313.117 349.763L305.99 340.469L307.913 338.994Z" fill="#7D4039"/>
<path d="M295.387 347.613C296.992 346.559 298.55 346.177 300.061 346.467C301.581 346.771 302.855 347.705 303.882 349.27C304.541 350.273 304.92 351.288 305.019 352.313C305.114 353.361 304.941 354.336 304.499 355.239C304.058 356.141 303.369 356.899 302.433 357.514C301.082 358.401 299.734 358.664 298.387 358.304C297.049 357.958 295.884 357.029 294.892 355.517L294.444 354.835L301.626 350.12C300.144 348.183 298.4 347.874 296.394 349.191C295.832 349.56 295.341 350.007 294.92 350.532C294.486 351.066 294.16 351.691 293.942 352.409L292.418 351.4C292.596 350.709 292.958 350.021 293.504 349.337C294.05 348.653 294.678 348.078 295.387 347.613ZM301.418 356.142C302.26 355.589 302.758 354.889 302.91 354.043C303.063 353.196 302.907 352.303 302.443 351.363L296.966 354.959C297.603 355.843 298.305 356.387 299.071 356.592C299.846 356.81 300.629 356.66 301.418 356.142Z" fill="#7D4039"/>
<path d="M286.555 353.268L292.042 363.615L289.964 364.717L289.053 363C289.03 363.809 288.8 364.537 288.365 365.185C287.915 365.84 287.309 366.37 286.545 366.774C284.1 368.071 282.142 367.334 280.673 364.564L277.289 358.181L279.431 357.046L282.747 363.301C283.22 364.191 283.741 364.748 284.312 364.97C284.869 365.2 285.514 365.121 286.249 364.731C287.112 364.274 287.658 363.631 287.889 362.802C288.113 361.995 287.989 361.146 287.517 360.256L284.414 354.404L286.555 353.268Z" fill="#7D4039"/>
<path d="M266.607 362.632C267.713 362.169 268.769 361.996 269.772 362.113C270.767 362.252 271.661 362.649 272.457 363.304C273.258 363.975 273.899 364.886 274.382 366.037C275.099 367.749 275.177 369.303 274.617 370.7C274.057 372.097 272.951 373.141 271.298 373.833C270.619 374.118 269.898 374.281 269.135 374.323C268.372 374.365 267.69 374.269 267.089 374.035L267.139 372.167C267.713 372.377 268.288 372.466 268.864 372.433C269.432 372.421 269.937 372.322 270.379 372.137C271.427 371.698 272.1 371.026 272.397 370.121C272.686 369.236 272.577 368.189 272.07 366.979C271.563 365.769 270.884 364.934 270.033 364.476C269.173 364.038 268.219 364.038 267.171 364.477C266.729 364.663 266.301 364.946 265.888 365.327C265.467 365.729 265.13 366.208 264.877 366.765L263.501 365.468C263.762 364.89 264.183 364.341 264.763 363.821C265.328 363.307 265.943 362.91 266.607 362.632Z" fill="#7D4039"/>
<path d="M262.162 379.945L262.969 382.332L260.286 383.239L259.479 380.851L262.162 379.945ZM257.339 366.349L261.089 377.445L258.792 378.221L255.042 367.125L257.339 366.349Z" fill="#7D4039"/>
<path d="M244.398 370.03C245.188 369.826 245.933 369.799 246.633 369.949C247.332 370.099 247.936 370.389 248.444 370.82C248.936 371.255 249.268 371.805 249.44 372.471C249.656 373.308 249.617 374.02 249.323 374.608C249.013 375.201 248.398 375.731 247.478 376.2C246.543 376.673 245.239 377.126 243.566 377.558L242.775 377.762L242.931 378.366C243.159 379.249 243.509 379.836 243.981 380.127C244.453 380.419 245.115 380.454 245.967 380.234C246.618 380.066 247.242 379.798 247.841 379.428C248.444 379.074 249.032 378.6 249.605 378.006L250.752 379.47C250.271 380.04 249.621 380.563 248.802 381.039C247.983 381.515 247.171 381.857 246.365 382.065C244.816 382.465 243.574 382.389 242.638 381.837C241.707 381.301 241.039 380.251 240.635 378.686L238.828 371.692L241.036 371.122L241.522 373.004C241.633 372.281 241.935 371.658 242.427 371.134C242.92 370.61 243.577 370.242 244.398 370.03ZM244.365 371.824C243.529 372.04 242.908 372.514 242.502 373.247C242.096 373.979 242.009 374.795 242.241 375.694L242.403 376.321L243.17 376.123C244.301 375.831 245.178 375.547 245.801 375.27C246.408 374.998 246.817 374.694 247.028 374.358C247.227 374.043 247.269 373.66 247.153 373.211C247.001 372.622 246.675 372.194 246.176 371.926C245.682 371.674 245.078 371.64 244.365 371.824Z" fill="#7D4039"/>
</svg>
