<svg width="24" height="24" viewBox="0 0 24 24" fill="none" xmlns="http://www.w3.org/2000/svg">
<path d="M9.43996 5.34032L8.99994 4.9003C8.79993 4.70029 8.79993 4.38032 8.99994 4.1803L12.56 0.700305C12.76 0.500289 13.08 0.500289 13.28 0.700305L13.68 1.10029C13.88 1.3003 13.88 1.62027 13.68 1.82029L10.1199 5.3803C9.95995 5.54034 9.63993 5.54034 9.43996 5.34032Z" fill="#7D4039"/>
<path d="M9.80006 5.90009C9.56006 5.90009 9.36005 5.82008 9.16008 5.62011L8.72006 5.18009C8.56008 5.02011 8.44008 4.78011 8.44008 4.54011C8.44008 4.30011 8.52009 4.06011 8.72006 3.90012L12.2801 0.340109C12.6001 0.0200938 13.2001 0.0200938 13.5601 0.340109L14.0001 0.780125C14.3601 1.14012 14.3601 1.70014 14.0001 2.06014L10.4401 5.62016C10.2801 5.82008 10.0401 5.90009 9.80006 5.90009ZM9.72005 5.06009C9.76003 5.10008 9.80006 5.10008 9.84005 5.06009L13.4001 1.50008C13.4401 1.46009 13.4401 1.42006 13.4001 1.38008L12.9601 0.940062C12.9201 0.900078 12.88 0.900078 12.8401 0.940062L9.28003 4.50008C9.24005 4.54006 9.24005 4.54006 9.24005 4.58009C9.24005 4.62012 9.24005 4.62008 9.28003 4.66011L9.72005 5.06009Z" fill="#7D4039"/>
<path d="M17.36 13.2602L16.92 12.8202C16.72 12.6202 16.72 12.3002 16.92 12.1002L20.48 8.54015C20.68 8.34013 21 8.34013 21.2 8.54015L21.64 8.98017C21.84 9.18018 21.84 9.50015 21.64 9.70017L18.08 13.2602C17.88 13.4602 17.56 13.4602 17.36 13.2602Z" fill="#7D4039"/>
<path d="M17.72 13.8201C17.48 13.8201 17.24 13.74 17.08 13.5401L16.64 13.1001C16.28 12.7401 16.28 12.18 16.64 11.82L20.2 8.26003C20.52 7.94002 21.12 7.94002 21.48 8.26003L21.92 8.70005C22.28 9.06005 22.28 9.62006 21.92 9.98006L18.36 13.5401C18.2 13.74 17.96 13.8201 17.72 13.8201ZM20.84 8.86003C20.84 8.86003 20.8 8.86003 20.7599 8.90001L17.1999 12.46C17.1599 12.5 17.1599 12.54 17.1999 12.58L17.6399 13.02C17.6799 13.06 17.72 13.06 17.7599 13.02L21.32 9.46003C21.3599 9.42005 21.3599 9.38001 21.32 9.34003L20.8799 8.90001C20.8799 8.86003 20.84 8.86003 20.84 8.86003Z" fill="#7D4039"/>
<path d="M2.96002 22.3002C2.32003 22.3002 1.68 22.0202 1.24003 21.5802L0.720047 21.1002C0.24 20.6202 0 20.0202 0 19.3402C0 18.7002 0.279984 18.0602 0.72 17.6202L0.84 17.5002C1.16002 17.1802 1.56 16.9803 1.95998 16.8603L3.12 16.5803C3.39998 16.5003 3.68002 16.3403 3.87998 16.1403L7.51997 12.5003L7.23998 12.2203C6.75998 11.7403 6.75998 10.9803 7.23998 10.5403C7.71998 10.0603 8.47997 10.0603 8.91998 10.5403L9.19997 10.8203L12.12 7.90029C12.1599 7.8603 12.2 7.78029 12.2 7.70027C12.2 7.62026 12.16 7.54029 12.12 7.50026L11.48 6.86027C11.32 7.02026 11.12 7.10027 10.92 7.10027C10.68 7.10027 10.4799 7.02026 10.3599 6.86027L9.87994 6.38027C9.51994 6.02027 9.51994 5.46025 9.87994 5.10025L13.44 1.54024C13.5999 1.38025 13.8399 1.26025 14.0799 1.26025C14.3199 1.26025 14.5599 1.34027 14.7199 1.54024L15.1999 2.02024C15.3599 2.18022 15.4399 2.38024 15.4399 2.58025C15.4399 2.78027 15.3599 2.98024 15.1999 3.14027L19.1599 7.10027C19.3199 6.94029 19.5199 6.86027 19.7199 6.86027C19.92 6.86027 20.16 6.94029 20.28 7.10027L20.76 7.58027C20.9199 7.74025 21.0399 7.98025 21.0399 8.22025C21.0399 8.46025 20.9599 8.70026 20.76 8.86024L17.1999 12.4203C16.8399 12.7803 16.2799 12.7803 15.9199 12.4203L15.4399 11.9403C15.2799 11.7803 15.1999 11.5803 15.1999 11.3802C15.1999 11.1802 15.2799 10.9803 15.4399 10.8202L14.7999 10.1802C14.76 10.1403 14.6799 10.1002 14.5999 10.1002C14.5199 10.1002 14.4399 10.1402 14.3999 10.1802L11.4799 13.1002L11.7599 13.3802C11.9999 13.6202 12.1199 13.9002 12.1199 14.2202C12.1199 14.5402 11.9999 14.8602 11.7599 15.0602C11.2799 15.5402 10.5199 15.5402 10.0799 15.0602L9.79992 14.7802L6.15994 18.4202C5.95992 18.6202 5.79994 18.9002 5.71992 19.1802L5.43994 20.3002C5.31994 20.7402 5.11992 21.1402 4.79995 21.4202L4.67995 21.5402C4.2 22.0602 3.6 22.3002 2.96002 22.3002ZM8.12002 10.9802C8.00002 10.9802 7.92 11.0202 7.84003 11.1002C7.68005 11.2602 7.68005 11.5002 7.84003 11.6602L8.68003 12.5002L4.48003 16.7002C4.16002 17.0202 3.76003 17.2202 3.36005 17.3402L2.20003 17.6202C1.92005 17.7002 1.64002 17.8602 1.44005 18.0602L1.32005 18.1802C0.960047 18.5002 0.800062 18.9402 0.800062 19.3402C0.800062 19.7402 0.960047 20.1802 1.28006 20.5002L1.76006 20.9802C2.08008 21.3402 2.52005 21.5002 2.96006 21.5002C3.40008 21.5002 3.80006 21.3402 4.12008 21.0202L4.24008 20.9002C4.44009 20.7002 4.60008 20.4202 4.68009 20.1402L4.96008 18.9802C5.08008 18.5402 5.28009 18.1402 5.60006 17.8602L9.80006 13.6602L10.6401 14.5002C10.8 14.6602 11.04 14.6602 11.2001 14.5002C11.2801 14.4202 11.3201 14.3403 11.3201 14.2203C11.3201 14.1003 11.2801 13.9803 11.2001 13.9002L10.3601 13.0602L13.8401 9.58024C14.0401 9.38022 14.3201 9.26022 14.6001 9.26022C14.88 9.26022 15.1601 9.38022 15.36 9.58024L16 10.2202C16.16 10.3802 16.24 10.5802 16.24 10.7802C16.24 10.9803 16.16 11.1802 16 11.3403L16.48 11.8203C16.52 11.8602 16.56 11.8602 16.6 11.8203L20.16 8.26024C20.2 8.22026 20.2 8.22026 20.2 8.18022C20.2 8.18022 20.2 8.14024 20.16 8.10021L19.68 7.62021C19.5201 7.78019 19.32 7.86021 19.12 7.86021C18.92 7.86021 18.72 7.78019 18.56 7.62021L14.6 3.66021C14.44 3.50022 14.36 3.30021 14.36 3.10019C14.36 2.90018 14.44 2.70021 14.6 2.54018L14.12 2.06018C14.08 2.02019 14.04 2.02019 14 2.06018L10.44 5.62019C10.4 5.66018 10.4 5.70021 10.44 5.74019L10.92 6.22019C11.08 6.06021 11.28 5.98019 11.48 5.98019C11.72 5.98019 11.88 6.06021 12.04 6.22019L12.68 6.86018C12.88 7.06019 13 7.34018 13 7.62016C13 7.90015 12.88 8.18018 12.68 8.38015L9.20001 11.8601L8.4 11.1002C8.31998 11.0202 8.19998 10.9802 8.12002 10.9802Z" fill="#7D4039"/>
<path d="M23.5999 23.5001H15.1999C15.1999 22.1801 16.2799 21.1001 17.5999 21.1001H21.1999C22.5199 21.1001 23.5999 22.1801 23.5999 23.5001Z" fill="#7D4039"/>
<path d="M24 23.9002H14.8V23.5002C14.8 21.9402 16.0399 20.7002 17.6 20.7002H21.2C22.76 20.7002 24 21.9402 24 23.5002V23.9002H24ZM15.64 23.1001H23.16C22.96 22.1801 22.16 21.5002 21.2 21.5002H17.6C16.64 21.5002 15.84 22.1801 15.64 23.1001Z" fill="#7D4039"/>
<path d="M22 20.3H16.8001C16.5601 20.3 16.4001 20.14 16.4001 19.9C16.4001 19.66 16.5601 19.5 16.8001 19.5H22C22.24 19.5 22.4 19.66 22.4 19.9C22.4 20.14 22.24 20.3 22 20.3Z" fill="#7D4039"/>
</svg>
