<svg width="43" height="43" viewBox="0 0 43 43" fill="none" xmlns="http://www.w3.org/2000/svg">
<g filter="url(#filter0_d)">
<path d="M22.1022 1.19266C19.3984 1.19266 16.733 1.83764 14.3442 3.0634L11.5511 0.29782C11.3041 0.0531008 10.9481 -0.0503171 10.6067 0.0232817C10.2653 0.0968806 9.98506 0.337398 9.86301 0.661613L8.45257 4.40858L4.6682 5.80499C4.34075 5.92583 4.09782 6.20328 4.02349 6.54132C3.94922 6.87936 4.0536 7.2317 4.30077 7.47635L7.09394 10.2419C5.85592 12.607 5.20449 15.246 5.20449 17.923C5.20449 27.1482 12.7847 34.6535 22.1022 34.6535C31.4196 34.6535 39 27.1482 39 17.923C39 8.69785 31.4196 1.19266 22.1022 1.19266ZM22.1022 23.4293C25.1687 23.4293 27.6635 20.9592 27.6635 17.923C27.6635 14.8869 25.1687 12.4168 22.1022 12.4168C20.9391 12.4168 19.8588 12.7728 18.9652 13.3795L16.3835 10.8234C17.9531 9.58157 19.9415 8.83779 22.1022 8.83779C27.1619 8.83779 31.2783 12.9134 31.2783 17.923C31.2783 22.9326 27.1619 27.0083 22.1022 27.0083C17.0425 27.0083 12.9261 22.9326 12.9261 17.923C12.9261 15.7837 13.6773 13.8151 14.9315 12.261L17.5132 14.8171C16.9004 15.7019 16.5409 16.7715 16.5409 17.923C16.5409 20.9592 19.0357 23.4293 22.1022 23.4293ZM22.8282 17.2042L20.4572 14.8566C20.9481 14.5974 21.508 14.4499 22.1022 14.4499C24.0365 14.4499 25.6101 16.0079 25.6101 17.923C25.6101 19.838 24.0365 21.3961 22.1022 21.3961C20.168 21.3961 18.5943 19.838 18.5943 17.923C18.5943 17.3347 18.7434 16.7804 19.0052 16.2942L21.3762 18.6418C21.5767 18.8403 21.8395 18.9395 22.1022 18.9395C22.365 18.9395 22.6277 18.8403 22.8281 18.6418C23.2292 18.2449 23.2292 17.6012 22.8282 17.2042ZM11.2291 2.85426L14.6841 6.27512L14.2399 8.70096L10.4433 4.94193L11.2291 2.85426ZM6.88278 7.15756L8.99133 6.37955L12.788 10.1386L10.3378 10.5784L6.88278 7.15756ZM22.1022 32.6204C13.9171 32.6204 7.25794 26.0272 7.25794 17.923C7.25794 15.7897 7.729 13.6842 8.62834 11.7611L9.26594 12.3924C9.4602 12.5848 9.72208 12.6901 9.9919 12.6901C10.0528 12.6901 10.114 12.6848 10.1751 12.6739L12.4376 12.2678C11.4442 13.9258 10.8728 15.8594 10.8728 17.923C10.8728 24.0537 15.9103 29.0414 22.1022 29.0414C28.2942 29.0414 33.3318 24.0537 33.3318 17.923C33.3318 11.7924 28.2942 6.80468 22.1022 6.80468C20.018 6.80468 18.065 7.37049 16.3904 8.35411L16.8006 6.11396C16.8606 5.78595 16.7544 5.44953 16.5163 5.21383L15.8787 4.58255C17.821 3.69211 19.9476 3.22571 22.1023 3.22571C30.2875 3.22571 36.9466 9.81891 36.9466 17.923C36.9466 26.0272 30.2874 32.6204 22.1022 32.6204Z" fill="black"/>
</g>
<defs>
<filter id="filter0_d" x="0" y="0" width="43" height="42.6535" filterUnits="userSpaceOnUse" color-interpolation-filters="sRGB">
<feFlood flood-opacity="0" result="BackgroundImageFix"/>
<feColorMatrix in="SourceAlpha" type="matrix" values="0 0 0 0 0 0 0 0 0 0 0 0 0 0 0 0 0 0 127 0" result="hardAlpha"/>
<feOffset dy="4"/>
<feGaussianBlur stdDeviation="2"/>
<feComposite in2="hardAlpha" operator="out"/>
<feColorMatrix type="matrix" values="0 0 0 0 0 0 0 0 0 0 0 0 0 0 0 0 0 0 0.25 0"/>
<feBlend mode="normal" in2="BackgroundImageFix" result="effect1_dropShadow"/>
<feBlend mode="normal" in="SourceGraphic" in2="effect1_dropShadow" result="shape"/>
</filter>
</defs>
</svg>
