<svg width="16" height="16" viewBox="0 0 16 16" fill="none" xmlns="http://www.w3.org/2000/svg">
<path d="M12.9225 9.60849L10.004 11.2927C9.87128 11.0793 9.66259 10.9241 9.42 10.8585L6.09625 9.96799C5.53237 9.81546 4.9312 9.88958 4.42125 10.1745L3.25 10.825V10.25C3.25 10.1837 3.22366 10.1201 3.17678 10.0732C3.12989 10.0263 3.0663 9.99999 3 9.99999H1C0.933696 9.99999 0.870107 10.0263 0.823223 10.0732C0.776339 10.1201 0.75 10.1837 0.75 10.25V15.25C0.75 15.3163 0.776339 15.3799 0.823223 15.4268C0.870107 15.4736 0.933696 15.5 1 15.5H3C3.0663 15.5 3.12989 15.4736 3.17678 15.4268C3.22366 15.3799 3.25 15.3163 3.25 15.25V14.5632C3.63451 14.8474 4.10014 15.0005 4.57825 15H6.96875C7.36065 14.9998 7.74574 14.8974 8.086 14.703L13.9235 11.341C14.0754 11.2534 14.2013 11.1271 14.2885 10.975C14.3758 10.8228 14.4211 10.6503 14.42 10.475C14.4198 10.2998 14.3736 10.1277 14.286 9.97595C14.1984 9.82421 14.0725 9.69816 13.9208 9.61041C13.7692 9.52266 13.5971 9.47629 13.4219 9.47595C13.2467 9.47562 13.0745 9.52132 12.9225 9.60849ZM2.75 15H1.25V10.5H2.75V15ZM13.6728 10.9082L7.83725 14.2695C7.57267 14.4204 7.27335 14.4999 6.96875 14.5H4.57825C4.34836 14.5006 4.12062 14.4556 3.90824 14.3676C3.69586 14.2796 3.50306 14.1503 3.341 13.9872L3.25 13.8962V11.3962L4.664 10.6107C5.06062 10.3891 5.5282 10.3315 5.96675 10.4502L9.2905 11.3407C9.35503 11.3567 9.41574 11.3854 9.46906 11.4251C9.52238 11.4648 9.56725 11.5147 9.60105 11.5719C9.63484 11.6292 9.65688 11.6926 9.66588 11.7584C9.67488 11.8243 9.67065 11.8913 9.65345 11.9555C9.63624 12.0197 9.60641 12.0799 9.56569 12.1324C9.52496 12.185 9.47417 12.2288 9.41628 12.2615C9.3584 12.2942 9.29457 12.315 9.22855 12.3227C9.16252 12.3305 9.09562 12.3249 9.03175 12.3065L6.836 11.7182C6.80429 11.7097 6.77121 11.7076 6.73865 11.7118C6.7061 11.7161 6.67471 11.7268 6.64627 11.7432C6.61783 11.7596 6.5929 11.7815 6.57291 11.8075C6.55292 11.8335 6.53825 11.8633 6.52975 11.895C6.52125 11.9267 6.51907 11.9598 6.52335 11.9923C6.52764 12.0249 6.53829 12.0563 6.5547 12.0847C6.57111 12.1132 6.59296 12.1381 6.61901 12.1581C6.64506 12.1781 6.67479 12.1927 6.7065 12.2012C6.7065 12.2012 9.075 12.825 9.16275 12.825C9.29773 12.8265 9.43158 12.8002 9.55596 12.7477C9.68034 12.6953 9.79259 12.6178 9.88571 12.52C9.97884 12.4223 10.0509 12.3065 10.0973 12.1797C10.1437 12.0529 10.1635 11.918 10.1555 11.7832L13.1718 10.042C13.2861 9.97637 13.4217 9.95854 13.5491 9.99239C13.6765 10.0262 13.7853 10.109 13.852 10.2227C13.8963 10.2995 13.9198 10.3866 13.92 10.4752C13.9207 10.5628 13.8982 10.649 13.8547 10.7251C13.8113 10.8011 13.7485 10.8643 13.6728 10.9082Z" fill="#7D4039"/>
<path d="M9.75 10.5C10.3433 10.5 10.9234 10.3241 11.4167 9.99441C11.9101 9.66477 12.2946 9.19623 12.5216 8.64805C12.7487 8.09987 12.8081 7.49667 12.6923 6.91473C12.5766 6.33279 12.2909 5.79824 11.8713 5.37868C11.4518 4.95912 10.9172 4.6734 10.3353 4.55765C9.75332 4.44189 9.15012 4.5013 8.60195 4.72836C8.05377 4.95543 7.58523 5.33994 7.25559 5.83329C6.92595 6.32664 6.75 6.90666 6.75 7.5C6.75086 8.29539 7.06721 9.05795 7.62963 9.62037C8.19205 10.1828 8.95461 10.4991 9.75 10.5ZM9.75 5C10.2444 5 10.7278 5.14662 11.1389 5.42133C11.55 5.69603 11.8705 6.08648 12.0597 6.54329C12.2489 7.00011 12.2984 7.50277 12.202 7.98773C12.1055 8.47268 11.8674 8.91814 11.5178 9.26777C11.1681 9.6174 10.7227 9.8555 10.2377 9.95196C9.75277 10.0484 9.2501 9.99892 8.79329 9.8097C8.33647 9.62048 7.94603 9.30005 7.67132 8.88893C7.39662 8.4778 7.25 7.99445 7.25 7.5C7.25073 6.83718 7.51435 6.20172 7.98304 5.73304C8.45172 5.26436 9.08718 5.00073 9.75 5Z" fill="#7D4039"/>
<path d="M4.5 3.75C4.4337 3.75 4.37011 3.72366 4.32322 3.67678C4.27634 3.62989 4.25 3.5663 4.25 3.5C4.25 3.4337 4.22366 3.37011 4.17678 3.32322C4.12989 3.27634 4.0663 3.25 4 3.25C3.9337 3.25 3.87011 3.27634 3.82322 3.32322C3.77634 3.37011 3.75 3.4337 3.75 3.5C3.75064 3.65457 3.79902 3.80516 3.88852 3.93117C3.97802 4.05719 4.10427 4.15248 4.25 4.204V4.5C4.25 4.5663 4.27634 4.62989 4.32322 4.67678C4.37011 4.72366 4.4337 4.75 4.5 4.75C4.5663 4.75 4.62989 4.72366 4.67678 4.67678C4.72366 4.62989 4.75 4.5663 4.75 4.5V4.204C4.91667 4.14529 5.05719 4.0295 5.14666 3.87712C5.23613 3.72474 5.26879 3.54561 5.23885 3.37146C5.2089 3.1973 5.11829 3.03937 4.98306 2.92562C4.84783 2.81188 4.67671 2.74967 4.5 2.75C4.45055 2.75 4.40222 2.73534 4.36111 2.70787C4.32 2.6804 4.28795 2.64135 4.26903 2.59567C4.25011 2.54999 4.24516 2.49972 4.2548 2.45123C4.26445 2.40273 4.28826 2.35819 4.32322 2.32322C4.35819 2.28826 4.40273 2.26445 4.45123 2.2548C4.49972 2.24516 4.54999 2.25011 4.59567 2.26903C4.64135 2.28795 4.6804 2.32 4.70787 2.36111C4.73534 2.40222 4.75 2.45055 4.75 2.5C4.75 2.5663 4.77634 2.62989 4.82322 2.67678C4.87011 2.72366 4.9337 2.75 5 2.75C5.0663 2.75 5.12989 2.72366 5.17678 2.67678C5.22366 2.62989 5.25 2.5663 5.25 2.5C5.24936 2.34543 5.20098 2.19484 5.11148 2.06883C5.02198 1.94281 4.89573 1.84752 4.75 1.796V1.5C4.75 1.4337 4.72366 1.37011 4.67678 1.32322C4.62989 1.27634 4.5663 1.25 4.5 1.25C4.4337 1.25 4.37011 1.27634 4.32322 1.32322C4.27634 1.37011 4.25 1.4337 4.25 1.5V1.796C4.08333 1.85471 3.94281 1.9705 3.85334 2.12288C3.76387 2.27526 3.73121 2.45439 3.76115 2.62854C3.7911 2.8027 3.88171 2.96063 4.01694 3.07438C4.15217 3.18812 4.32329 3.25033 4.5 3.25C4.5663 3.25 4.62989 3.27634 4.67678 3.32322C4.72366 3.37011 4.75 3.4337 4.75 3.5C4.75 3.5663 4.72366 3.62989 4.67678 3.67678C4.62989 3.72366 4.5663 3.75 4.5 3.75Z" fill="#7D4039"/>
<path d="M4.5 5.5C4.99445 5.5 5.4778 5.35337 5.88893 5.07867C6.30005 4.80397 6.62048 4.41352 6.8097 3.95671C6.99892 3.49989 7.04843 2.99723 6.95196 2.51227C6.8555 2.02732 6.6174 1.58186 6.26777 1.23223C5.91814 0.882603 5.47268 0.644501 4.98773 0.548038C4.50277 0.451575 4.00011 0.501083 3.54329 0.690302C3.08648 0.879521 2.69603 1.19995 2.42133 1.61107C2.14662 2.0222 2 2.50555 2 3C2.00073 3.66282 2.26435 4.29828 2.73304 4.76696C3.20172 5.23564 3.83718 5.49927 4.5 5.5ZM4.5 1C4.89556 1 5.28224 1.1173 5.61114 1.33706C5.94004 1.55682 6.19638 1.86918 6.34776 2.23463C6.49913 2.60008 6.53874 3.00222 6.46157 3.39018C6.3844 3.77814 6.19392 4.13451 5.91421 4.41421C5.63451 4.69392 5.27814 4.8844 4.89018 4.96157C4.50222 5.03874 4.10009 4.99913 3.73463 4.84776C3.36918 4.69638 3.05682 4.44004 2.83706 4.11114C2.6173 3.78224 2.5 3.39556 2.5 3C2.5006 2.46975 2.7115 1.96139 3.08644 1.58644C3.46139 1.2115 3.96975 1.0006 4.5 1Z" fill="#7D4039"/>
<path d="M9.75 8.75C9.61739 8.75 9.49021 8.69732 9.39645 8.60355C9.30268 8.50979 9.25 8.38261 9.25 8.25C9.25 8.1837 9.22366 8.12011 9.17678 8.07322C9.12989 8.02634 9.0663 8 9 8C8.9337 8 8.87011 8.02634 8.82322 8.07322C8.77634 8.12011 8.75 8.1837 8.75 8.25C8.75083 8.47105 8.82488 8.6856 8.96058 8.86011C9.09627 9.03461 9.28596 9.15924 9.5 9.2145V9.5C9.5 9.5663 9.52634 9.62989 9.57322 9.67678C9.62011 9.72366 9.6837 9.75 9.75 9.75C9.8163 9.75 9.87989 9.72366 9.92678 9.67678C9.97366 9.62989 10 9.5663 10 9.5V9.2145C10.2354 9.15391 10.4406 9.00949 10.5771 8.80834C10.7136 8.60719 10.7719 8.36315 10.7413 8.12201C10.7106 7.88088 10.5929 7.65923 10.4104 7.49868C10.2279 7.33812 9.99308 7.2497 9.75 7.25C9.65111 7.25 9.55444 7.22068 9.47221 7.16573C9.38999 7.11079 9.3259 7.0327 9.28806 6.94134C9.25022 6.84998 9.24031 6.74945 9.25961 6.65245C9.2789 6.55546 9.32652 6.46637 9.39645 6.39645C9.46637 6.32652 9.55546 6.2789 9.65245 6.25961C9.74944 6.24031 9.84998 6.25022 9.94134 6.28806C10.0327 6.3259 10.1108 6.38999 10.1657 6.47221C10.2207 6.55444 10.25 6.65111 10.25 6.75C10.25 6.8163 10.2763 6.87989 10.3232 6.92678C10.3701 6.97366 10.4337 7 10.5 7C10.5663 7 10.6299 6.97366 10.6768 6.92678C10.7237 6.87989 10.75 6.8163 10.75 6.75C10.7492 6.52895 10.6751 6.3144 10.5394 6.13989C10.4037 5.96539 10.214 5.84076 10 5.7855V5.5C10 5.4337 9.97366 5.37011 9.92678 5.32322C9.87989 5.27634 9.8163 5.25 9.75 5.25C9.6837 5.25 9.62011 5.27634 9.57322 5.32322C9.52634 5.37011 9.5 5.4337 9.5 5.5V5.7855C9.26459 5.84609 9.05939 5.99051 8.92291 6.19166C8.78643 6.39281 8.72805 6.63685 8.75874 6.87799C8.78943 7.11912 8.90707 7.34077 9.08958 7.50132C9.27209 7.66188 9.50692 7.7503 9.75 7.75C9.88261 7.75 10.0098 7.80268 10.1036 7.89645C10.1973 7.99021 10.25 8.11739 10.25 8.25C10.25 8.38261 10.1973 8.50979 10.1036 8.60355C10.0098 8.69732 9.88261 8.75 9.75 8.75Z" fill="#7D4039"/>
<path d="M13.5 0.5C13.1044 0.5 12.7178 0.617298 12.3889 0.837061C12.06 1.05682 11.8036 1.36918 11.6522 1.73463C11.5009 2.10009 11.4613 2.50222 11.5384 2.89018C11.6156 3.27814 11.8061 3.63451 12.0858 3.91421C12.3655 4.19392 12.7219 4.3844 13.1098 4.46157C13.4978 4.53874 13.8999 4.49913 14.2654 4.34776C14.6308 4.19638 14.9432 3.94004 15.1629 3.61114C15.3827 3.28224 15.5 2.89556 15.5 2.5C15.4994 1.96975 15.2885 1.46139 14.9136 1.08644C14.5386 0.7115 14.0303 0.500596 13.5 0.5ZM13.5 3.25C13.4337 3.25 13.3701 3.22366 13.3232 3.17678C13.2763 3.12989 13.25 3.0663 13.25 3C13.25 2.9337 13.2237 2.87011 13.1768 2.82322C13.1299 2.77634 13.0663 2.75 13 2.75C12.9337 2.75 12.8701 2.77634 12.8232 2.82322C12.7763 2.87011 12.75 2.9337 12.75 3C12.7506 3.15457 12.799 3.30516 12.8885 3.43117C12.978 3.55719 13.1043 3.65248 13.25 3.704V3.9775C12.9006 3.91874 12.5834 3.73808 12.3546 3.46759C12.1258 3.1971 12.0002 2.85428 12.0002 2.5C12.0002 2.14572 12.1258 1.8029 12.3546 1.53241C12.5834 1.26192 12.9006 1.08126 13.25 1.0225V1.296C13.0833 1.35471 12.9428 1.4705 12.8533 1.62288C12.7639 1.77526 12.7312 1.95439 12.7612 2.12854C12.7911 2.3027 12.8817 2.46063 13.0169 2.57438C13.1522 2.68812 13.3233 2.75033 13.5 2.75C13.5663 2.75 13.6299 2.77634 13.6768 2.82322C13.7237 2.87011 13.75 2.9337 13.75 3C13.75 3.0663 13.7237 3.12989 13.6768 3.17678C13.6299 3.22366 13.5663 3.25 13.5 3.25ZM13.75 3.9775V3.704C13.9167 3.64529 14.0572 3.5295 14.1467 3.37712C14.2361 3.22474 14.2688 3.04561 14.2388 2.87146C14.2089 2.6973 14.1183 2.53937 13.9831 2.42562C13.8478 2.31188 13.6767 2.24967 13.5 2.25C13.4506 2.25 13.4022 2.23534 13.3611 2.20787C13.32 2.1804 13.288 2.14135 13.269 2.09567C13.2501 2.04999 13.2452 1.99972 13.2548 1.95123C13.2645 1.90273 13.2883 1.85819 13.3232 1.82322C13.3582 1.78826 13.4027 1.76445 13.4512 1.7548C13.4997 1.74516 13.55 1.75011 13.5957 1.76903C13.6414 1.78795 13.6804 1.82 13.7079 1.86111C13.7353 1.90222 13.75 1.95055 13.75 2C13.75 2.0663 13.7763 2.12989 13.8232 2.17678C13.8701 2.22366 13.9337 2.25 14 2.25C14.0663 2.25 14.1299 2.22366 14.1768 2.17678C14.2237 2.12989 14.25 2.0663 14.25 2C14.2494 1.84543 14.201 1.69484 14.1115 1.56883C14.022 1.44281 13.8957 1.34752 13.75 1.296V1.0225C14.0994 1.08126 14.4166 1.26192 14.6454 1.53241C14.8742 1.8029 14.9998 2.14572 14.9998 2.5C14.9998 2.85428 14.8742 3.1971 14.6454 3.46759C14.4166 3.73808 14.0994 3.91874 13.75 3.9775Z" fill="#7D4039"/>
</svg>
